<?xml version="1.0" encoding="UTF-8" standalone="no"?><svg xmlns="http://www.w3.org/2000/svg" xmlns:xlink="http://www.w3.org/1999/xlink" contentScriptType="application/ecmascript" contentStyleType="text/css" height="118px" preserveAspectRatio="none" style="width:375px;height:118px;" version="1.1" viewBox="0 0 375 118" width="375px" zoomAndPan="magnify"><defs><filter height="300%" id="fjrn0prptk5qw" width="300%" x="-1" y="-1"><feGaussianBlur result="blurOut" stdDeviation="2.0"/><feColorMatrix in="blurOut" result="blurOut2" type="matrix" values="0 0 0 0 0 0 0 0 0 0 0 0 0 0 0 0 0 0 .4 0"/><feOffset dx="4.0" dy="4.0" in="blurOut2" result="blurOut3"/><feBlend in="SourceGraphic" in2="blurOut3" mode="normal"/></filter></defs><g><!--MD5=[590eedcf42c4b840e61ab79854d36b1e]
class documents--><rect fill="#FEFECE" filter="url(#fjrn0prptk5qw)" height="99.2188" id="documents" style="stroke: #A80036; stroke-width: 1.5;" width="157" x="6" y="8"/><ellipse cx="45.75" cy="24" fill="#ADD1B2" rx="11" ry="11" style="stroke: #A80036; stroke-width: 1.0;"/><path d="M48.7188,29.6406 Q48.1406,29.9375 47.5,30.0781 Q46.8594,30.2344 46.1563,30.2344 Q43.6563,30.2344 42.3281,28.5938 Q41.0156,26.9375 41.0156,23.8125 Q41.0156,20.6875 42.3281,19.0313 Q43.6563,17.375 46.1563,17.375 Q46.8594,17.375 47.5,17.5313 Q48.1563,17.6875 48.7188,17.9844 L48.7188,20.7031 Q48.0938,20.125 47.5,19.8594 Q46.9063,19.5781 46.2813,19.5781 Q44.9375,19.5781 44.25,20.6563 Q43.5625,21.7188 43.5625,23.8125 Q43.5625,25.9063 44.25,26.9844 Q44.9375,28.0469 46.2813,28.0469 Q46.9063,28.0469 47.5,27.7813 Q48.0938,27.5 48.7188,26.9219 L48.7188,29.6406 Z "/><text fill="#000000" font-family="sans-serif" font-size="12" lengthAdjust="spacingAndGlyphs" textLength="70" x="65.25" y="28.1543">documents</text><line style="stroke: #A80036; stroke-width: 1.5;" x1="7" x2="162" y1="40" y2="40"/><text fill="#000000" font-family="sans-serif" font-size="11" lengthAdjust="spacingAndGlyphs" textLength="36" x="12" y="54.2104">id : int</text><text fill="#000000" font-family="sans-serif" font-size="11" lengthAdjust="spacingAndGlyphs" textLength="12" x="12" y="67.0151">...</text><text fill="#000000" font-family="sans-serif" font-size="11" lengthAdjust="spacingAndGlyphs" textLength="0" x="16" y="79.8198"/><text fill="#000000" font-family="sans-serif" font-size="11" lengthAdjust="spacingAndGlyphs" textLength="145" x="12" y="92.6245">type : consular | apostille</text><line style="stroke: #A80036; stroke-width: 1.5;" x1="7" x2="162" y1="99.2188" y2="99.2188"/><path d="M198,37.5 L198,53.5 L163.36,57.5 L198,61.5 L198,77.7656 A0,0 0 0 0 198,77.7656 L363,77.7656 A0,0 0 0 0 363,77.7656 L363,47.5 L353,37.5 L198,37.5 A0,0 0 0 0 198,37.5 " fill="#FBFB77" filter="url(#fjrn0prptk5qw)" style="stroke: #A80036; stroke-width: 1.0;"/><path d="M353,37.5 L353,47.5 L363,47.5 L353,37.5 " fill="#FBFB77" style="stroke: #A80036; stroke-width: 1.0;"/><text fill="#000000" font-family="sans-serif" font-size="13" lengthAdjust="spacingAndGlyphs" textLength="144" x="204" y="54.5669">기존에는 documents 테이블에</text><text fill="#000000" font-family="sans-serif" font-size="13" lengthAdjust="spacingAndGlyphs" textLength="144" x="204" y="69.6997">type으로 구분하여 저장하고 있었다</text><!--MD5=[93c689036ccf6a5daa15043996f92ea3]
@startuml
class documents {
    id : int
    ...

    type : consular | apostille
}
note right
기존에는 documents 테이블에
type으로 구분하여 저장하고 있었다
end note
@enduml

PlantUML version 1.2020.02(Sun Mar 01 10:22:07 UTC 2020)
(GPL source distribution)
Java Runtime: OpenJDK Runtime Environment
JVM: OpenJDK 64-Bit Server VM
Java Version: 17.0.12+7-Debian-2deb12u1
Operating System: Linux
Default Encoding: UTF-8
Language: en
Country: null
--></g></svg>