<?xml version="1.0" encoding="UTF-8" standalone="no"?><svg xmlns="http://www.w3.org/2000/svg" xmlns:xlink="http://www.w3.org/1999/xlink" contentScriptType="application/ecmascript" contentStyleType="text/css" height="448px" preserveAspectRatio="none" style="width:755px;height:448px;" version="1.1" viewBox="0 0 755 448" width="755px" zoomAndPan="magnify"><defs><filter height="300%" id="fydd14kd4rv7c" width="300%" x="-1" y="-1"><feGaussianBlur result="blurOut" stdDeviation="2.0"/><feColorMatrix in="blurOut" result="blurOut2" type="matrix" values="0 0 0 0 0 0 0 0 0 0 0 0 0 0 0 0 0 0 .4 0"/><feOffset dx="4.0" dy="4.0" in="blurOut2" result="blurOut3"/><feBlend in="SourceGraphic" in2="blurOut3" mode="normal"/></filter></defs><g><line style="stroke: #A80036; stroke-width: 1.0; stroke-dasharray: 5.0,5.0;" x1="48" x2="48" y1="38.2969" y2="407.8906"/><line style="stroke: #A80036; stroke-width: 1.0; stroke-dasharray: 5.0,5.0;" x1="321" x2="321" y1="38.2969" y2="407.8906"/><line style="stroke: #A80036; stroke-width: 1.0; stroke-dasharray: 5.0,5.0;" x1="530.5" x2="530.5" y1="38.2969" y2="407.8906"/><line style="stroke: #A80036; stroke-width: 1.0; stroke-dasharray: 5.0,5.0;" x1="690.5" x2="690.5" y1="38.2969" y2="407.8906"/><rect fill="#FEFECE" filter="url(#fydd14kd4rv7c)" height="30.2969" style="stroke: #A80036; stroke-width: 1.5;" width="77" x="8" y="3"/><text fill="#000000" font-family="sans-serif" font-size="14" lengthAdjust="spacingAndGlyphs" textLength="63" x="15" y="22.9951">Frontend</text><rect fill="#FEFECE" filter="url(#fydd14kd4rv7c)" height="30.2969" style="stroke: #A80036; stroke-width: 1.5;" width="77" x="8" y="406.8906"/><text fill="#000000" font-family="sans-serif" font-size="14" lengthAdjust="spacingAndGlyphs" textLength="63" x="15" y="426.8857">Frontend</text><rect fill="#FEFECE" filter="url(#fydd14kd4rv7c)" height="30.2969" style="stroke: #A80036; stroke-width: 1.5;" width="75" x="282" y="3"/><text fill="#000000" font-family="sans-serif" font-size="14" lengthAdjust="spacingAndGlyphs" textLength="61" x="289" y="22.9951">Backend</text><rect fill="#FEFECE" filter="url(#fydd14kd4rv7c)" height="30.2969" style="stroke: #A80036; stroke-width: 1.5;" width="75" x="282" y="406.8906"/><text fill="#000000" font-family="sans-serif" font-size="14" lengthAdjust="spacingAndGlyphs" textLength="61" x="289" y="426.8857">Backend</text><rect fill="#FEFECE" filter="url(#fydd14kd4rv7c)" height="30.2969" style="stroke: #A80036; stroke-width: 1.5;" width="140" x="458.5" y="3"/><text fill="#000000" font-family="sans-serif" font-size="14" lengthAdjust="spacingAndGlyphs" textLength="126" x="465.5" y="22.9951">ShowtimesService</text><rect fill="#FEFECE" filter="url(#fydd14kd4rv7c)" height="30.2969" style="stroke: #A80036; stroke-width: 1.5;" width="140" x="458.5" y="406.8906"/><text fill="#000000" font-family="sans-serif" font-size="14" lengthAdjust="spacingAndGlyphs" textLength="126" x="465.5" y="426.8857">ShowtimesService</text><rect fill="#FEFECE" filter="url(#fydd14kd4rv7c)" height="30.2969" style="stroke: #A80036; stroke-width: 1.5;" width="112" x="632.5" y="3"/><text fill="#000000" font-family="sans-serif" font-size="14" lengthAdjust="spacingAndGlyphs" textLength="98" x="639.5" y="22.9951">MoviesService</text><rect fill="#FEFECE" filter="url(#fydd14kd4rv7c)" height="30.2969" style="stroke: #A80036; stroke-width: 1.5;" width="112" x="632.5" y="406.8906"/><text fill="#000000" font-family="sans-serif" font-size="14" lengthAdjust="spacingAndGlyphs" textLength="98" x="639.5" y="426.8857">MoviesService</text><polygon fill="#A80036" points="309.5,65.4297,319.5,69.4297,309.5,73.4297,313.5,69.4297" style="stroke: #A80036; stroke-width: 1.0;"/><line style="stroke: #A80036; stroke-width: 1.0;" x1="48.5" x2="315.5" y1="69.4297" y2="69.4297"/><text fill="#000000" font-family="sans-serif" font-size="13" lengthAdjust="spacingAndGlyphs" textLength="161" x="55.5" y="64.3638">Create showtime request</text><polygon fill="#A80036" points="518.5,94.5625,528.5,98.5625,518.5,102.5625,522.5,98.5625" style="stroke: #A80036; stroke-width: 1.0;"/><line style="stroke: #A80036; stroke-width: 1.0;" x1="321.5" x2="524.5" y1="98.5625" y2="98.5625"/><text fill="#000000" font-family="sans-serif" font-size="13" lengthAdjust="spacingAndGlyphs" textLength="185" x="328.5" y="93.4966">createShowtimes(createDto)</text><polygon fill="#A80036" points="678.5,123.6953,688.5,127.6953,678.5,131.6953,682.5,127.6953" style="stroke: #A80036; stroke-width: 1.0;"/><line style="stroke: #A80036; stroke-width: 1.0;" x1="530.5" x2="684.5" y1="127.6953" y2="127.6953"/><text fill="#000000" font-family="sans-serif" font-size="13" lengthAdjust="spacingAndGlyphs" textLength="136" x="537.5" y="122.6294">moviesExist(movieId)</text><polygon fill="#A80036" points="541.5,152.8281,531.5,156.8281,541.5,160.8281,537.5,156.8281" style="stroke: #A80036; stroke-width: 1.0;"/><line style="stroke: #A80036; stroke-width: 1.0; stroke-dasharray: 2.0,2.0;" x1="535.5" x2="689.5" y1="156.8281" y2="156.8281"/><text fill="#000000" font-family="sans-serif" font-size="13" lengthAdjust="spacingAndGlyphs" textLength="26" x="547.5" y="151.7622">true</text><polygon fill="#A80036" points="332.5,181.9609,322.5,185.9609,332.5,189.9609,328.5,185.9609" style="stroke: #A80036; stroke-width: 1.0;"/><line style="stroke: #A80036; stroke-width: 1.0; stroke-dasharray: 2.0,2.0;" x1="326.5" x2="529.5" y1="185.9609" y2="185.9609"/><text fill="#000000" font-family="sans-serif" font-size="13" lengthAdjust="spacingAndGlyphs" textLength="78" x="338.5" y="180.895">showtimes[]</text><polygon fill="#A80036" points="59.5,211.0938,49.5,215.0938,59.5,219.0938,55.5,215.0938" style="stroke: #A80036; stroke-width: 1.0;"/><line style="stroke: #A80036; stroke-width: 1.0; stroke-dasharray: 2.0,2.0;" x1="53.5" x2="320.5" y1="215.0938" y2="215.0938"/><text fill="#000000" font-family="sans-serif" font-size="13" lengthAdjust="spacingAndGlyphs" textLength="85" x="65.5" y="210.0278">Created(201)</text><polygon fill="#A80036" points="309.5,240.2266,319.5,244.2266,309.5,248.2266,313.5,244.2266" style="stroke: #A80036; stroke-width: 1.0;"/><line style="stroke: #A80036; stroke-width: 1.0;" x1="48.5" x2="315.5" y1="244.2266" y2="244.2266"/><text fill="#000000" font-family="sans-serif" font-size="13" lengthAdjust="spacingAndGlyphs" textLength="249" x="55.5" y="239.1606">Request movie list showing after 11 PM</text><polygon fill="#A80036" points="678.5,269.3594,688.5,273.3594,678.5,277.3594,682.5,273.3594" style="stroke: #A80036; stroke-width: 1.0;"/><line style="stroke: #A80036; stroke-width: 1.0;" x1="321.5" x2="684.5" y1="273.3594" y2="273.3594"/><text fill="#000000" font-family="sans-serif" font-size="13" lengthAdjust="spacingAndGlyphs" textLength="97" x="328.5" y="268.2935">searchMovies()</text><polygon fill="#A80036" points="541.5,298.4922,531.5,302.4922,541.5,306.4922,537.5,302.4922" style="stroke: #A80036; stroke-width: 1.0;"/><line style="stroke: #A80036; stroke-width: 1.0;" x1="535.5" x2="689.5" y1="302.4922" y2="302.4922"/><text fill="#000000" font-family="sans-serif" font-size="13" lengthAdjust="spacingAndGlyphs" textLength="123" x="547.5" y="297.4263">searchShowtimes()</text><polygon fill="#A80036" points="678.5,327.625,688.5,331.625,678.5,335.625,682.5,331.625" style="stroke: #A80036; stroke-width: 1.0;"/><line style="stroke: #A80036; stroke-width: 1.0; stroke-dasharray: 2.0,2.0;" x1="530.5" x2="684.5" y1="331.625" y2="331.625"/><text fill="#000000" font-family="sans-serif" font-size="13" lengthAdjust="spacingAndGlyphs" textLength="78" x="537.5" y="326.5591">showtimes[]</text><polygon fill="#A80036" points="332.5,356.7578,322.5,360.7578,332.5,364.7578,328.5,360.7578" style="stroke: #A80036; stroke-width: 1.0;"/><line style="stroke: #A80036; stroke-width: 1.0; stroke-dasharray: 2.0,2.0;" x1="326.5" x2="689.5" y1="360.7578" y2="360.7578"/><text fill="#000000" font-family="sans-serif" font-size="13" lengthAdjust="spacingAndGlyphs" textLength="56" x="338.5" y="355.6919">movies[]</text><polygon fill="#A80036" points="59.5,385.8906,49.5,389.8906,59.5,393.8906,55.5,389.8906" style="stroke: #A80036; stroke-width: 1.0;"/><line style="stroke: #A80036; stroke-width: 1.0; stroke-dasharray: 2.0,2.0;" x1="53.5" x2="320.5" y1="389.8906" y2="389.8906"/><text fill="#000000" font-family="sans-serif" font-size="13" lengthAdjust="spacingAndGlyphs" textLength="56" x="65.5" y="384.8247">movies[]</text><!--MD5=[4036f05ed4d31982ab227bfafa0f4f29]
@startuml
Frontend -> Backend: Create showtime request
Backend -> ShowtimesService: createShowtimes(createDto)
ShowtimesService -> MoviesService: moviesExist(movieId)
ShowtimesService <- - MoviesService: true
Backend <- - ShowtimesService: showtimes[]
Frontend <- - Backend: Created(201)

Frontend -> Backend: Request movie list showing after 11 PM
Backend -> MoviesService: searchMovies()
MoviesService -> ShowtimesService: searchShowtimes()
MoviesService <- - ShowtimesService: showtimes[]
Backend <- - MoviesService: movies[]
Frontend <- - Backend: movies[]
@enduml

PlantUML version 1.2020.02(Sun Mar 01 10:22:07 UTC 2020)
(GPL source distribution)
Java Runtime: OpenJDK Runtime Environment
JVM: OpenJDK 64-Bit Server VM
Java Version: 17.0.14+7-Debian-1deb12u1
Operating System: Linux
Default Encoding: UTF-8
Language: en
Country: null
--></g></svg>