<?xml version="1.0" encoding="UTF-8" standalone="no"?><svg xmlns="http://www.w3.org/2000/svg" xmlns:xlink="http://www.w3.org/1999/xlink" contentScriptType="application/ecmascript" contentStyleType="text/css" height="185px" preserveAspectRatio="none" style="width:323px;height:185px;" version="1.1" viewBox="0 0 323 185" width="323px" zoomAndPan="magnify"><defs><filter height="300%" id="fq9tebdre2ln5" width="300%" x="-1" y="-1"><feGaussianBlur result="blurOut" stdDeviation="2.0"/><feColorMatrix in="blurOut" result="blurOut2" type="matrix" values="0 0 0 0 0 0 0 0 0 0 0 0 0 0 0 0 0 0 .4 0"/><feOffset dx="4.0" dy="4.0" in="blurOut2" result="blurOut3"/><feBlend in="SourceGraphic" in2="blurOut3" mode="normal"/></filter></defs><g><!--MD5=[6c2d02fe013167922f007c9285828968]
cluster mbs--><polygon fill="#FFFFFF" filter="url(#fq9tebdre2ln5)" points="108,32.5,291,32.5,298,54.7969,301,54.7969,301,142.5,108,142.5,108,32.5" style="stroke: #000000; stroke-width: 1.5;"/><line style="stroke: #000000; stroke-width: 1.5;" x1="108" x2="298" y1="54.7969" y2="54.7969"/><text fill="#000000" font-family="sans-serif" font-size="14" font-weight="bold" lengthAdjust="spacingAndGlyphs" textLength="177" x="112" y="47.4951">Movie Booking System</text><ellipse cx="204.38" cy="87.304" fill="#FEFECE" filter="url(#fq9tebdre2ln5)" rx="13.38" ry="11.304" style="stroke: #A80036; stroke-width: 1.5;"/><text fill="#000000" font-family="sans-serif" font-size="14" lengthAdjust="spacingAndGlyphs" textLength="0" x="206.38" y="91.9525"/><!--MD5=[92848cbaf65985a669855153c5362c37]
entity customer--><ellipse cx="39" cy="103.5" fill="#FEFECE" filter="url(#fq9tebdre2ln5)" rx="8" ry="8" style="stroke: #A80036; stroke-width: 1.5;"/><path d="M39,111.5 L39,138.5 M26,119.5 L52,119.5 M39,138.5 L26,153.5 M39,138.5 L52,153.5 " fill="none" filter="url(#fq9tebdre2ln5)" style="stroke: #A80036; stroke-width: 1.5;"/><text fill="#000000" font-family="sans-serif" font-size="14" lengthAdjust="spacingAndGlyphs" textLength="66" x="6" y="171.9951">customer</text><!--MD5=[9383602d3e41c617da9b8b81d6a24f28]
link customer to mbs--><path d="M72.3,134.5 C78.1638,134.5 84.5709,134.5 91.299,134.5 C94.6631,134.5 98.1074,134.5 101.6041,134.5 C103.3524,134.5 105.1139,134.5 106.885,134.5 C107.1063,134.5 107.3279,134.5 107.5496,134.5 " fill="none" id="customer-&gt;mbs" style="stroke: #A80036; stroke-width: 1.0;"/><polygon fill="#A80036" points="107.5496,134.5,98.5496,130.5,102.5496,134.5,98.5496,138.5,107.5496,134.5" style="stroke: #A80036; stroke-width: 1.0;"/><!--MD5=[13fe6aa7804644e1d57670373bf156ba]
@startuml
left to right direction
actor customer

package "Movie Booking System" as mbs {
    usecase " "
}

customer - -> mbs
@enduml

PlantUML version 1.2020.02(Sun Mar 01 10:22:07 UTC 2020)
(GPL source distribution)
Java Runtime: OpenJDK Runtime Environment
JVM: OpenJDK 64-Bit Server VM
Java Version: 17.0.14+7-Debian-1deb12u1
Operating System: Linux
Default Encoding: UTF-8
Language: en
Country: null
--></g></svg>