<?xml version="1.0" encoding="UTF-8" standalone="no"?><svg xmlns="http://www.w3.org/2000/svg" xmlns:xlink="http://www.w3.org/1999/xlink" contentScriptType="application/ecmascript" contentStyleType="text/css" height="243px" preserveAspectRatio="none" style="width:347px;height:243px;" version="1.1" viewBox="0 0 347 243" width="347px" zoomAndPan="magnify"><defs><filter height="300%" id="f1x2rt67ncvp0a" width="300%" x="-1" y="-1"><feGaussianBlur result="blurOut" stdDeviation="2.0"/><feColorMatrix in="blurOut" result="blurOut2" type="matrix" values="0 0 0 0 0 0 0 0 0 0 0 0 0 0 0 0 0 0 .4 0"/><feOffset dx="4.0" dy="4.0" in="blurOut2" result="blurOut3"/><feBlend in="SourceGraphic" in2="blurOut3" mode="normal"/></filter></defs><g><!--MD5=[6c2d02fe013167922f007c9285828968]
cluster mbs--><polygon fill="#FFFFFF" filter="url(#f1x2rt67ncvp0a)" points="132,32.5,315,32.5,322,54.7969,325,54.7969,325,142.5,132,142.5,132,32.5" style="stroke: #000000; stroke-width: 1.5;"/><line style="stroke: #000000; stroke-width: 1.5;" x1="132" x2="322" y1="54.7969" y2="54.7969"/><text fill="#000000" font-family="sans-serif" font-size="14" font-weight="bold" lengthAdjust="spacingAndGlyphs" textLength="177" x="136" y="47.4951">Movie Booking System</text><ellipse cx="228.38" cy="87.304" fill="#FEFECE" filter="url(#f1x2rt67ncvp0a)" rx="13.38" ry="11.304" style="stroke: #A80036; stroke-width: 1.5;"/><text fill="#000000" font-family="sans-serif" font-size="14" lengthAdjust="spacingAndGlyphs" textLength="0" x="230.38" y="91.9525"/><!--MD5=[92848cbaf65985a669855153c5362c37]
entity customer--><ellipse cx="51" cy="45.5" fill="#FEFECE" filter="url(#f1x2rt67ncvp0a)" rx="8" ry="8" style="stroke: #A80036; stroke-width: 1.5;"/><path d="M51,53.5 L51,80.5 M38,61.5 L64,61.5 M51,80.5 L38,95.5 M51,80.5 L64,95.5 " fill="none" filter="url(#f1x2rt67ncvp0a)" style="stroke: #A80036; stroke-width: 1.5;"/><text fill="#000000" font-family="sans-serif" font-size="14" lengthAdjust="spacingAndGlyphs" textLength="66" x="18" y="113.9951">customer</text><!--MD5=[65a041cd1922b3dee6e64063a2213939]
entity administrator--><ellipse cx="51" cy="161.5" fill="#FEFECE" filter="url(#f1x2rt67ncvp0a)" rx="8" ry="8" style="stroke: #A80036; stroke-width: 1.5;"/><path d="M51,169.5 L51,196.5 M38,177.5 L64,177.5 M51,196.5 L38,211.5 M51,196.5 L64,211.5 " fill="none" filter="url(#f1x2rt67ncvp0a)" style="stroke: #A80036; stroke-width: 1.5;"/><text fill="#000000" font-family="sans-serif" font-size="14" lengthAdjust="spacingAndGlyphs" textLength="90" x="6" y="229.9951">administrator</text><!--MD5=[9383602d3e41c617da9b8b81d6a24f28]
link customer to mbs--><path d="M84.33,99.46 C94.11,105.49 105.15,111.44 116,115.5 C118.8969,116.5838 121.8593,117.6061 124.8683,118.5704 C126.3729,119.0525 127.889,119.5202 129.4144,119.9738 C130.1771,120.2006 130.9421,120.4239 131.7091,120.6437 " fill="none" id="customer-&gt;mbs" style="stroke: #A80036; stroke-width: 1.0;"/><polygon fill="#A80036" points="131.7091,120.6437,124.1594,114.319,126.9026,119.2662,121.9554,122.0094,131.7091,120.6437" style="stroke: #A80036; stroke-width: 1.0;"/><!--MD5=[1f1769e5086b5f2ea9df4a268b87c213]
link administrator to mbs--><path d="M96.29,177.86 C121.875,169.405 154.06,158.77 180.15,150.1487 C186.6725,147.9934 192.8141,145.964 198.3763,144.1259 C199.7669,143.6664 201.1213,143.2188 202.4363,142.7843 C202.6007,142.73 202.7645,142.6758 202.9276,142.6219 " fill="none" id="administrator-&gt;mbs" style="stroke: #A80036; stroke-width: 1.0;"/><polygon fill="#A80036" points="202.9276,142.6219,193.127,141.6479,198.1801,144.1908,195.6372,149.2438,202.9276,142.6219" style="stroke: #A80036; stroke-width: 1.0;"/><!--MD5=[d940f8b67845cb86d6d2d5ee5267fb41]
@startuml
left to right direction
actor customer
actor administrator

package "Movie Booking System" as mbs {
usecase " "
}

customer - -> mbs
administrator - -> mbs
@enduml

PlantUML version 1.2020.02(Sun Mar 01 10:22:07 UTC 2020)
(GPL source distribution)
Java Runtime: OpenJDK Runtime Environment
JVM: OpenJDK 64-Bit Server VM
Java Version: 17.0.14+7-Debian-1deb12u1
Operating System: Linux
Default Encoding: UTF-8
Language: en
Country: null
--></g></svg>