<?xml version="1.0" encoding="UTF-8" standalone="no"?><svg xmlns="http://www.w3.org/2000/svg" xmlns:xlink="http://www.w3.org/1999/xlink" contentScriptType="application/ecmascript" contentStyleType="text/css" height="923px" preserveAspectRatio="none" style="width:729px;height:923px;" version="1.1" viewBox="0 0 729 923" width="729px" zoomAndPan="magnify"><defs><filter height="300%" id="f1b923wbstsdwg" width="300%" x="-1" y="-1"><feGaussianBlur result="blurOut" stdDeviation="2.0"/><feColorMatrix in="blurOut" result="blurOut2" type="matrix" values="0 0 0 0 0 0 0 0 0 0 0 0 0 0 0 0 0 0 .4 0"/><feOffset dx="4.0" dy="4.0" in="blurOut2" result="blurOut3"/><feBlend in="SourceGraphic" in2="blurOut3" mode="normal"/></filter></defs><g><!--MD5=[6c2d02fe013167922f007c9285828968]
cluster mbs--><polygon fill="#FFFFFF" filter="url(#f1b923wbstsdwg)" points="116,24,299,24,306,46.2969,559,46.2969,559,911,116,911,116,24" style="stroke: #000000; stroke-width: 1.5;"/><line style="stroke: #000000; stroke-width: 1.5;" x1="116" x2="306" y1="46.2969" y2="46.2969"/><text fill="#000000" font-family="sans-serif" font-size="14" font-weight="bold" lengthAdjust="spacingAndGlyphs" textLength="177" x="120" y="38.9951">Movie Booking System</text><!--MD5=[c7109cc79c436e4de7b73789f25103a4]
cluster theaters--><polygon fill="#FFFFFF" filter="url(#f1b923wbstsdwg)" points="146.5,318,219.5,318,226.5,340.2969,321.5,340.2969,321.5,468,146.5,468,146.5,318" style="stroke: #000000; stroke-width: 1.5;"/><line style="stroke: #000000; stroke-width: 1.5;" x1="146.5" x2="226.5" y1="340.2969" y2="340.2969"/><text fill="#000000" font-family="sans-serif" font-size="14" font-weight="bold" lengthAdjust="spacingAndGlyphs" textLength="67" x="150.5" y="332.9951">theaters</text><!--MD5=[b1e937784b653f6ad52390770b5ca1d7]
cluster movies--><polygon fill="#FFFFFF" filter="url(#f1b923wbstsdwg)" points="152,492,214,492,221,514.2969,316,514.2969,316,705,152,705,152,492" style="stroke: #000000; stroke-width: 1.5;"/><line style="stroke: #000000; stroke-width: 1.5;" x1="152" x2="221" y1="514.2969" y2="514.2969"/><text fill="#000000" font-family="sans-serif" font-size="14" font-weight="bold" lengthAdjust="spacingAndGlyphs" textLength="56" x="156" y="506.9951">movies</text><!--MD5=[55c1321e5e660f70fb77e9cf74eefc72]
cluster customers--><polygon fill="#FFFFFF" filter="url(#f1b923wbstsdwg)" points="140,67,230,67,237,89.2969,328,89.2969,328,294,140,294,140,67" style="stroke: #000000; stroke-width: 1.5;"/><line style="stroke: #000000; stroke-width: 1.5;" x1="140" x2="237" y1="89.2969" y2="89.2969"/><text fill="#000000" font-family="sans-serif" font-size="14" font-weight="bold" lengthAdjust="spacingAndGlyphs" textLength="84" x="144" y="81.9951">customers</text><!--MD5=[dffa5d117727925aa4668bf20905af82]
cluster showtimes--><polygon fill="#FFFFFF" filter="url(#f1b923wbstsdwg)" points="141,729,233,729,240,751.2969,327,751.2969,327,887,141,887,141,729" style="stroke: #000000; stroke-width: 1.5;"/><line style="stroke: #000000; stroke-width: 1.5;" x1="141" x2="240" y1="751.2969" y2="751.2969"/><text fill="#000000" font-family="sans-serif" font-size="14" font-weight="bold" lengthAdjust="spacingAndGlyphs" textLength="86" x="145" y="743.9951">showtimes</text><!--MD5=[0c64180b40cb6a42c012370e26047e31]
cluster tickets--><polygon fill="#FFFFFF" filter="url(#f1b923wbstsdwg)" points="356,594,415,594,422,616.2969,535,616.2969,535,882,356,882,356,594" style="stroke: #000000; stroke-width: 1.5;"/><line style="stroke: #000000; stroke-width: 1.5;" x1="356" x2="422" y1="616.2969" y2="616.2969"/><text fill="#000000" font-family="sans-serif" font-size="14" font-weight="bold" lengthAdjust="spacingAndGlyphs" textLength="53" x="360" y="608.9951">tickets</text><ellipse cx="233.8339" cy="368.0668" fill="#FEFECE" filter="url(#f1b923wbstsdwg)" rx="63.3339" ry="15.0668" style="stroke: #A80036; stroke-width: 1.5;"/><text fill="#000000" font-family="sans-serif" font-size="14" lengthAdjust="spacingAndGlyphs" textLength="89" x="189.3339" y="372.7152">AddTheaters</text><ellipse cx="233.9465" cy="435.1893" fill="#FEFECE" filter="url(#f1b923wbstsdwg)" rx="71.4465" ry="16.6893" style="stroke: #A80036; stroke-width: 1.5;"/><text fill="#000000" font-family="sans-serif" font-size="14" lengthAdjust="spacingAndGlyphs" textLength="110" x="178.9465" y="439.8377">SearchTheaters</text><ellipse cx="234.033" cy="542.0236" fill="#FEFECE" filter="url(#f1b923wbstsdwg)" rx="56.033" ry="14.5236" style="stroke: #A80036; stroke-width: 1.5;"/><text fill="#000000" font-family="sans-serif" font-size="14" lengthAdjust="spacingAndGlyphs" textLength="75" x="196.533" y="546.6721">AddMovies</text><ellipse cx="234.1001" cy="606.92" fill="#FEFECE" filter="url(#f1b923wbstsdwg)" rx="62.6001" ry="14.92" style="stroke: #A80036; stroke-width: 1.5;"/><text fill="#000000" font-family="sans-serif" font-size="14" lengthAdjust="spacingAndGlyphs" textLength="87" x="190.6001" y="611.5685">MovieDetails</text><ellipse cx="233.9597" cy="673.0919" fill="#FEFECE" filter="url(#f1b923wbstsdwg)" rx="65.9597" ry="15.5919" style="stroke: #A80036; stroke-width: 1.5;"/><text fill="#000000" font-family="sans-serif" font-size="14" lengthAdjust="spacingAndGlyphs" textLength="96" x="185.9597" y="677.7404">SearchMovies</text><ellipse cx="234.1884" cy="259.8377" fill="#FEFECE" filter="url(#f1b923wbstsdwg)" rx="77.1884" ry="17.8377" style="stroke: #A80036; stroke-width: 1.5;"/><text fill="#000000" font-family="sans-serif" font-size="14" lengthAdjust="spacingAndGlyphs" textLength="124" x="172.1884" y="264.4861">SearchCustomers</text><ellipse cx="234.0262" cy="189.0052" fill="#FEFECE" filter="url(#f1b923wbstsdwg)" rx="78.0262" ry="18.0052" style="stroke: #A80036; stroke-width: 1.5;"/><text fill="#000000" font-family="sans-serif" font-size="14" lengthAdjust="spacingAndGlyphs" textLength="126" x="171.0262" y="193.6537">RegisterCustomer</text><ellipse cx="233.9543" cy="118.7909" fill="#FEFECE" filter="url(#f1b923wbstsdwg)" rx="69.4543" ry="16.2909" style="stroke: #A80036; stroke-width: 1.5;"/><text fill="#000000" font-family="sans-serif" font-size="14" lengthAdjust="spacingAndGlyphs" textLength="105" x="181.4543" y="123.4393">LoginCustomer</text><ellipse cx="233.8548" cy="782.171" fill="#FEFECE" filter="url(#f1b923wbstsdwg)" rx="76.3548" ry="17.671" style="stroke: #A80036; stroke-width: 1.5;"/><text fill="#000000" font-family="sans-serif" font-size="14" lengthAdjust="spacingAndGlyphs" textLength="122" x="172.8548" y="786.8194">CreateShowtimes</text><ellipse cx="234.1884" cy="852.8377" fill="#FEFECE" filter="url(#f1b923wbstsdwg)" rx="77.1884" ry="17.8377" style="stroke: #A80036; stroke-width: 1.5;"/><text fill="#000000" font-family="sans-serif" font-size="14" lengthAdjust="spacingAndGlyphs" textLength="124" x="172.1884" y="857.4861">SearchShowtimes</text><ellipse cx="445.4711" cy="646.0942" fill="#FEFECE" filter="url(#f1b923wbstsdwg)" rx="73.4711" ry="17.0942" style="stroke: #A80036; stroke-width: 1.5;"/><text fill="#000000" font-family="sans-serif" font-size="14" lengthAdjust="spacingAndGlyphs" textLength="115" x="387.9711" y="650.7427">PurchaseTickets</text><ellipse cx="445.4975" cy="713.8995" fill="#FEFECE" filter="url(#f1b923wbstsdwg)" rx="67.4975" ry="15.8995" style="stroke: #A80036; stroke-width: 1.5;"/><text fill="#000000" font-family="sans-serif" font-size="14" lengthAdjust="spacingAndGlyphs" textLength="100" x="395.4975" y="718.5479">RefundTickets</text><ellipse cx="445.4711" cy="782.0942" fill="#FEFECE" filter="url(#f1b923wbstsdwg)" rx="73.4711" ry="17.0942" style="stroke: #A80036; stroke-width: 1.5;"/><text fill="#000000" font-family="sans-serif" font-size="14" lengthAdjust="spacingAndGlyphs" textLength="115" x="387.9711" y="786.7427">GenerateTickets</text><ellipse cx="445.7254" cy="850.2451" fill="#FEFECE" filter="url(#f1b923wbstsdwg)" rx="66.7254" ry="15.7451" style="stroke: #A80036; stroke-width: 1.5;"/><text fill="#000000" font-family="sans-serif" font-size="14" lengthAdjust="spacingAndGlyphs" textLength="98" x="396.7254" y="854.8935">SearchTickets</text><!--MD5=[92848cbaf65985a669855153c5362c37]
entity customer--><ellipse cx="51" cy="123" fill="#FEFECE" filter="url(#f1b923wbstsdwg)" rx="8" ry="8" style="stroke: #A80036; stroke-width: 1.5;"/><path d="M51,131 L51,158 M38,139 L64,139 M51,158 L38,173 M51,158 L64,173 " fill="none" filter="url(#f1b923wbstsdwg)" style="stroke: #A80036; stroke-width: 1.5;"/><text fill="#000000" font-family="sans-serif" font-size="14" lengthAdjust="spacingAndGlyphs" textLength="66" x="18" y="191.4951">customer</text><!--MD5=[65a041cd1922b3dee6e64063a2213939]
entity administrator--><ellipse cx="51" cy="424" fill="#FEFECE" filter="url(#f1b923wbstsdwg)" rx="8" ry="8" style="stroke: #A80036; stroke-width: 1.5;"/><path d="M51,432 L51,459 M38,440 L64,440 M51,459 L38,474 M51,459 L64,474 " fill="none" filter="url(#f1b923wbstsdwg)" style="stroke: #A80036; stroke-width: 1.5;"/><text fill="#000000" font-family="sans-serif" font-size="14" lengthAdjust="spacingAndGlyphs" textLength="90" x="6" y="492.4951">administrator</text><!--MD5=[72a9586c6036bc828fb9ec987b717d65]
entity PaymentGateway--><rect fill="#FEFECE" filter="url(#f1b923wbstsdwg)" height="36.2969" style="stroke: #000000; stroke-width: 1.5;" width="139" x="579" y="662"/><text fill="#000000" font-family="sans-serif" font-size="14" lengthAdjust="spacingAndGlyphs" textLength="119" x="589" y="684.9951">PaymentGateway</text><!--MD5=[36e059aa8f4996d8e6b93119626b430a]
link administrator to AddTheaters--><path d="M89.06,414.41 C95.02,409.38 101.41,404.71 108,401 C128.37,389.54 152.84,381.94 174.72,376.96 " fill="none" id="administrator-&gt;AddTheaters" style="stroke: #A80036; stroke-width: 1.0;"/><polygon fill="#A80036" points="179.64,375.87,169.9921,373.8907,174.7561,376.941,171.7057,381.705,179.64,375.87" style="stroke: #A80036; stroke-width: 1.0;"/><!--MD5=[0e2a2f74bdb85bcbfec930b1f3b486db]
link administrator to AddMovies--><path d="M96.28,476.28 C129.06,492.04 172.91,513.11 202.01,527.1 " fill="none" id="administrator-&gt;AddMovies" style="stroke: #A80036; stroke-width: 1.0;"/><polygon fill="#A80036" points="206.55,529.28,200.1734,521.7741,202.0442,527.1126,196.7056,528.9834,206.55,529.28" style="stroke: #A80036; stroke-width: 1.0;"/><!--MD5=[12ae7ae75e14e7776ae623974e89c69e]
link administrator to SearchCustomers--><path d="M64.62,414.45 C73.75,389.96 88.02,359.29 108,337 C131.08,311.26 164.8,291.17 191.4,277.98 " fill="none" id="administrator-&gt;SearchCustomers" style="stroke: #A80036; stroke-width: 1.0;"/><polygon fill="#A80036" points="195.94,275.76,186.0982,276.1317,191.4508,277.9617,189.6209,283.3144,195.94,275.76" style="stroke: #A80036; stroke-width: 1.0;"/><!--MD5=[64442fded180a1ec06a8f3436b32a6c2]
link administrator to CreateShowtimes--><path d="M51.71,495.67 C53.29,548.61 62.93,641.81 108,705 C127.8,732.76 161.03,752.53 188.26,765.08 " fill="none" id="administrator-&gt;CreateShowtimes" style="stroke: #A80036; stroke-width: 1.0;"/><polygon fill="#A80036" points="192.92,767.19,186.3628,759.8413,188.3628,765.1328,183.0713,767.1329,192.92,767.19" style="stroke: #A80036; stroke-width: 1.0;"/><!--MD5=[26c7284ebfdaacf56a6eac7c15f3b8a5]
link customer to RegisterCustomer--><path d="M84.36,160.26 C107.72,164.77 140.04,171.02 168.57,176.54 " fill="none" id="customer-&gt;RegisterCustomer" style="stroke: #A80036; stroke-width: 1.0;"/><polygon fill="#A80036" points="173.49,177.49,165.4207,171.8432,168.5822,176.5341,163.8913,179.6956,173.49,177.49" style="stroke: #A80036; stroke-width: 1.0;"/><!--MD5=[aaaa75a7407c0d5c0fadb0ae1a78209e]
link customer to LoginCustomer--><path d="M84.36,147.74 C109.35,142.91 144.6,136.09 174.5,130.31 " fill="none" id="customer-&gt;LoginCustomer" style="stroke: #A80036; stroke-width: 1.0;"/><polygon fill="#A80036" points="179.63,129.32,170.0313,127.1144,174.7222,130.2759,171.5607,134.9668,179.63,129.32" style="stroke: #A80036; stroke-width: 1.0;"/><!--MD5=[ab03bc895fc1d2fe1b22ae71ecaf8e3f]
link PurchaseTickets to PaymentGateway--><path d="M505.18,655.93 C526.62,659.55 551.14,663.7 573.73,667.52 " fill="none" id="PurchaseTickets-&gt;PaymentGateway" style="stroke: #A80036; stroke-width: 1.0; stroke-dasharray: 7.0,7.0;"/><polygon fill="#A80036" points="578.82,668.38,570.6077,662.9433,573.8892,667.5511,569.2814,670.8325,578.82,668.38" style="stroke: #A80036; stroke-width: 1.0;"/><!--MD5=[e68f44544e5478959c1949a643b083a2]
link RefundTickets to PaymentGateway--><path d="M500.89,704.8 C523.25,701.02 549.5,696.58 573.56,692.51 " fill="none" id="RefundTickets-&gt;PaymentGateway" style="stroke: #A80036; stroke-width: 1.0; stroke-dasharray: 7.0,7.0;"/><polygon fill="#A80036" points="578.66,691.64,569.1214,689.1875,573.7292,692.4689,570.4477,697.0767,578.66,691.64" style="stroke: #A80036; stroke-width: 1.0;"/><!--MD5=[d27f787dbc340e83d2e320a4b7905228]
link CreateShowtimes to GenerateTickets--><path d="M310.63,782 C328.85,782 348.33,782 366.65,782 " fill="none" id="CreateShowtimes-&gt;GenerateTickets" style="stroke: #A80036; stroke-width: 1.0; stroke-dasharray: 7.0,7.0;"/><polygon fill="#A80036" points="371.78,782,362.78,778,366.78,782,362.78,786,371.78,782" style="stroke: #A80036; stroke-width: 1.0;"/><!--MD5=[e2cfa62c51376ea721f41c074ab4d87e]
@startuml
left to right direction
actor customer
actor administrator
rectangle PaymentGateway

package "Movie Booking System" as mbs {
    package theaters {
        usecase AddTheaters
        usecase SearchTheaters
    }

    package movies {
        usecase AddMovies
        usecase MovieDetails
        usecase SearchMovies
    }

    package customers {
        usecase SearchCustomers
        usecase RegisterCustomer
        usecase LoginCustomer

    }

    package showtimes {
        usecase CreateShowtimes
        usecase SearchShowtimes
    }

    package tickets {
        usecase PurchaseTickets
        usecase RefundTickets
        usecase GenerateTickets
        usecase SearchTickets
    }
}

administrator - -> AddTheaters
administrator - -> AddMovies
administrator - -> SearchCustomers
administrator - -> CreateShowtimes

customer - -> RegisterCustomer
customer - -> LoginCustomer

PurchaseTickets ..> PaymentGateway
RefundTickets ..> PaymentGateway
CreateShowtimes ..> GenerateTickets

@enduml

PlantUML version 1.2020.02(Sun Mar 01 10:22:07 UTC 2020)
(GPL source distribution)
Java Runtime: OpenJDK Runtime Environment
JVM: OpenJDK 64-Bit Server VM
Java Version: 17.0.15+6-Debian-1deb12u1
Operating System: Linux
Default Encoding: UTF-8
Language: ko
Country: KR
--></g></svg>