<?xml version="1.0" encoding="UTF-8" standalone="no"?><svg xmlns="http://www.w3.org/2000/svg" xmlns:xlink="http://www.w3.org/1999/xlink" contentScriptType="application/ecmascript" contentStyleType="text/css" height="845px" preserveAspectRatio="none" style="width:789px;height:845px;" version="1.1" viewBox="0 0 789 845" width="789px" zoomAndPan="magnify"><defs><filter height="300%" id="f1cmsa7tgq701l" width="300%" x="-1" y="-1"><feGaussianBlur result="blurOut" stdDeviation="2.0"/><feColorMatrix in="blurOut" result="blurOut2" type="matrix" values="0 0 0 0 0 0 0 0 0 0 0 0 0 0 0 0 0 0 .4 0"/><feOffset dx="4.0" dy="4.0" in="blurOut2" result="blurOut3"/><feBlend in="SourceGraphic" in2="blurOut3" mode="normal"/></filter></defs><g><line style="stroke: #A80036; stroke-width: 1.0; stroke-dasharray: 5.0,5.0;" x1="32" x2="32" y1="86.2969" y2="757.75"/><line style="stroke: #A80036; stroke-width: 1.0; stroke-dasharray: 5.0,5.0;" x1="298" x2="298" y1="86.2969" y2="757.75"/><line style="stroke: #A80036; stroke-width: 1.0; stroke-dasharray: 5.0,5.0;" x1="601" x2="601" y1="86.2969" y2="757.75"/><text fill="#000000" font-family="sans-serif" font-size="14" lengthAdjust="spacingAndGlyphs" textLength="43" x="8" y="82.9951">Admin</text><ellipse cx="32.5" cy="13" fill="#FEFECE" filter="url(#f1cmsa7tgq701l)" rx="8" ry="8" style="stroke: #A80036; stroke-width: 2.0;"/><path d="M32.5,21 L32.5,48 M19.5,29 L45.5,29 M32.5,48 L19.5,63 M32.5,48 L45.5,63 " fill="none" filter="url(#f1cmsa7tgq701l)" style="stroke: #A80036; stroke-width: 2.0;"/><text fill="#000000" font-family="sans-serif" font-size="14" lengthAdjust="spacingAndGlyphs" textLength="43" x="8" y="769.7451">Admin</text><ellipse cx="32.5" cy="783.0469" fill="#FEFECE" filter="url(#f1cmsa7tgq701l)" rx="8" ry="8" style="stroke: #A80036; stroke-width: 2.0;"/><path d="M32.5,791.0469 L32.5,818.0469 M19.5,799.0469 L45.5,799.0469 M32.5,818.0469 L19.5,833.0469 M32.5,818.0469 L45.5,833.0469 " fill="none" filter="url(#f1cmsa7tgq701l)" style="stroke: #A80036; stroke-width: 2.0;"/><rect fill="#FEFECE" filter="url(#f1cmsa7tgq701l)" height="30.2969" style="stroke: #A80036; stroke-width: 1.5;" width="77" x="258" y="51"/><text fill="#000000" font-family="sans-serif" font-size="14" lengthAdjust="spacingAndGlyphs" textLength="63" x="265" y="70.9951">Frontend</text><rect fill="#FEFECE" filter="url(#f1cmsa7tgq701l)" height="30.2969" style="stroke: #A80036; stroke-width: 1.5;" width="77" x="258" y="756.75"/><text fill="#000000" font-family="sans-serif" font-size="14" lengthAdjust="spacingAndGlyphs" textLength="63" x="265" y="776.7451">Frontend</text><rect fill="#FEFECE" filter="url(#f1cmsa7tgq701l)" height="30.2969" style="stroke: #A80036; stroke-width: 1.5;" width="75" x="562" y="51"/><text fill="#000000" font-family="sans-serif" font-size="14" lengthAdjust="spacingAndGlyphs" textLength="61" x="569" y="70.9951">Backend</text><rect fill="#FEFECE" filter="url(#f1cmsa7tgq701l)" height="30.2969" style="stroke: #A80036; stroke-width: 1.5;" width="75" x="562" y="756.75"/><text fill="#000000" font-family="sans-serif" font-size="14" lengthAdjust="spacingAndGlyphs" textLength="61" x="569" y="776.7451">Backend</text><polygon fill="#A80036" points="286.5,113.4297,296.5,117.4297,286.5,121.4297,290.5,117.4297" style="stroke: #A80036; stroke-width: 1.0;"/><line style="stroke: #A80036; stroke-width: 1.0;" x1="32.5" x2="292.5" y1="117.4297" y2="117.4297"/><text fill="#000000" font-family="sans-serif" font-size="13" lengthAdjust="spacingAndGlyphs" textLength="191" x="39.5" y="112.3638">Visits showtime creation page</text><polygon fill="#A80036" points="589.5,157.6953,599.5,161.6953,589.5,165.6953,593.5,161.6953" style="stroke: #A80036; stroke-width: 1.0;"/><line style="stroke: #A80036; stroke-width: 1.0;" x1="298.5" x2="595.5" y1="161.6953" y2="161.6953"/><text fill="#000000" font-family="sans-serif" font-size="13" lengthAdjust="spacingAndGlyphs" textLength="117" x="305.5" y="141.4966">Request movie list</text><text fill="#000000" font-family="sans-serif" font-size="13" lengthAdjust="spacingAndGlyphs" textLength="201" x="305.5" y="156.6294">GET /showtime-creation/movies</text><polygon fill="#A80036" points="309.5,186.8281,299.5,190.8281,309.5,194.8281,305.5,190.8281" style="stroke: #A80036; stroke-width: 1.0;"/><line style="stroke: #A80036; stroke-width: 1.0; stroke-dasharray: 2.0,2.0;" x1="303.5" x2="600.5" y1="190.8281" y2="190.8281"/><text fill="#000000" font-family="sans-serif" font-size="13" lengthAdjust="spacingAndGlyphs" textLength="56" x="315.5" y="185.7622">movies[]</text><polygon fill="#A80036" points="43.5,215.9609,33.5,219.9609,43.5,223.9609,39.5,219.9609" style="stroke: #A80036; stroke-width: 1.0;"/><line style="stroke: #A80036; stroke-width: 1.0; stroke-dasharray: 2.0,2.0;" x1="37.5" x2="297.5" y1="219.9609" y2="219.9609"/><text fill="#000000" font-family="sans-serif" font-size="13" lengthAdjust="spacingAndGlyphs" textLength="119" x="49.5" y="214.895">Provides movie list</text><polygon fill="#A80036" points="286.5,245.0938,296.5,249.0938,286.5,253.0938,290.5,249.0938" style="stroke: #A80036; stroke-width: 1.0;"/><line style="stroke: #A80036; stroke-width: 1.0;" x1="32.5" x2="292.5" y1="249.0938" y2="249.0938"/><text fill="#000000" font-family="sans-serif" font-size="13" lengthAdjust="spacingAndGlyphs" textLength="90" x="39.5" y="244.0278">Selects movie</text><polygon fill="#A80036" points="589.5,289.3594,599.5,293.3594,589.5,297.3594,593.5,293.3594" style="stroke: #A80036; stroke-width: 1.0;"/><line style="stroke: #A80036; stroke-width: 1.0;" x1="298.5" x2="595.5" y1="293.3594" y2="293.3594"/><text fill="#000000" font-family="sans-serif" font-size="13" lengthAdjust="spacingAndGlyphs" textLength="125" x="305.5" y="273.1606">Request theater list</text><text fill="#000000" font-family="sans-serif" font-size="13" lengthAdjust="spacingAndGlyphs" textLength="209" x="305.5" y="288.2935">GET /showtime-creation/theaters</text><polygon fill="#A80036" points="309.5,318.4922,299.5,322.4922,309.5,326.4922,305.5,322.4922" style="stroke: #A80036; stroke-width: 1.0;"/><line style="stroke: #A80036; stroke-width: 1.0; stroke-dasharray: 2.0,2.0;" x1="303.5" x2="600.5" y1="322.4922" y2="322.4922"/><text fill="#000000" font-family="sans-serif" font-size="13" lengthAdjust="spacingAndGlyphs" textLength="64" x="315.5" y="317.4263">theaters[]</text><polygon fill="#A80036" points="43.5,347.625,33.5,351.625,43.5,355.625,39.5,351.625" style="stroke: #A80036; stroke-width: 1.0;"/><line style="stroke: #A80036; stroke-width: 1.0; stroke-dasharray: 2.0,2.0;" x1="37.5" x2="297.5" y1="351.625" y2="351.625"/><text fill="#000000" font-family="sans-serif" font-size="13" lengthAdjust="spacingAndGlyphs" textLength="127" x="49.5" y="346.5591">Provides theater list</text><polygon fill="#A80036" points="286.5,376.7578,296.5,380.7578,286.5,384.7578,290.5,380.7578" style="stroke: #A80036; stroke-width: 1.0;"/><line style="stroke: #A80036; stroke-width: 1.0;" x1="32.5" x2="292.5" y1="380.7578" y2="380.7578"/><text fill="#000000" font-family="sans-serif" font-size="13" lengthAdjust="spacingAndGlyphs" textLength="105" x="39.5" y="375.6919">Selects theaters</text><polygon fill="#A80036" points="589.5,433.5898,599.5,437.5898,589.5,441.5898,593.5,437.5898" style="stroke: #A80036; stroke-width: 1.0;"/><line style="stroke: #A80036; stroke-width: 1.0;" x1="298.5" x2="595.5" y1="437.5898" y2="437.5898"/><text fill="#000000" font-family="sans-serif" font-size="13" lengthAdjust="spacingAndGlyphs" textLength="139" x="305.5" y="417.3911">Request showtime list</text><text fill="#000000" font-family="sans-serif" font-size="13" lengthAdjust="spacingAndGlyphs" textLength="279" x="305.5" y="432.5239">POST /showtime-creation/showtimes/search</text><path d="M606,393.7578 L606,448.7578 L777,448.7578 L777,403.7578 L767,393.7578 L606,393.7578 " fill="#FBFB77" filter="url(#f1cmsa7tgq701l)" style="stroke: #A80036; stroke-width: 1.0;"/><path d="M767,393.7578 L767,403.7578 L777,403.7578 L767,393.7578 " fill="#FBFB77" style="stroke: #A80036; stroke-width: 1.0;"/><text fill="#000000" font-family="sans-serif" font-size="13" lengthAdjust="spacingAndGlyphs" textLength="150" x="612" y="410.8247">SearchShowtimesDto {</text><text fill="#000000" font-family="sans-serif" font-size="13" lengthAdjust="spacingAndGlyphs" textLength="65" x="612" y="425.9575">theaterIds</text><text fill="#000000" font-family="sans-serif" font-size="13" lengthAdjust="spacingAndGlyphs" textLength="8" x="612" y="441.0903">}</text><polygon fill="#A80036" points="309.5,475.2891,299.5,479.2891,309.5,483.2891,305.5,479.2891" style="stroke: #A80036; stroke-width: 1.0;"/><line style="stroke: #A80036; stroke-width: 1.0; stroke-dasharray: 2.0,2.0;" x1="303.5" x2="600.5" y1="479.2891" y2="479.2891"/><text fill="#000000" font-family="sans-serif" font-size="13" lengthAdjust="spacingAndGlyphs" textLength="78" x="315.5" y="474.2231">showtimes[]</text><polygon fill="#A80036" points="43.5,504.4219,33.5,508.4219,43.5,512.4219,39.5,508.4219" style="stroke: #A80036; stroke-width: 1.0;"/><line style="stroke: #A80036; stroke-width: 1.0; stroke-dasharray: 2.0,2.0;" x1="37.5" x2="297.5" y1="508.4219" y2="508.4219"/><text fill="#000000" font-family="sans-serif" font-size="13" lengthAdjust="spacingAndGlyphs" textLength="141" x="49.5" y="503.356">Provides showtime list</text><polygon fill="#A80036" points="286.5,533.5547,296.5,537.5547,286.5,541.5547,290.5,537.5547" style="stroke: #A80036; stroke-width: 1.0;"/><line style="stroke: #A80036; stroke-width: 1.0;" x1="32.5" x2="292.5" y1="537.5547" y2="537.5547"/><text fill="#000000" font-family="sans-serif" font-size="13" lengthAdjust="spacingAndGlyphs" textLength="162" x="39.5" y="532.4888">Selects/Inputs showtimes</text><polygon fill="#A80036" points="286.5,562.6875,296.5,566.6875,286.5,570.6875,290.5,566.6875" style="stroke: #A80036; stroke-width: 1.0;"/><line style="stroke: #A80036; stroke-width: 1.0;" x1="32.5" x2="292.5" y1="566.6875" y2="566.6875"/><text fill="#000000" font-family="sans-serif" font-size="13" lengthAdjust="spacingAndGlyphs" textLength="201" x="39.5" y="561.6216">Requests showtime registration</text><polygon fill="#A80036" points="589.5,642.2188,599.5,646.2188,589.5,650.2188,593.5,646.2188" style="stroke: #A80036; stroke-width: 1.0;"/><line style="stroke: #A80036; stroke-width: 1.0;" x1="298.5" x2="595.5" y1="646.2188" y2="646.2188"/><text fill="#000000" font-family="sans-serif" font-size="13" lengthAdjust="spacingAndGlyphs" textLength="161" x="305.5" y="626.02">Create showtime request</text><text fill="#000000" font-family="sans-serif" font-size="13" lengthAdjust="spacingAndGlyphs" textLength="232" x="305.5" y="641.1528">POST /showtime-creation/showtimes</text><path d="M606,579.6875 L606,679.6875 L775,679.6875 L775,589.6875 L765,579.6875 L606,579.6875 " fill="#FBFB77" filter="url(#f1cmsa7tgq701l)" style="stroke: #A80036; stroke-width: 1.0;"/><path d="M765,579.6875 L765,589.6875 L775,589.6875 L765,579.6875 " fill="#FBFB77" style="stroke: #A80036; stroke-width: 1.0;"/><text fill="#000000" font-family="sans-serif" font-size="13" lengthAdjust="spacingAndGlyphs" textLength="148" x="612" y="596.7544">CreateShowtimesDto {</text><text fill="#000000" font-family="sans-serif" font-size="13" lengthAdjust="spacingAndGlyphs" textLength="54" x="612" y="611.8872">movieId,</text><text fill="#000000" font-family="sans-serif" font-size="13" lengthAdjust="spacingAndGlyphs" textLength="69" x="612" y="627.02">theaterIds,</text><text fill="#000000" font-family="sans-serif" font-size="13" lengthAdjust="spacingAndGlyphs" textLength="72" x="612" y="642.1528">startTimes,</text><text fill="#000000" font-family="sans-serif" font-size="13" lengthAdjust="spacingAndGlyphs" textLength="103" x="612" y="657.2856">durationMinutes</text><text fill="#000000" font-family="sans-serif" font-size="13" lengthAdjust="spacingAndGlyphs" textLength="8" x="612" y="672.4185">}</text><polygon fill="#A80036" points="309.5,706.6172,299.5,710.6172,309.5,714.6172,305.5,710.6172" style="stroke: #A80036; stroke-width: 1.0;"/><line style="stroke: #A80036; stroke-width: 1.0; stroke-dasharray: 2.0,2.0;" x1="303.5" x2="600.5" y1="710.6172" y2="710.6172"/><text fill="#000000" font-family="sans-serif" font-size="13" lengthAdjust="spacingAndGlyphs" textLength="85" x="315.5" y="705.5513">Created(201)</text><polygon fill="#A80036" points="43.5,735.75,33.5,739.75,43.5,743.75,39.5,739.75" style="stroke: #A80036; stroke-width: 1.0;"/><line style="stroke: #A80036; stroke-width: 1.0; stroke-dasharray: 2.0,2.0;" x1="37.5" x2="297.5" y1="739.75" y2="739.75"/><text fill="#000000" font-family="sans-serif" font-size="13" lengthAdjust="spacingAndGlyphs" textLength="242" x="49.5" y="734.6841">Showtime registration success screen</text><!--MD5=[9eb58be667600728f1a06f02e2917d1d]
@startuml
actor Admin
Admin -> Frontend: Visits showtime creation page
Frontend -> Backend: Request movie list\nGET /showtime-creation/movies
Frontend <- - Backend: movies[]
Admin <- - Frontend: Provides movie list

Admin -> Frontend: Selects movie
Frontend -> Backend: Request theater list\nGET /showtime-creation/theaters
Frontend <- - Backend: theaters[]
Admin <- - Frontend: Provides theater list

Admin -> Frontend: Selects theaters
Frontend -> Backend: Request showtime list\nPOST /showtime-creation/showtimes/search
note right
SearchShowtimesDto {
theaterIds
}
end note

Frontend <- - Backend: showtimes[]

Admin <- - Frontend: Provides showtime list

Admin -> Frontend: Selects/Inputs showtimes

Admin -> Frontend: Requests showtime registration
Frontend -> Backend: Create showtime request\nPOST /showtime-creation/showtimes
note right
CreateShowtimesDto {
movieId,
theaterIds,
startTimes,
durationMinutes
}
end note
Frontend <- - Backend: Created(201)
Admin <- - Frontend: Showtime registration success screen

@enduml

PlantUML version 1.2020.02(Sun Mar 01 10:22:07 UTC 2020)
(GPL source distribution)
Java Runtime: OpenJDK Runtime Environment
JVM: OpenJDK 64-Bit Server VM
Java Version: 17.0.15+6-Debian-1deb12u1
Operating System: Linux
Default Encoding: UTF-8
Language: ko
Country: KR
--></g></svg>