<?xml version="1.0" encoding="UTF-8" standalone="no"?><svg xmlns="http://www.w3.org/2000/svg" xmlns:xlink="http://www.w3.org/1999/xlink" contentScriptType="application/ecmascript" contentStyleType="text/css" height="484px" preserveAspectRatio="none" style="width:726px;height:484px;" version="1.1" viewBox="0 0 726 484" width="726px" zoomAndPan="magnify"><defs><filter height="300%" id="fmp97gy4le6er" width="300%" x="-1" y="-1"><feGaussianBlur result="blurOut" stdDeviation="2.0"/><feColorMatrix in="blurOut" result="blurOut2" type="matrix" values="0 0 0 0 0 0 0 0 0 0 0 0 0 0 0 0 0 0 .4 0"/><feOffset dx="4.0" dy="4.0" in="blurOut2" result="blurOut3"/><feBlend in="SourceGraphic" in2="blurOut3" mode="normal"/></filter></defs><g><!--MD5=[6c2d02fe013167922f007c9285828968]
cluster mbs--><polygon fill="#FFFFFF" filter="url(#fmp97gy4le6er)" points="116,24.5,299,24.5,306,46.7969,556,46.7969,556,376.5,116,376.5,116,24.5" style="stroke: #000000; stroke-width: 1.5;"/><line style="stroke: #000000; stroke-width: 1.5;" x1="116" x2="306" y1="46.7969" y2="46.7969"/><text fill="#000000" font-family="sans-serif" font-size="14" font-weight="bold" lengthAdjust="spacingAndGlyphs" textLength="177" x="120" y="39.4951">Movie Booking System</text><!--MD5=[0c64180b40cb6a42c012370e26047e31]
cluster tickets--><polygon fill="#FFFFFF" filter="url(#fmp97gy4le6er)" points="353,133.5,412,133.5,419,155.7969,532,155.7969,532,287.5,353,287.5,353,133.5" style="stroke: #000000; stroke-width: 1.5;"/><line style="stroke: #000000; stroke-width: 1.5;" x1="353" x2="419" y1="155.7969" y2="155.7969"/><text fill="#000000" font-family="sans-serif" font-size="14" font-weight="bold" lengthAdjust="spacingAndGlyphs" textLength="53" x="357" y="148.4951">tickets</text><!--MD5=[dffa5d117727925aa4668bf20905af82]
cluster showtimes--><polygon fill="#FFFFFF" filter="url(#fmp97gy4le6er)" points="140,67.5,232,67.5,239,89.7969,325,89.7969,325,154.5,140,154.5,140,67.5" style="stroke: #000000; stroke-width: 1.5;"/><line style="stroke: #000000; stroke-width: 1.5;" x1="140" x2="239" y1="89.7969" y2="89.7969"/><text fill="#000000" font-family="sans-serif" font-size="14" font-weight="bold" lengthAdjust="spacingAndGlyphs" textLength="86" x="144" y="82.4951">showtimes</text><ellipse cx="442.4711" cy="185.5942" fill="#FFFF00" filter="url(#fmp97gy4le6er)" rx="73.4711" ry="17.0942" style="stroke: #A80036; stroke-width: 1.5;"/><text fill="#000000" font-family="sans-serif" font-size="14" lengthAdjust="spacingAndGlyphs" textLength="115" x="384.9711" y="190.2427">PurchaseTickets</text><ellipse cx="442.4711" cy="254.5942" fill="#FEFECE" filter="url(#fmp97gy4le6er)" rx="73.4711" ry="17.0942" style="stroke: #A80036; stroke-width: 1.5;"/><text fill="#000000" font-family="sans-serif" font-size="14" lengthAdjust="spacingAndGlyphs" textLength="115" x="384.9711" y="259.2427">GenerateTickets</text><ellipse cx="232.3548" cy="120.671" fill="#FFFF00" filter="url(#fmp97gy4le6er)" rx="76.3548" ry="17.671" style="stroke: #A80036; stroke-width: 1.5;"/><text fill="#000000" font-family="sans-serif" font-size="14" lengthAdjust="spacingAndGlyphs" textLength="122" x="171.3548" y="125.3194">CreateShowtimes</text><!--MD5=[edc21d6fffa4cdd45942bad57ee878bf]
entity theaters--><polygon fill="#FFFFFF" filter="url(#fmp97gy4le6er)" points="184,173,257,173,264,195.2969,281,195.2969,281,212.2969,184,212.2969,184,173" style="stroke: #000000; stroke-width: 1.5;"/><line style="stroke: #000000; stroke-width: 1.5;" x1="184" x2="264" y1="195.2969" y2="195.2969"/><text fill="#000000" font-family="sans-serif" font-size="14" font-weight="bold" lengthAdjust="spacingAndGlyphs" textLength="67" x="188" y="188.9951">theaters</text><!--MD5=[14607e4ba98818863e3e110b79e51248]
entity movies--><polygon fill="#FFFFFF" filter="url(#fmp97gy4le6er)" points="189.5,247,251.5,247,258.5,269.2969,275.5,269.2969,275.5,286.2969,189.5,286.2969,189.5,247" style="stroke: #000000; stroke-width: 1.5;"/><line style="stroke: #000000; stroke-width: 1.5;" x1="189.5" x2="258.5" y1="269.2969" y2="269.2969"/><text fill="#000000" font-family="sans-serif" font-size="14" font-weight="bold" lengthAdjust="spacingAndGlyphs" textLength="56" x="193.5" y="262.9951">movies</text><!--MD5=[97f900b0b9d11f0285bfce3ade353ddf]
entity customers--><polygon fill="#FFFFFF" filter="url(#fmp97gy4le6er)" points="175.5,321,265.5,321,272.5,343.2969,289.5,343.2969,289.5,360.2969,175.5,360.2969,175.5,321" style="stroke: #000000; stroke-width: 1.5;"/><line style="stroke: #000000; stroke-width: 1.5;" x1="175.5" x2="272.5" y1="343.2969" y2="343.2969"/><text fill="#000000" font-family="sans-serif" font-size="14" font-weight="bold" lengthAdjust="spacingAndGlyphs" textLength="84" x="179.5" y="336.9951">customers</text><!--MD5=[92848cbaf65985a669855153c5362c37]
entity customer--><ellipse cx="442.5" cy="402.5" fill="#FEFECE" filter="url(#fmp97gy4le6er)" rx="8" ry="8" style="stroke: #A80036; stroke-width: 1.5;"/><path d="M442.5,410.5 L442.5,437.5 M429.5,418.5 L455.5,418.5 M442.5,437.5 L429.5,452.5 M442.5,437.5 L455.5,452.5 " fill="none" filter="url(#fmp97gy4le6er)" style="stroke: #A80036; stroke-width: 1.5;"/><text fill="#000000" font-family="sans-serif" font-size="14" lengthAdjust="spacingAndGlyphs" textLength="66" x="409.5" y="470.9951">customer</text><!--MD5=[65a041cd1922b3dee6e64063a2213939]
entity administrator--><ellipse cx="51" cy="89.5" fill="#FEFECE" filter="url(#fmp97gy4le6er)" rx="8" ry="8" style="stroke: #A80036; stroke-width: 1.5;"/><path d="M51,97.5 L51,124.5 M38,105.5 L64,105.5 M51,124.5 L38,139.5 M51,124.5 L64,139.5 " fill="none" filter="url(#fmp97gy4le6er)" style="stroke: #A80036; stroke-width: 1.5;"/><text fill="#000000" font-family="sans-serif" font-size="14" lengthAdjust="spacingAndGlyphs" textLength="90" x="6" y="157.9951">administrator</text><!--MD5=[72a9586c6036bc828fb9ec987b717d65]
entity PaymentGateway--><rect fill="#FEFECE" filter="url(#fmp97gy4le6er)" height="36.2969" style="stroke: #000000; stroke-width: 1.5;" width="139" x="576" y="167.5"/><text fill="#000000" font-family="sans-serif" font-size="14" lengthAdjust="spacingAndGlyphs" textLength="119" x="586" y="190.4951">PaymentGateway</text><!--MD5=[64442fded180a1ec06a8f3436b32a6c2]
link administrator to CreateShowtimes--><path d="M96.37,120.5 C112.79,120.5 131.95,120.5 150.61,120.5 " fill="none" id="administrator-&gt;CreateShowtimes" style="stroke: #A80036; stroke-width: 1.0;"/><polygon fill="#A80036" points="155.85,120.5,146.85,116.5,150.85,120.5,146.85,124.5,155.85,120.5" style="stroke: #A80036; stroke-width: 1.0;"/><!--MD5=[0cb47f1d5621fdbc7137d15b7567cebb]
link customer to PurchaseTickets--><path d="M409.29,399.41 C382.31,368.57 347.39,320.37 339,270 C335.28,247.71 329.06,235.52 345,219.5 C354.68,209.77 367.3,202.81 380.23,197.85 " fill="none" id="customer-&gt;PurchaseTickets" style="stroke: #A80036; stroke-width: 1.0;"/><polygon fill="#A80036" points="385,196.11,375.1736,195.4457,380.3044,197.8279,377.9222,202.9587,385,196.11" style="stroke: #A80036; stroke-width: 1.0;"/><!--MD5=[ab03bc895fc1d2fe1b22ae71ecaf8e3f]
link PurchaseTickets to PaymentGateway--><path d="M516.07,185.5 C533.7,185.5 552.57,185.5 570.28,185.5 " fill="none" id="PurchaseTickets-&gt;PaymentGateway" style="stroke: #A80036; stroke-width: 1.0; stroke-dasharray: 7.0,7.0;"/><polygon fill="#A80036" points="575.73,185.5,566.73,181.5,570.73,185.5,566.73,189.5,575.73,185.5" style="stroke: #A80036; stroke-width: 1.0;"/><!--MD5=[d27f787dbc340e83d2e320a4b7905228]
link CreateShowtimes to GenerateTickets--><path d="M306.86,125.23 C316.7,128.74 325.84,133.93 333,141.5 C357.11,166.98 322.73,192.4 345,219.5 C353.67,230.05 365.78,237.42 378.51,242.56 " fill="none" id="CreateShowtimes-&gt;GenerateTickets" style="stroke: #A80036; stroke-width: 1.0; stroke-dasharray: 7.0,7.0;"/><polygon fill="#A80036" points="383.23,244.36,376.2515,237.4101,378.5596,242.5747,373.395,244.8827,383.23,244.36" style="stroke: #A80036; stroke-width: 1.0;"/><!--MD5=[f03145f65b10935228eb1f2aa6fdd5f3]
@startuml
left to right direction
actor customer
actor administrator
rectangle PaymentGateway

package "Movie Booking System" as mbs {
    package tickets {
        usecase PurchaseTickets #yellow
        usecase GenerateTickets
    }

    package showtimes {
        usecase CreateShowtimes #yellow
    }

    package theaters {
    }

    package movies {
    }

    package customers {
    }
}

administrator - -> CreateShowtimes
customer -> PurchaseTickets
PurchaseTickets ..> PaymentGateway
CreateShowtimes ..> GenerateTickets

@enduml

PlantUML version 1.2020.02(Sun Mar 01 10:22:07 UTC 2020)
(GPL source distribution)
Java Runtime: OpenJDK Runtime Environment
JVM: OpenJDK 64-Bit Server VM
Java Version: 17.0.14+7-Debian-1deb12u1
Operating System: Linux
Default Encoding: UTF-8
Language: en
Country: null
--></g></svg>