<?xml version="1.0" encoding="UTF-8" standalone="no"?><svg xmlns="http://www.w3.org/2000/svg" xmlns:xlink="http://www.w3.org/1999/xlink" contentScriptType="application/ecmascript" contentStyleType="text/css" height="282px" preserveAspectRatio="none" style="width:324px;height:282px;" version="1.1" viewBox="0 0 324 282" width="324px" zoomAndPan="magnify"><defs><filter height="300%" id="fnupv3vkrukw0" width="300%" x="-1" y="-1"><feGaussianBlur result="blurOut" stdDeviation="2.0"/><feColorMatrix in="blurOut" result="blurOut2" type="matrix" values="0 0 0 0 0 0 0 0 0 0 0 0 0 0 0 0 0 0 .4 0"/><feOffset dx="4.0" dy="4.0" in="blurOut2" result="blurOut3"/><feBlend in="SourceGraphic" in2="blurOut3" mode="normal"/></filter></defs><g><!--MD5=[55c5ad91836c8977c8e140959dfede30]
cluster Inheritance--><polygon fill="#FFFFFF" filter="url(#fnupv3vkrukw0)" points="22,24,117,24,124,46.2969,140,46.2969,140,270,22,270,22,24" style="stroke: #000000; stroke-width: 1.5;"/><line style="stroke: #000000; stroke-width: 1.5;" x1="22" x2="124" y1="46.2969" y2="46.2969"/><text fill="#000000" font-family="sans-serif" font-size="14" font-weight="bold" lengthAdjust="spacingAndGlyphs" textLength="89" x="26" y="38.9951">Inheritance</text><!--MD5=[d125cbbd61eb0bb5c2325d4d5fe12700]
cluster Composition--><polygon fill="#FFFFFF" filter="url(#fnupv3vkrukw0)" points="164,24,268,24,275,46.2969,302,46.2969,302,270,164,270,164,24" style="stroke: #000000; stroke-width: 1.5;"/><line style="stroke: #000000; stroke-width: 1.5;" x1="164" x2="275" y1="46.2969" y2="46.2969"/><text fill="#000000" font-family="sans-serif" font-size="14" font-weight="bold" lengthAdjust="spacingAndGlyphs" textLength="98" x="168" y="38.9951">Composition</text><!--MD5=[7fd4401f5c5cb0e3d029c879cad30c04]
class Animal--><rect fill="#FEFECE" filter="url(#fnupv3vkrukw0)" height="73.6094" id="Animal" style="stroke: #A80036; stroke-width: 1.5;" width="79" x="41.5" y="59"/><ellipse cx="59.2" cy="75" fill="#ADD1B2" rx="11" ry="11" style="stroke: #A80036; stroke-width: 1.0;"/><path d="M62.1688,80.6406 Q61.5906,80.9375 60.95,81.0781 Q60.3094,81.2344 59.6063,81.2344 Q57.1063,81.2344 55.7781,79.5938 Q54.4656,77.9375 54.4656,74.8125 Q54.4656,71.6875 55.7781,70.0313 Q57.1063,68.375 59.6063,68.375 Q60.3094,68.375 60.95,68.5313 Q61.6063,68.6875 62.1688,68.9844 L62.1688,71.7031 Q61.5438,71.125 60.95,70.8594 Q60.3563,70.5781 59.7313,70.5781 Q58.3875,70.5781 57.7,71.6563 Q57.0125,72.7188 57.0125,74.8125 Q57.0125,76.9063 57.7,77.9844 Q58.3875,79.0469 59.7313,79.0469 Q60.3563,79.0469 60.95,78.7813 Q61.5438,78.5 62.1688,77.9219 L62.1688,80.6406 Z "/><text fill="#000000" font-family="sans-serif" font-size="12" lengthAdjust="spacingAndGlyphs" textLength="41" x="73.8" y="79.1543">Animal</text><line style="stroke: #A80036; stroke-width: 1.5;" x1="42.5" x2="119.5" y1="91" y2="91"/><rect fill="none" height="6" style="stroke: #C82930; stroke-width: 1.0;" width="6" x="49.5" y="99"/><text fill="#000000" font-family="sans-serif" font-size="11" lengthAdjust="spacingAndGlyphs" textLength="39" x="61.5" y="105.2104">int age</text><line style="stroke: #A80036; stroke-width: 1.5;" x1="42.5" x2="119.5" y1="111.8047" y2="111.8047"/><ellipse cx="52.5" cy="122.8047" fill="#84BE84" rx="3" ry="3" style="stroke: #038048; stroke-width: 1.0;"/><text fill="#000000" font-family="sans-serif" font-size="11" lengthAdjust="spacingAndGlyphs" textLength="53" x="61.5" y="126.0151">void eat()</text><!--MD5=[454ed48f055567edc734f170f61b4daf]
class Dog--><rect fill="#FEFECE" filter="url(#fnupv3vkrukw0)" height="60.8047" id="Dog" style="stroke: #A80036; stroke-width: 1.5;" width="86" x="38" y="193"/><ellipse cx="66.05" cy="209" fill="#ADD1B2" rx="11" ry="11" style="stroke: #A80036; stroke-width: 1.0;"/><path d="M69.0188,214.6406 Q68.4406,214.9375 67.8,215.0781 Q67.1594,215.2344 66.4563,215.2344 Q63.9563,215.2344 62.6281,213.5938 Q61.3156,211.9375 61.3156,208.8125 Q61.3156,205.6875 62.6281,204.0313 Q63.9563,202.375 66.4563,202.375 Q67.1594,202.375 67.8,202.5313 Q68.4563,202.6875 69.0188,202.9844 L69.0188,205.7031 Q68.3938,205.125 67.8,204.8594 Q67.2063,204.5781 66.5813,204.5781 Q65.2375,204.5781 64.55,205.6563 Q63.8625,206.7188 63.8625,208.8125 Q63.8625,210.9063 64.55,211.9844 Q65.2375,213.0469 66.5813,213.0469 Q67.2063,213.0469 67.8,212.7813 Q68.3938,212.5 69.0188,211.9219 L69.0188,214.6406 Z "/><text fill="#000000" font-family="sans-serif" font-size="12" lengthAdjust="spacingAndGlyphs" textLength="25" x="82.95" y="213.1543">Dog</text><line style="stroke: #A80036; stroke-width: 1.5;" x1="39" x2="123" y1="225" y2="225"/><line style="stroke: #A80036; stroke-width: 1.5;" x1="39" x2="123" y1="233" y2="233"/><ellipse cx="49" cy="244" fill="#84BE84" rx="3" ry="3" style="stroke: #038048; stroke-width: 1.0;"/><text fill="#000000" font-family="sans-serif" font-size="11" lengthAdjust="spacingAndGlyphs" textLength="60" x="58" y="247.2104">void bark()</text><!--MD5=[3f0ef310aaa84a542276992c5216544d]
class Car--><rect fill="#FEFECE" filter="url(#fnupv3vkrukw0)" height="73.6094" id="Car" style="stroke: #A80036; stroke-width: 1.5;" width="106" x="180" y="59"/><ellipse cx="218.85" cy="75" fill="#ADD1B2" rx="11" ry="11" style="stroke: #A80036; stroke-width: 1.0;"/><path d="M221.8188,80.6406 Q221.2406,80.9375 220.6,81.0781 Q219.9594,81.2344 219.2563,81.2344 Q216.7563,81.2344 215.4281,79.5938 Q214.1156,77.9375 214.1156,74.8125 Q214.1156,71.6875 215.4281,70.0313 Q216.7563,68.375 219.2563,68.375 Q219.9594,68.375 220.6,68.5313 Q221.2563,68.6875 221.8188,68.9844 L221.8188,71.7031 Q221.1938,71.125 220.6,70.8594 Q220.0063,70.5781 219.3813,70.5781 Q218.0375,70.5781 217.35,71.6563 Q216.6625,72.7188 216.6625,74.8125 Q216.6625,76.9063 217.35,77.9844 Q218.0375,79.0469 219.3813,79.0469 Q220.0063,79.0469 220.6,78.7813 Q221.1938,78.5 221.8188,77.9219 L221.8188,80.6406 Z "/><text fill="#000000" font-family="sans-serif" font-size="12" lengthAdjust="spacingAndGlyphs" textLength="21" x="238.15" y="79.1543">Car</text><line style="stroke: #A80036; stroke-width: 1.5;" x1="181" x2="285" y1="91" y2="91"/><rect fill="none" height="6" style="stroke: #C82930; stroke-width: 1.0;" width="6" x="188" y="99"/><text fill="#000000" font-family="sans-serif" font-size="11" lengthAdjust="spacingAndGlyphs" textLength="80" x="200" y="105.2104">Engine engine</text><line style="stroke: #A80036; stroke-width: 1.5;" x1="181" x2="285" y1="111.8047" y2="111.8047"/><ellipse cx="191" cy="122.8047" fill="#84BE84" rx="3" ry="3" style="stroke: #038048; stroke-width: 1.0;"/><text fill="#000000" font-family="sans-serif" font-size="11" lengthAdjust="spacingAndGlyphs" textLength="62" x="200" y="126.0151">void start()</text><!--MD5=[c86ce95fe6226f2d2796c0513d8e83fe]
class Engine--><rect fill="#FEFECE" filter="url(#fnupv3vkrukw0)" height="60.8047" id="Engine" style="stroke: #A80036; stroke-width: 1.5;" width="88" x="189" y="193"/><ellipse cx="209.85" cy="209" fill="#ADD1B2" rx="11" ry="11" style="stroke: #A80036; stroke-width: 1.0;"/><path d="M212.8188,214.6406 Q212.2406,214.9375 211.6,215.0781 Q210.9594,215.2344 210.2563,215.2344 Q207.7563,215.2344 206.4281,213.5938 Q205.1156,211.9375 205.1156,208.8125 Q205.1156,205.6875 206.4281,204.0313 Q207.7563,202.375 210.2563,202.375 Q210.9594,202.375 211.6,202.5313 Q212.2563,202.6875 212.8188,202.9844 L212.8188,205.7031 Q212.1938,205.125 211.6,204.8594 Q211.0063,204.5781 210.3813,204.5781 Q209.0375,204.5781 208.35,205.6563 Q207.6625,206.7188 207.6625,208.8125 Q207.6625,210.9063 208.35,211.9844 Q209.0375,213.0469 210.3813,213.0469 Q211.0063,213.0469 211.6,212.7813 Q212.1938,212.5 212.8188,211.9219 L212.8188,214.6406 Z "/><text fill="#000000" font-family="sans-serif" font-size="12" lengthAdjust="spacingAndGlyphs" textLength="43" x="225.15" y="213.1543">Engine</text><line style="stroke: #A80036; stroke-width: 1.5;" x1="190" x2="276" y1="225" y2="225"/><line style="stroke: #A80036; stroke-width: 1.5;" x1="190" x2="276" y1="233" y2="233"/><ellipse cx="200" cy="244" fill="#84BE84" rx="3" ry="3" style="stroke: #038048; stroke-width: 1.0;"/><text fill="#000000" font-family="sans-serif" font-size="11" lengthAdjust="spacingAndGlyphs" textLength="62" x="209" y="247.2104">void start()</text><!--MD5=[5037e5108ae860e34ac250b7d2b84c09]
reverse link Animal to Dog--><path d="M81,153.73 C81,167.15 81,180.95 81,192.62 " fill="none" id="Animal&lt;-Dog" style="stroke: #A80036; stroke-width: 1.0;"/><polygon fill="none" points="74,153.3,81,133.3,88,153.3,74,153.3" style="stroke: #A80036; stroke-width: 1.0;"/><!--MD5=[68cc089a05bca8a2306644317e8b6b93]
reverse link Car to Engine--><path d="M233,146.59 C233,162.16 233,178.86 233,192.62 " fill="none" id="Car&lt;-Engine" style="stroke: #A80036; stroke-width: 1.0;"/><polygon fill="#A80036" points="233,133.3,229,139.3,233,145.3,237,139.3,233,133.3" style="stroke: #A80036; stroke-width: 1.0;"/><!--MD5=[f21a4272d9f82d64f2d1cd0f260f2ade]
@startuml
package "Inheritance" {
    class Animal {
        - int age
        + void eat()
    }

    class Dog extends Animal {
        + void bark()
    }
}

package "Composition" {
    class Car {
        - Engine engine
        + void start()
    }

    class Engine {
        + void start()
    }

    Car *- - Engine
}
@enduml

PlantUML version 1.2020.02(Sun Mar 01 10:22:07 UTC 2020)
(GPL source distribution)
Java Runtime: OpenJDK Runtime Environment
JVM: OpenJDK 64-Bit Server VM
Java Version: 17.0.11+9-Debian-1deb12u1
Operating System: Linux
Default Encoding: UTF-8
Language: en
Country: null
--></g></svg>