<?xml version="1.0" encoding="UTF-8" standalone="no"?><svg xmlns="http://www.w3.org/2000/svg" xmlns:xlink="http://www.w3.org/1999/xlink" contentScriptType="application/ecmascript" contentStyleType="text/css" height="440px" preserveAspectRatio="none" style="width:720px;height:440px;" version="1.1" viewBox="0 0 720 440" width="720px" zoomAndPan="magnify"><defs><filter height="300%" id="fn6v8bp6mjd48" width="300%" x="-1" y="-1"><feGaussianBlur result="blurOut" stdDeviation="2.0"/><feColorMatrix in="blurOut" result="blurOut2" type="matrix" values="0 0 0 0 0 0 0 0 0 0 0 0 0 0 0 0 0 0 .4 0"/><feOffset dx="4.0" dy="4.0" in="blurOut2" result="blurOut3"/><feBlend in="SourceGraphic" in2="blurOut3" mode="normal"/></filter></defs><g><!--MD5=[d13fcb855108a23cf11211063221295a]
cluster Application Services--><polygon fill="#FFFFFF" filter="url(#fn6v8bp6mjd48)" points="262,119,428,119,435,141.2969,490,141.2969,490,206,262,206,262,119" style="stroke: #000000; stroke-width: 1.5;"/><line style="stroke: #000000; stroke-width: 1.5;" x1="262" x2="435" y1="141.2969" y2="141.2969"/><text fill="#000000" font-family="sans-serif" font-size="14" font-weight="bold" lengthAdjust="spacingAndGlyphs" textLength="160" x="266" y="133.9951">Application Services</text><!--MD5=[c79e06e7b6ac45e8dd86d2698bc8e3e9]
cluster Core Services--><polygon fill="#FFFFFF" filter="url(#fn6v8bp6mjd48)" points="45,230,162,230,169,252.2969,698,252.2969,698,317,45,317,45,230" style="stroke: #000000; stroke-width: 1.5;"/><line style="stroke: #000000; stroke-width: 1.5;" x1="45" x2="169" y1="252.2969" y2="252.2969"/><text fill="#000000" font-family="sans-serif" font-size="14" font-weight="bold" lengthAdjust="spacingAndGlyphs" textLength="111" x="49" y="244.9951">Core Services</text><!--MD5=[c21794bee1704f43424c52d4a5066bbd]
cluster Infrastructure Services--><polygon fill="#FFFFFF" filter="url(#fn6v8bp6mjd48)" points="22,341,211,341,218,363.2969,221,363.2969,221,428,22,428,22,341" style="stroke: #000000; stroke-width: 1.5;"/><line style="stroke: #000000; stroke-width: 1.5;" x1="22" x2="218" y1="363.2969" y2="363.2969"/><text fill="#000000" font-family="sans-serif" font-size="14" font-weight="bold" lengthAdjust="spacingAndGlyphs" textLength="183" x="26" y="355.9951">Infrastructure Services</text><!--MD5=[db3bfea7ca089b2bd85f35b57e4985fe]
entity ShowtimeCreationService--><rect fill="#FEFECE" filter="url(#fn6v8bp6mjd48)" height="36.2969" style="stroke: #A80036; stroke-width: 1.5;" width="196" x="278" y="154"/><rect fill="#FEFECE" height="5" style="stroke: #A80036; stroke-width: 1.5;" width="10" x="273" y="159"/><rect fill="#FEFECE" height="5" style="stroke: #A80036; stroke-width: 1.5;" width="10" x="273" y="180.2969"/><text fill="#000000" font-family="sans-serif" font-size="14" lengthAdjust="spacingAndGlyphs" textLength="176" x="288" y="176.9951">ShowtimeCreationService</text><!--MD5=[7f2f8d68d95cce46b39eddc87a279315]
entity MoviesService--><rect fill="#FEFECE" filter="url(#fn6v8bp6mjd48)" height="36.2969" style="stroke: #A80036; stroke-width: 1.5;" width="118" x="564" y="265"/><rect fill="#FEFECE" height="5" style="stroke: #A80036; stroke-width: 1.5;" width="10" x="559" y="270"/><rect fill="#FEFECE" height="5" style="stroke: #A80036; stroke-width: 1.5;" width="10" x="559" y="291.2969"/><text fill="#000000" font-family="sans-serif" font-size="14" lengthAdjust="spacingAndGlyphs" textLength="98" x="574" y="287.9951">MoviesService</text><!--MD5=[1ecb5c8b80b32c71e61d0ec74dc9551f]
entity TheatersService--><rect fill="#FEFECE" filter="url(#fn6v8bp6mjd48)" height="36.2969" style="stroke: #A80036; stroke-width: 1.5;" width="132" x="397" y="265"/><rect fill="#FEFECE" height="5" style="stroke: #A80036; stroke-width: 1.5;" width="10" x="392" y="270"/><rect fill="#FEFECE" height="5" style="stroke: #A80036; stroke-width: 1.5;" width="10" x="392" y="291.2969"/><text fill="#000000" font-family="sans-serif" font-size="14" lengthAdjust="spacingAndGlyphs" textLength="112" x="407" y="287.9951">TheatersService</text><!--MD5=[f21e6136974535ce3a7be23c67057aeb]
entity ShowtimesService--><rect fill="#FEFECE" filter="url(#fn6v8bp6mjd48)" height="36.2969" style="stroke: #A80036; stroke-width: 1.5;" width="146" x="216" y="265"/><rect fill="#FEFECE" height="5" style="stroke: #A80036; stroke-width: 1.5;" width="10" x="211" y="270"/><rect fill="#FEFECE" height="5" style="stroke: #A80036; stroke-width: 1.5;" width="10" x="211" y="291.2969"/><text fill="#000000" font-family="sans-serif" font-size="14" lengthAdjust="spacingAndGlyphs" textLength="126" x="226" y="287.9951">ShowtimesService</text><!--MD5=[9f8e3dcb26c653a76b1a56b51c6bcfa9]
entity TicketsService--><rect fill="#FEFECE" filter="url(#fn6v8bp6mjd48)" height="36.2969" style="stroke: #A80036; stroke-width: 1.5;" width="120" x="61" y="265"/><rect fill="#FEFECE" height="5" style="stroke: #A80036; stroke-width: 1.5;" width="10" x="56" y="270"/><rect fill="#FEFECE" height="5" style="stroke: #A80036; stroke-width: 1.5;" width="10" x="56" y="291.2969"/><text fill="#000000" font-family="sans-serif" font-size="14" lengthAdjust="spacingAndGlyphs" textLength="100" x="71" y="287.9951">TicketsService</text><!--MD5=[1f46de363ecf222ed50feb2ea7ade3a7]
entity PaymentsService--><rect fill="#FEFECE" filter="url(#fn6v8bp6mjd48)" height="36.2969" style="stroke: #A80036; stroke-width: 1.5;" width="138" x="52" y="376"/><rect fill="#FEFECE" height="5" style="stroke: #A80036; stroke-width: 1.5;" width="10" x="47" y="381"/><rect fill="#FEFECE" height="5" style="stroke: #A80036; stroke-width: 1.5;" width="10" x="47" y="402.2969"/><text fill="#000000" font-family="sans-serif" font-size="14" lengthAdjust="spacingAndGlyphs" textLength="118" x="62" y="398.9951">PaymentsService</text><path d="M172,8 L172,93.6641 A0,0 0 0 0 172,93.6641 L372,93.6641 L376,153.97 L380,93.6641 L580,93.6641 A0,0 0 0 0 580,93.6641 L580,18 L570,8 L172,8 A0,0 0 0 0 172,8 " fill="#FBFB77" filter="url(#fn6v8bp6mjd48)" style="stroke: #A80036; stroke-width: 1.0;"/><path d="M570,8 L570,18 L580,18 L570,8 " fill="#FBFB77" style="stroke: #A80036; stroke-width: 1.0;"/><text fill="#000000" font-family="sans-serif" font-size="13" font-weight="bold" lengthAdjust="spacingAndGlyphs" textLength="331" x="178" y="25.0669">Circular dependencies are strictly prohibited</text><text fill="#000000" font-family="sans-serif" font-size="13" lengthAdjust="spacingAndGlyphs" textLength="0" x="182" y="40.1997"/><text fill="#000000" font-family="sans-serif" font-size="13" lengthAdjust="spacingAndGlyphs" textLength="12" x="178" y="55.3325">1.</text><text fill="#000000" font-family="sans-serif" font-size="13" font-weight="bold" lengthAdjust="spacingAndGlyphs" textLength="371" x="194" y="55.3325">No references between services in the same layer</text><text fill="#000000" font-family="sans-serif" font-size="13" lengthAdjust="spacingAndGlyphs" textLength="298" x="178" y="70.4653">2. Upper layers can only reference lower layers</text><text fill="#000000" font-family="sans-serif" font-size="13" lengthAdjust="spacingAndGlyphs" textLength="240" x="178" y="85.5981">3. Application → Core → Infrastructure</text><!--MD5=[980c67b2b3fbcea97786c1c99247e436]
link ShowtimeCreationService to MoviesService--><path d="M459.8,190.06 C488.38,197.67 519.93,208.12 547,222 C567.1,232.3 587.04,248.32 601.45,261.21 " fill="none" id="ShowtimeCreationService-&gt;MoviesService" style="stroke: #A80036; stroke-width: 1.0;"/><polygon fill="#A80036" points="605.36,264.76,601.3826,255.75,601.6571,261.4002,596.0069,261.6747,605.36,264.76" style="stroke: #A80036; stroke-width: 1.0;"/><!--MD5=[50f30fab1330b011e1810fddfb271e5e]
link ShowtimeCreationService to TheatersService--><path d="M389.59,190.03 C404.83,209.12 429.54,240.08 446.03,260.74 " fill="none" id="ShowtimeCreationService-&gt;TheatersService" style="stroke: #A80036; stroke-width: 1.0;"/><polygon fill="#A80036" points="449.21,264.73,446.7197,255.2012,446.09,260.8229,440.4683,260.1931,449.21,264.73" style="stroke: #A80036; stroke-width: 1.0;"/><!--MD5=[1d0a776151c96ea1ba23de3b110eeeb4]
link ShowtimeCreationService to ShowtimesService--><path d="M362.41,190.03 C347.17,209.12 322.46,240.08 305.97,260.74 " fill="none" id="ShowtimeCreationService-&gt;ShowtimesService" style="stroke: #A80036; stroke-width: 1.0;"/><polygon fill="#A80036" points="302.79,264.73,311.5317,260.1931,305.91,260.8229,305.2803,255.2012,302.79,264.73" style="stroke: #A80036; stroke-width: 1.0;"/><!--MD5=[169bc1278b25d13f809f2799a6889daf]
link ShowtimeCreationService to TicketsService--><path d="M288.91,190.01 C259.45,197.6 226.96,208.05 199,222 C178.46,232.25 157.99,248.27 143.18,261.18 " fill="none" id="ShowtimeCreationService-&gt;TicketsService" style="stroke: #A80036; stroke-width: 1.0;"/><polygon fill="#A80036" points="139.16,264.73,148.5498,261.7582,142.9033,261.4153,143.2462,255.7688,139.16,264.73" style="stroke: #A80036; stroke-width: 1.0;"/><!--MD5=[b4f1ffde19d5cb92586ea2ca0b7047c4]
link TicketsService to PaymentsService--><path d="M121,301.03 C121,319.8 121,350.05 121,370.7 " fill="none" id="TicketsService-&gt;PaymentsService" style="stroke: #A80036; stroke-width: 1.0;"/><polygon fill="#A80036" points="121,375.73,125,366.73,121,370.73,117,366.73,121,375.73" style="stroke: #A80036; stroke-width: 1.0;"/><!--MD5=[ad241361c609006d93cbd476281f1200]
@startuml
package "Application Services" {
[ShowtimeCreationService]
}

package "Core Services" {
[MoviesService]
[TheatersService]
[ShowtimesService]
[TicketsService]
}

package "Infrastructure Services" {
[PaymentsService]
}

[ShowtimeCreationService] - -> [MoviesService]
[ShowtimeCreationService] - -> [TheatersService]
[ShowtimeCreationService] - -> [ShowtimesService]
[ShowtimeCreationService] - -> [TicketsService]

[TicketsService] - -> [PaymentsService]

note top of [ShowtimeCreationService]
**Circular dependencies are strictly prohibited**

1. **No references between services in the same layer**
2. Upper layers can only reference lower layers
3. Application → Core → Infrastructure
    end note
    @enduml

PlantUML version 1.2020.02(Sun Mar 01 10:22:07 UTC 2020)
(GPL source distribution)
Java Runtime: OpenJDK Runtime Environment
JVM: OpenJDK 64-Bit Server VM
Java Version: 17.0.15+6-Debian-1deb12u1
Operating System: Linux
Default Encoding: UTF-8
Language: ko
Country: KR
--></g></svg>