<?xml version="1.0" encoding="UTF-8" standalone="no"?><svg xmlns="http://www.w3.org/2000/svg" xmlns:xlink="http://www.w3.org/1999/xlink" contentScriptType="application/ecmascript" contentStyleType="text/css" height="1070px" preserveAspectRatio="none" style="width:1088px;height:1070px;" version="1.1" viewBox="0 0 1088 1070" width="1088px" zoomAndPan="magnify"><defs><filter height="300%" id="f1kqyu9pl2ynxu" width="300%" x="-1" y="-1"><feGaussianBlur result="blurOut" stdDeviation="2.0"/><feColorMatrix in="blurOut" result="blurOut2" type="matrix" values="0 0 0 0 0 0 0 0 0 0 0 0 0 0 0 0 0 0 .4 0"/><feOffset dx="4.0" dy="4.0" in="blurOut2" result="blurOut3"/><feBlend in="SourceGraphic" in2="blurOut3" mode="normal"/></filter></defs><g><line style="stroke: #A80036; stroke-width: 1.0; stroke-dasharray: 5.0,5.0;" x1="48" x2="48" y1="38.2969" y2="1030.2109"/><line style="stroke: #A80036; stroke-width: 1.0; stroke-dasharray: 5.0,5.0;" x1="351" x2="351" y1="38.2969" y2="1030.2109"/><line style="stroke: #A80036; stroke-width: 1.0; stroke-dasharray: 5.0,5.0;" x1="564.5" x2="564.5" y1="38.2969" y2="1030.2109"/><line style="stroke: #A80036; stroke-width: 1.0; stroke-dasharray: 5.0,5.0;" x1="729.5" x2="729.5" y1="38.2969" y2="1030.2109"/><line style="stroke: #A80036; stroke-width: 1.0; stroke-dasharray: 5.0,5.0;" x1="862.5" x2="862.5" y1="38.2969" y2="1030.2109"/><line style="stroke: #A80036; stroke-width: 1.0; stroke-dasharray: 5.0,5.0;" x1="1009.5" x2="1009.5" y1="38.2969" y2="1030.2109"/><rect fill="#FEFECE" filter="url(#f1kqyu9pl2ynxu)" height="30.2969" style="stroke: #A80036; stroke-width: 1.5;" width="77" x="8" y="3"/><text fill="#000000" font-family="sans-serif" font-size="14" lengthAdjust="spacingAndGlyphs" textLength="63" x="15" y="22.9951">Frontend</text><rect fill="#FEFECE" filter="url(#f1kqyu9pl2ynxu)" height="30.2969" style="stroke: #A80036; stroke-width: 1.5;" width="77" x="8" y="1029.2109"/><text fill="#000000" font-family="sans-serif" font-size="14" lengthAdjust="spacingAndGlyphs" textLength="63" x="15" y="1049.2061">Frontend</text><rect fill="#FEFECE" filter="url(#f1kqyu9pl2ynxu)" height="30.2969" style="stroke: #A80036; stroke-width: 1.5;" width="75" x="312" y="3"/><text fill="#000000" font-family="sans-serif" font-size="14" lengthAdjust="spacingAndGlyphs" textLength="61" x="319" y="22.9951">Backend</text><rect fill="#FEFECE" filter="url(#f1kqyu9pl2ynxu)" height="30.2969" style="stroke: #A80036; stroke-width: 1.5;" width="75" x="312" y="1029.2109"/><text fill="#000000" font-family="sans-serif" font-size="14" lengthAdjust="spacingAndGlyphs" textLength="61" x="319" y="1049.2061">Backend</text><rect fill="#FEFECE" filter="url(#f1kqyu9pl2ynxu)" height="30.2969" style="stroke: #A80036; stroke-width: 1.5;" width="190" x="467.5" y="3"/><text fill="#000000" font-family="sans-serif" font-size="14" lengthAdjust="spacingAndGlyphs" textLength="176" x="474.5" y="22.9951">ShowtimeCreationService</text><rect fill="#FEFECE" filter="url(#f1kqyu9pl2ynxu)" height="30.2969" style="stroke: #A80036; stroke-width: 1.5;" width="190" x="467.5" y="1029.2109"/><text fill="#000000" font-family="sans-serif" font-size="14" lengthAdjust="spacingAndGlyphs" textLength="176" x="474.5" y="1049.2061">ShowtimeCreationService</text><rect fill="#FEFECE" filter="url(#f1kqyu9pl2ynxu)" height="30.2969" style="stroke: #A80036; stroke-width: 1.5;" width="112" x="671.5" y="3"/><text fill="#000000" font-family="sans-serif" font-size="14" lengthAdjust="spacingAndGlyphs" textLength="98" x="678.5" y="22.9951">MoviesService</text><rect fill="#FEFECE" filter="url(#f1kqyu9pl2ynxu)" height="30.2969" style="stroke: #A80036; stroke-width: 1.5;" width="112" x="671.5" y="1029.2109"/><text fill="#000000" font-family="sans-serif" font-size="14" lengthAdjust="spacingAndGlyphs" textLength="98" x="678.5" y="1049.2061">MoviesService</text><rect fill="#FEFECE" filter="url(#f1kqyu9pl2ynxu)" height="30.2969" style="stroke: #A80036; stroke-width: 1.5;" width="126" x="797.5" y="3"/><text fill="#000000" font-family="sans-serif" font-size="14" lengthAdjust="spacingAndGlyphs" textLength="112" x="804.5" y="22.9951">TheatersService</text><rect fill="#FEFECE" filter="url(#f1kqyu9pl2ynxu)" height="30.2969" style="stroke: #A80036; stroke-width: 1.5;" width="126" x="797.5" y="1029.2109"/><text fill="#000000" font-family="sans-serif" font-size="14" lengthAdjust="spacingAndGlyphs" textLength="112" x="804.5" y="1049.2061">TheatersService</text><rect fill="#FEFECE" filter="url(#f1kqyu9pl2ynxu)" height="30.2969" style="stroke: #A80036; stroke-width: 1.5;" width="140" x="937.5" y="3"/><text fill="#000000" font-family="sans-serif" font-size="14" lengthAdjust="spacingAndGlyphs" textLength="126" x="944.5" y="22.9951">ShowtimesService</text><rect fill="#FEFECE" filter="url(#f1kqyu9pl2ynxu)" height="30.2969" style="stroke: #A80036; stroke-width: 1.5;" width="140" x="937.5" y="1029.2109"/><text fill="#000000" font-family="sans-serif" font-size="14" lengthAdjust="spacingAndGlyphs" textLength="126" x="944.5" y="1049.2061">ShowtimesService</text><polygon fill="#A80036" points="339.5,80.5625,349.5,84.5625,339.5,88.5625,343.5,84.5625" style="stroke: #A80036; stroke-width: 1.0;"/><line style="stroke: #A80036; stroke-width: 1.0;" x1="48.5" x2="345.5" y1="84.5625" y2="84.5625"/><text fill="#000000" font-family="sans-serif" font-size="13" lengthAdjust="spacingAndGlyphs" textLength="117" x="55.5" y="64.3638">Request movie list</text><text fill="#000000" font-family="sans-serif" font-size="13" lengthAdjust="spacingAndGlyphs" textLength="201" x="55.5" y="79.4966">GET /showtime-creation/movies</text><polygon fill="#A80036" points="552.5,109.6953,562.5,113.6953,552.5,117.6953,556.5,113.6953" style="stroke: #A80036; stroke-width: 1.0;"/><line style="stroke: #A80036; stroke-width: 1.0;" x1="351.5" x2="558.5" y1="113.6953" y2="113.6953"/><text fill="#000000" font-family="sans-serif" font-size="13" lengthAdjust="spacingAndGlyphs" textLength="97" x="358.5" y="108.6294">searchMovies()</text><polygon fill="#A80036" points="717.5,138.8281,727.5,142.8281,717.5,146.8281,721.5,142.8281" style="stroke: #A80036; stroke-width: 1.0;"/><line style="stroke: #A80036; stroke-width: 1.0;" x1="564.5" x2="723.5" y1="142.8281" y2="142.8281"/><text fill="#000000" font-family="sans-serif" font-size="13" lengthAdjust="spacingAndGlyphs" textLength="97" x="571.5" y="137.7622">searchMovies()</text><polygon fill="#A80036" points="575.5,167.9609,565.5,171.9609,575.5,175.9609,571.5,171.9609" style="stroke: #A80036; stroke-width: 1.0;"/><line style="stroke: #A80036; stroke-width: 1.0; stroke-dasharray: 2.0,2.0;" x1="569.5" x2="728.5" y1="171.9609" y2="171.9609"/><text fill="#000000" font-family="sans-serif" font-size="13" lengthAdjust="spacingAndGlyphs" textLength="56" x="581.5" y="166.895">movies[]</text><polygon fill="#A80036" points="362.5,197.0938,352.5,201.0938,362.5,205.0938,358.5,201.0938" style="stroke: #A80036; stroke-width: 1.0;"/><line style="stroke: #A80036; stroke-width: 1.0; stroke-dasharray: 2.0,2.0;" x1="356.5" x2="563.5" y1="201.0938" y2="201.0938"/><text fill="#000000" font-family="sans-serif" font-size="13" lengthAdjust="spacingAndGlyphs" textLength="56" x="368.5" y="196.0278">movies[]</text><polygon fill="#A80036" points="59.5,226.2266,49.5,230.2266,59.5,234.2266,55.5,230.2266" style="stroke: #A80036; stroke-width: 1.0;"/><line style="stroke: #A80036; stroke-width: 1.0; stroke-dasharray: 2.0,2.0;" x1="53.5" x2="350.5" y1="230.2266" y2="230.2266"/><text fill="#000000" font-family="sans-serif" font-size="13" lengthAdjust="spacingAndGlyphs" textLength="56" x="65.5" y="225.1606">movies[]</text><polygon fill="#A80036" points="339.5,270.4922,349.5,274.4922,339.5,278.4922,343.5,274.4922" style="stroke: #A80036; stroke-width: 1.0;"/><line style="stroke: #A80036; stroke-width: 1.0;" x1="48.5" x2="345.5" y1="274.4922" y2="274.4922"/><text fill="#000000" font-family="sans-serif" font-size="13" lengthAdjust="spacingAndGlyphs" textLength="125" x="55.5" y="254.2935">Request theater list</text><text fill="#000000" font-family="sans-serif" font-size="13" lengthAdjust="spacingAndGlyphs" textLength="209" x="55.5" y="269.4263">GET /showtime-creation/theaters</text><polygon fill="#A80036" points="552.5,299.625,562.5,303.625,552.5,307.625,556.5,303.625" style="stroke: #A80036; stroke-width: 1.0;"/><line style="stroke: #A80036; stroke-width: 1.0;" x1="351.5" x2="558.5" y1="303.625" y2="303.625"/><text fill="#000000" font-family="sans-serif" font-size="13" lengthAdjust="spacingAndGlyphs" textLength="109" x="358.5" y="298.5591">searchTheaters()</text><polygon fill="#A80036" points="850.5,328.7578,860.5,332.7578,850.5,336.7578,854.5,332.7578" style="stroke: #A80036; stroke-width: 1.0;"/><line style="stroke: #A80036; stroke-width: 1.0;" x1="564.5" x2="856.5" y1="332.7578" y2="332.7578"/><text fill="#000000" font-family="sans-serif" font-size="13" lengthAdjust="spacingAndGlyphs" textLength="109" x="571.5" y="327.6919">searchTheaters()</text><polygon fill="#A80036" points="575.5,357.8906,565.5,361.8906,575.5,365.8906,571.5,361.8906" style="stroke: #A80036; stroke-width: 1.0;"/><line style="stroke: #A80036; stroke-width: 1.0; stroke-dasharray: 2.0,2.0;" x1="569.5" x2="861.5" y1="361.8906" y2="361.8906"/><text fill="#000000" font-family="sans-serif" font-size="13" lengthAdjust="spacingAndGlyphs" textLength="64" x="581.5" y="356.8247">theaters[]</text><polygon fill="#A80036" points="362.5,387.0234,352.5,391.0234,362.5,395.0234,358.5,391.0234" style="stroke: #A80036; stroke-width: 1.0;"/><line style="stroke: #A80036; stroke-width: 1.0; stroke-dasharray: 2.0,2.0;" x1="356.5" x2="563.5" y1="391.0234" y2="391.0234"/><text fill="#000000" font-family="sans-serif" font-size="13" lengthAdjust="spacingAndGlyphs" textLength="64" x="368.5" y="385.9575">theaters[]</text><polygon fill="#A80036" points="59.5,416.1563,49.5,420.1563,59.5,424.1563,55.5,420.1563" style="stroke: #A80036; stroke-width: 1.0;"/><line style="stroke: #A80036; stroke-width: 1.0; stroke-dasharray: 2.0,2.0;" x1="53.5" x2="350.5" y1="420.1563" y2="420.1563"/><text fill="#000000" font-family="sans-serif" font-size="13" lengthAdjust="spacingAndGlyphs" textLength="64" x="65.5" y="415.0903">theaters[]</text><polygon fill="#A80036" points="339.5,472.9883,349.5,476.9883,339.5,480.9883,343.5,476.9883" style="stroke: #A80036; stroke-width: 1.0;"/><line style="stroke: #A80036; stroke-width: 1.0;" x1="48.5" x2="345.5" y1="476.9883" y2="476.9883"/><text fill="#000000" font-family="sans-serif" font-size="13" lengthAdjust="spacingAndGlyphs" textLength="139" x="55.5" y="456.7896">Request showtime list</text><text fill="#000000" font-family="sans-serif" font-size="13" lengthAdjust="spacingAndGlyphs" textLength="279" x="55.5" y="471.9224">POST /showtime-creation/showtimes/search</text><path d="M356,433.1563 L356,488.1563 L527,488.1563 L527,443.1563 L517,433.1563 L356,433.1563 " fill="#FBFB77" filter="url(#f1kqyu9pl2ynxu)" style="stroke: #A80036; stroke-width: 1.0;"/><path d="M517,433.1563 L517,443.1563 L527,443.1563 L517,433.1563 " fill="#FBFB77" style="stroke: #A80036; stroke-width: 1.0;"/><text fill="#000000" font-family="sans-serif" font-size="13" lengthAdjust="spacingAndGlyphs" textLength="150" x="362" y="450.2231">ShowtimesSearchDto {</text><text fill="#000000" font-family="sans-serif" font-size="13" lengthAdjust="spacingAndGlyphs" textLength="65" x="362" y="465.356">theaterIds</text><text fill="#000000" font-family="sans-serif" font-size="13" lengthAdjust="spacingAndGlyphs" textLength="8" x="362" y="480.4888">}</text><polygon fill="#A80036" points="552.5,514.6875,562.5,518.6875,552.5,522.6875,556.5,518.6875" style="stroke: #A80036; stroke-width: 1.0;"/><line style="stroke: #A80036; stroke-width: 1.0;" x1="351.5" x2="558.5" y1="518.6875" y2="518.6875"/><text fill="#000000" font-family="sans-serif" font-size="13" lengthAdjust="spacingAndGlyphs" textLength="189" x="358.5" y="513.6216">searchShowtimes(searchDto)</text><polygon fill="#A80036" points="997.5,543.8203,1007.5,547.8203,997.5,551.8203,1001.5,547.8203" style="stroke: #A80036; stroke-width: 1.0;"/><line style="stroke: #A80036; stroke-width: 1.0;" x1="564.5" x2="1003.5" y1="547.8203" y2="547.8203"/><text fill="#000000" font-family="sans-serif" font-size="13" lengthAdjust="spacingAndGlyphs" textLength="189" x="571.5" y="542.7544">searchShowtimes(searchDto)</text><polygon fill="#A80036" points="575.5,572.9531,565.5,576.9531,575.5,580.9531,571.5,576.9531" style="stroke: #A80036; stroke-width: 1.0;"/><line style="stroke: #A80036; stroke-width: 1.0; stroke-dasharray: 2.0,2.0;" x1="569.5" x2="1008.5" y1="576.9531" y2="576.9531"/><text fill="#000000" font-family="sans-serif" font-size="13" lengthAdjust="spacingAndGlyphs" textLength="78" x="581.5" y="571.8872">showtimes[]</text><polygon fill="#A80036" points="362.5,602.0859,352.5,606.0859,362.5,610.0859,358.5,606.0859" style="stroke: #A80036; stroke-width: 1.0;"/><line style="stroke: #A80036; stroke-width: 1.0; stroke-dasharray: 2.0,2.0;" x1="356.5" x2="563.5" y1="606.0859" y2="606.0859"/><text fill="#000000" font-family="sans-serif" font-size="13" lengthAdjust="spacingAndGlyphs" textLength="78" x="368.5" y="601.02">showtimes[]</text><polygon fill="#A80036" points="59.5,631.2188,49.5,635.2188,59.5,639.2188,55.5,635.2188" style="stroke: #A80036; stroke-width: 1.0;"/><line style="stroke: #A80036; stroke-width: 1.0; stroke-dasharray: 2.0,2.0;" x1="53.5" x2="350.5" y1="635.2188" y2="635.2188"/><text fill="#000000" font-family="sans-serif" font-size="13" lengthAdjust="spacingAndGlyphs" textLength="78" x="65.5" y="630.1528">showtimes[]</text><polygon fill="#A80036" points="339.5,710.75,349.5,714.75,339.5,718.75,343.5,714.75" style="stroke: #A80036; stroke-width: 1.0;"/><line style="stroke: #A80036; stroke-width: 1.0;" x1="48.5" x2="345.5" y1="714.75" y2="714.75"/><text fill="#000000" font-family="sans-serif" font-size="13" lengthAdjust="spacingAndGlyphs" textLength="161" x="55.5" y="694.5513">Create showtime request</text><text fill="#000000" font-family="sans-serif" font-size="13" lengthAdjust="spacingAndGlyphs" textLength="232" x="55.5" y="709.6841">POST /showtime-creation/showtimes</text><path d="M356,648.2188 L356,748.2188 L525,748.2188 L525,658.2188 L515,648.2188 L356,648.2188 " fill="#FBFB77" filter="url(#f1kqyu9pl2ynxu)" style="stroke: #A80036; stroke-width: 1.0;"/><path d="M515,648.2188 L515,658.2188 L525,658.2188 L515,648.2188 " fill="#FBFB77" style="stroke: #A80036; stroke-width: 1.0;"/><text fill="#000000" font-family="sans-serif" font-size="13" lengthAdjust="spacingAndGlyphs" textLength="148" x="362" y="665.2856">ShowtimesCreateDto {</text><text fill="#000000" font-family="sans-serif" font-size="13" lengthAdjust="spacingAndGlyphs" textLength="54" x="362" y="680.4185">movieId,</text><text fill="#000000" font-family="sans-serif" font-size="13" lengthAdjust="spacingAndGlyphs" textLength="69" x="362" y="695.5513">theaterIds,</text><text fill="#000000" font-family="sans-serif" font-size="13" lengthAdjust="spacingAndGlyphs" textLength="72" x="362" y="710.6841">startTimes,</text><text fill="#000000" font-family="sans-serif" font-size="13" lengthAdjust="spacingAndGlyphs" textLength="103" x="362" y="725.8169">durationMinutes</text><text fill="#000000" font-family="sans-serif" font-size="13" lengthAdjust="spacingAndGlyphs" textLength="8" x="362" y="740.9497">}</text><polygon fill="#A80036" points="552.5,775.1484,562.5,779.1484,552.5,783.1484,556.5,779.1484" style="stroke: #A80036; stroke-width: 1.0;"/><line style="stroke: #A80036; stroke-width: 1.0;" x1="351.5" x2="558.5" y1="779.1484" y2="779.1484"/><text fill="#000000" font-family="sans-serif" font-size="13" lengthAdjust="spacingAndGlyphs" textLength="185" x="358.5" y="774.0825">createShowtimes(createDto)</text><polygon fill="#A80036" points="717.5,804.2813,727.5,808.2813,717.5,812.2813,721.5,808.2813" style="stroke: #A80036; stroke-width: 1.0;"/><line style="stroke: #A80036; stroke-width: 1.0;" x1="564.5" x2="723.5" y1="808.2813" y2="808.2813"/><text fill="#000000" font-family="sans-serif" font-size="13" lengthAdjust="spacingAndGlyphs" textLength="136" x="571.5" y="803.2153">moviesExist(movieId)</text><polygon fill="#A80036" points="575.5,833.4141,565.5,837.4141,575.5,841.4141,571.5,837.4141" style="stroke: #A80036; stroke-width: 1.0;"/><line style="stroke: #A80036; stroke-width: 1.0; stroke-dasharray: 2.0,2.0;" x1="569.5" x2="728.5" y1="837.4141" y2="837.4141"/><text fill="#000000" font-family="sans-serif" font-size="13" lengthAdjust="spacingAndGlyphs" textLength="26" x="581.5" y="832.3481">true</text><polygon fill="#A80036" points="850.5,862.5469,860.5,866.5469,850.5,870.5469,854.5,866.5469" style="stroke: #A80036; stroke-width: 1.0;"/><line style="stroke: #A80036; stroke-width: 1.0;" x1="564.5" x2="856.5" y1="866.5469" y2="866.5469"/><text fill="#000000" font-family="sans-serif" font-size="13" lengthAdjust="spacingAndGlyphs" textLength="159" x="571.5" y="861.481">theatersExist(theaterIds)</text><polygon fill="#A80036" points="575.5,891.6797,565.5,895.6797,575.5,899.6797,571.5,895.6797" style="stroke: #A80036; stroke-width: 1.0;"/><line style="stroke: #A80036; stroke-width: 1.0; stroke-dasharray: 2.0,2.0;" x1="569.5" x2="861.5" y1="895.6797" y2="895.6797"/><text fill="#000000" font-family="sans-serif" font-size="13" lengthAdjust="spacingAndGlyphs" textLength="26" x="581.5" y="890.6138">true</text><polygon fill="#A80036" points="997.5,920.8125,1007.5,924.8125,997.5,928.8125,1001.5,924.8125" style="stroke: #A80036; stroke-width: 1.0;"/><line style="stroke: #A80036; stroke-width: 1.0;" x1="564.5" x2="1003.5" y1="924.8125" y2="924.8125"/><text fill="#000000" font-family="sans-serif" font-size="13" lengthAdjust="spacingAndGlyphs" textLength="185" x="571.5" y="919.7466">createShowtimes(createDto)</text><polygon fill="#A80036" points="575.5,949.9453,565.5,953.9453,575.5,957.9453,571.5,953.9453" style="stroke: #A80036; stroke-width: 1.0;"/><line style="stroke: #A80036; stroke-width: 1.0; stroke-dasharray: 2.0,2.0;" x1="569.5" x2="1008.5" y1="953.9453" y2="953.9453"/><text fill="#000000" font-family="sans-serif" font-size="13" lengthAdjust="spacingAndGlyphs" textLength="384" x="581.5" y="948.8794">showtimes[] // Assuming this returns the created showtimes</text><polygon fill="#A80036" points="362.5,979.0781,352.5,983.0781,362.5,987.0781,358.5,983.0781" style="stroke: #A80036; stroke-width: 1.0;"/><line style="stroke: #A80036; stroke-width: 1.0; stroke-dasharray: 2.0,2.0;" x1="356.5" x2="563.5" y1="983.0781" y2="983.0781"/><text fill="#000000" font-family="sans-serif" font-size="13" lengthAdjust="spacingAndGlyphs" textLength="78" x="368.5" y="978.0122">showtimes[]</text><polygon fill="#A80036" points="59.5,1008.2109,49.5,1012.2109,59.5,1016.2109,55.5,1012.2109" style="stroke: #A80036; stroke-width: 1.0;"/><line style="stroke: #A80036; stroke-width: 1.0; stroke-dasharray: 2.0,2.0;" x1="53.5" x2="350.5" y1="1012.2109" y2="1012.2109"/><text fill="#000000" font-family="sans-serif" font-size="13" lengthAdjust="spacingAndGlyphs" textLength="85" x="65.5" y="1007.145">Created(201)</text><!--MD5=[f7fff597fd47192852bda34157f86900]
@startuml
Frontend -> Backend: Request movie list\nGET /showtime-creation/movies
Backend -> ShowtimeCreationService: searchMovies()
ShowtimeCreationService -> MoviesService: searchMovies()
ShowtimeCreationService <- - MoviesService: movies[]
Backend <- - ShowtimeCreationService: movies[]
Frontend <- - Backend: movies[]

Frontend -> Backend: Request theater list\nGET /showtime-creation/theaters
Backend -> ShowtimeCreationService: searchTheaters()
ShowtimeCreationService -> TheatersService: searchTheaters()
ShowtimeCreationService <- - TheatersService: theaters[]
Backend <- - ShowtimeCreationService: theaters[]
Frontend <- - Backend: theaters[]

Frontend -> Backend: Request showtime list\nPOST /showtime-creation/showtimes/search
note right
ShowtimesSearchDto {
theaterIds
}
end note
Backend -> ShowtimeCreationService: searchShowtimes(searchDto)
ShowtimeCreationService -> ShowtimesService: searchShowtimes(searchDto)
ShowtimeCreationService <- - ShowtimesService: showtimes[]
Backend <- - ShowtimeCreationService: showtimes[]
Frontend <- - Backend: showtimes[]

Frontend -> Backend: Create showtime request\nPOST /showtime-creation/showtimes
note right
ShowtimesCreateDto {
movieId,
theaterIds,
startTimes,
durationMinutes
}
end note
Backend -> ShowtimeCreationService: createShowtimes(createDto)
ShowtimeCreationService -> MoviesService: moviesExist(movieId)
ShowtimeCreationService <- - MoviesService: true

    ShowtimeCreationService -> TheatersService: theatersExist(theaterIds)
    ShowtimeCreationService <- - TheatersService: true

    ShowtimeCreationService -> ShowtimesService: createShowtimes(createDto)
    ShowtimeCreationService <- - ShowtimesService: showtimes[] // Assuming this returns the created showtimes
Backend <- - ShowtimeCreationService: showtimes[]

Frontend <- - Backend: Created(201)

@enduml

PlantUML version 1.2020.02(Sun Mar 01 10:22:07 UTC 2020)
(GPL source distribution)
Java Runtime: OpenJDK Runtime Environment
JVM: OpenJDK 64-Bit Server VM
Java Version: 17.0.14+7-Debian-1deb12u1
Operating System: Linux
Default Encoding: UTF-8
Language: en
Country: null
--></g></svg>