<?xml version="1.0" encoding="UTF-8" standalone="no"?><svg xmlns="http://www.w3.org/2000/svg" xmlns:xlink="http://www.w3.org/1999/xlink" contentScriptType="application/ecmascript" contentStyleType="text/css" height="261px" preserveAspectRatio="none" style="width:632px;height:261px;" version="1.1" viewBox="0 0 632 261" width="632px" zoomAndPan="magnify"><defs><filter height="300%" id="f7zqpsumnpfpw" width="300%" x="-1" y="-1"><feGaussianBlur result="blurOut" stdDeviation="2.0"/><feColorMatrix in="blurOut" result="blurOut2" type="matrix" values="0 0 0 0 0 0 0 0 0 0 0 0 0 0 0 0 0 0 .4 0"/><feOffset dx="4.0" dy="4.0" in="blurOut2" result="blurOut3"/><feBlend in="SourceGraphic" in2="blurOut3" mode="normal"/></filter></defs><g><!--MD5=[30611f0aa241fdc992061fe53b37aa34]
cluster REST API만 두 개로 분리하고 서비스와 테이블은 하나로 구현하기로 함--><polygon fill="#FFFFFF" filter="url(#f7zqpsumnpfpw)" points="22,24,337,24,344,46.2969,610,46.2969,610,249,22,249,22,24" style="stroke: #000000; stroke-width: 1.5;"/><line style="stroke: #000000; stroke-width: 1.5;" x1="22" x2="344" y1="46.2969" y2="46.2969"/><text fill="#000000" font-family="sans-serif" font-size="14" font-weight="bold" lengthAdjust="spacingAndGlyphs" textLength="309" x="26" y="38.9951">REST API만 두 개로 분리하고 서비스와 테이블은 하나로 구현하기로 함</text><!--MD5=[b244f6153427e463418825080856ced7]
cluster REST API Layer--><polygon fill="#FFFFFF" filter="url(#f7zqpsumnpfpw)" points="46,67,170,67,177,89.2969,184,89.2969,184,225,46,225,46,67" style="stroke: #000000; stroke-width: 1.5;"/><line style="stroke: #000000; stroke-width: 1.5;" x1="46" x2="177" y1="89.2969" y2="89.2969"/><text fill="#000000" font-family="sans-serif" font-size="14" font-weight="bold" lengthAdjust="spacingAndGlyphs" textLength="118" x="50" y="81.9951">REST API Layer</text><!--MD5=[167559344b6808c6e7281c72e5103d8e]
cluster Service Layer--><polygon fill="#FFFFFF" filter="url(#f7zqpsumnpfpw)" points="212,103,326,103,333,125.2969,391,125.2969,391,190,212,190,212,103" style="stroke: #000000; stroke-width: 1.5;"/><line style="stroke: #000000; stroke-width: 1.5;" x1="212" x2="333" y1="125.2969" y2="125.2969"/><text fill="#000000" font-family="sans-serif" font-size="14" font-weight="bold" lengthAdjust="spacingAndGlyphs" textLength="108" x="216" y="117.9951">Service Layer</text><!--MD5=[023fe2768d341cd525e8503fdfbee177]
cluster Data Layer--><polygon fill="#FFFFFF" filter="url(#f7zqpsumnpfpw)" points="419,103,509,103,516,125.2969,586,125.2969,586,190,419,190,419,103" style="stroke: #000000; stroke-width: 1.5;"/><line style="stroke: #000000; stroke-width: 1.5;" x1="419" x2="516" y1="125.2969" y2="125.2969"/><text fill="#000000" font-family="sans-serif" font-size="14" font-weight="bold" lengthAdjust="spacingAndGlyphs" textLength="84" x="423" y="117.9951">Data Layer</text><!--MD5=[40925588c3c688b5f1c26d75dfca4142]
entity Apostille API--><rect fill="#FEFECE" filter="url(#f7zqpsumnpfpw)" height="36.2969" style="stroke: #A80036; stroke-width: 1.5;" width="103" x="63.5" y="102"/><rect fill="#FEFECE" height="5" style="stroke: #A80036; stroke-width: 1.5;" width="10" x="58.5" y="107"/><rect fill="#FEFECE" height="5" style="stroke: #A80036; stroke-width: 1.5;" width="10" x="58.5" y="128.2969"/><text fill="#000000" font-family="sans-serif" font-size="14" lengthAdjust="spacingAndGlyphs" textLength="83" x="73.5" y="124.9951">Apostille API</text><!--MD5=[7f74950928cce643f40b084fc7a6350c]
entity Consular API--><rect fill="#FEFECE" filter="url(#f7zqpsumnpfpw)" height="36.2969" style="stroke: #A80036; stroke-width: 1.5;" width="106" x="62" y="173"/><rect fill="#FEFECE" height="5" style="stroke: #A80036; stroke-width: 1.5;" width="10" x="57" y="178"/><rect fill="#FEFECE" height="5" style="stroke: #A80036; stroke-width: 1.5;" width="10" x="57" y="199.2969"/><text fill="#000000" font-family="sans-serif" font-size="14" lengthAdjust="spacingAndGlyphs" textLength="86" x="72" y="195.9951">Consular API</text><!--MD5=[6903f9ae62deaf1997a3bb182c825b49]
entity Document Service--><rect fill="#FEFECE" filter="url(#f7zqpsumnpfpw)" height="36.2969" style="stroke: #A80036; stroke-width: 1.5;" width="147" x="228" y="138"/><rect fill="#FEFECE" height="5" style="stroke: #A80036; stroke-width: 1.5;" width="10" x="223" y="143"/><rect fill="#FEFECE" height="5" style="stroke: #A80036; stroke-width: 1.5;" width="10" x="223" y="164.2969"/><text fill="#000000" font-family="sans-serif" font-size="14" lengthAdjust="spacingAndGlyphs" textLength="127" x="238" y="160.9951">Document Service</text><!--MD5=[5ced11698a11e0d86298cdf0e2e9c119]
entity Document Table--><rect fill="#FEFECE" filter="url(#f7zqpsumnpfpw)" height="36.2969" style="stroke: #A80036; stroke-width: 1.5;" width="135" x="435" y="138"/><rect fill="#FEFECE" height="5" style="stroke: #A80036; stroke-width: 1.5;" width="10" x="430" y="143"/><rect fill="#FEFECE" height="5" style="stroke: #A80036; stroke-width: 1.5;" width="10" x="430" y="164.2969"/><text fill="#000000" font-family="sans-serif" font-size="14" lengthAdjust="spacingAndGlyphs" textLength="115" x="445" y="160.9951">Document Table</text><!--MD5=[7d9e2c747d0aec3f4e495fd152bdde01]
link Apostille API to Document Service--><path d="M166.9,129.93 C184.06,133.28 203.63,137.1 222.39,140.76 " fill="none" id="Apostille API-&gt;Document Service" style="stroke: #A80036; stroke-width: 1.0;"/><polygon fill="#A80036" points="227.66,141.79,219.5907,136.1432,222.7522,140.8341,218.0613,143.9956,227.66,141.79" style="stroke: #A80036; stroke-width: 1.0;"/><!--MD5=[c56190897cf8f5ad1b61fe332803ba6a]
link Consular API to Document Service--><path d="M168.38,181.06 C185.22,177.87 204.27,174.26 222.54,170.79 " fill="none" id="Consular API-&gt;Document Service" style="stroke: #A80036; stroke-width: 1.0;"/><polygon fill="#A80036" points="227.68,169.81,218.0938,167.5506,222.7669,170.7383,219.5792,175.4115,227.68,169.81" style="stroke: #A80036; stroke-width: 1.0;"/><!--MD5=[f32edfbb496cfd15b28c72b35aaa2281]
link Document Service to Document Table--><path d="M375.19,156 C392.9,156 411.83,156 429.51,156 " fill="none" id="Document Service-&gt;Document Table" style="stroke: #A80036; stroke-width: 1.0;"/><polygon fill="#A80036" points="434.95,156,425.95,152,429.95,156,425.95,160,434.95,156" style="stroke: #A80036; stroke-width: 1.0;"/><!--MD5=[65edcfdb0111b90d8dcc88cd8621eb2f]
@startuml
left to right direction

package "REST API만 두 개로 분리하고 서비스와 테이블은 하나로 구현하기로 함" {
    package "REST API Layer" {
    [Apostille API]
    [Consular API]
    }

    package "Service Layer" {
    [Document Service]
    }

    package "Data Layer" {
    [Document Table]
    }

    [Apostille API] - -> [Document Service]
    [Consular API] - -> [Document Service]
    [Document Service] - -> [Document Table]
}

@enduml

PlantUML version 1.2020.02(Sun Mar 01 10:22:07 UTC 2020)
(GPL source distribution)
Java Runtime: OpenJDK Runtime Environment
JVM: OpenJDK 64-Bit Server VM
Java Version: 17.0.15+6-Debian-1deb12u1
Operating System: Linux
Default Encoding: UTF-8
Language: ko
Country: KR
--></g></svg>