<?xml version="1.0" encoding="UTF-8" standalone="no"?><svg xmlns="http://www.w3.org/2000/svg" xmlns:xlink="http://www.w3.org/1999/xlink" contentScriptType="application/ecmascript" contentStyleType="text/css" height="883px" preserveAspectRatio="none" style="width:608px;height:883px;" version="1.1" viewBox="0 0 608 883" width="608px" zoomAndPan="magnify"><defs><filter height="300%" id="fncai43hbkq7s" width="300%" x="-1" y="-1"><feGaussianBlur result="blurOut" stdDeviation="2.0"/><feColorMatrix in="blurOut" result="blurOut2" type="matrix" values="0 0 0 0 0 0 0 0 0 0 0 0 0 0 0 0 0 0 .4 0"/><feOffset dx="4.0" dy="4.0" in="blurOut2" result="blurOut3"/><feBlend in="SourceGraphic" in2="blurOut3" mode="normal"/></filter></defs><g><!--MD5=[6c2d02fe013167922f007c9285828968]
cluster mbs--><polygon fill="#FFFFFF" filter="url(#fncai43hbkq7s)" points="116,24,299,24,306,46.2969,438,46.2969,438,871,116,871,116,24" style="stroke: #000000; stroke-width: 1.5;"/><line style="stroke: #000000; stroke-width: 1.5;" x1="116" x2="306" y1="46.2969" y2="46.2969"/><text fill="#000000" font-family="sans-serif" font-size="14" font-weight="bold" lengthAdjust="spacingAndGlyphs" textLength="177" x="120" y="38.9951">Movie Booking System</text><!--MD5=[c7109cc79c436e4de7b73789f25103a4]
cluster theaters--><polygon fill="#FFFFFF" filter="url(#fncai43hbkq7s)" points="151,300,224,300,231,322.2969,263,322.2969,263,445,151,445,151,300" style="stroke: #000000; stroke-width: 1.5;"/><line style="stroke: #000000; stroke-width: 1.5;" x1="151" x2="231" y1="322.2969" y2="322.2969"/><text fill="#000000" font-family="sans-serif" font-size="14" font-weight="bold" lengthAdjust="spacingAndGlyphs" textLength="67" x="155" y="314.9951">theaters</text><!--MD5=[b1e937784b653f6ad52390770b5ca1d7]
cluster movies--><polygon fill="#FFFFFF" filter="url(#fncai43hbkq7s)" points="151,469,213,469,220,491.2969,263,491.2969,263,678,151,678,151,469" style="stroke: #000000; stroke-width: 1.5;"/><line style="stroke: #000000; stroke-width: 1.5;" x1="151" x2="220" y1="491.2969" y2="491.2969"/><text fill="#000000" font-family="sans-serif" font-size="14" font-weight="bold" lengthAdjust="spacingAndGlyphs" textLength="56" x="155" y="483.9951">movies</text><!--MD5=[55c1321e5e660f70fb77e9cf74eefc72]
cluster customers--><polygon fill="#FFFFFF" filter="url(#fncai43hbkq7s)" points="151,67,241,67,248,89.2969,263,89.2969,263,276,151,276,151,67" style="stroke: #000000; stroke-width: 1.5;"/><line style="stroke: #000000; stroke-width: 1.5;" x1="151" x2="248" y1="89.2969" y2="89.2969"/><text fill="#000000" font-family="sans-serif" font-size="14" font-weight="bold" lengthAdjust="spacingAndGlyphs" textLength="84" x="155" y="81.9951">customers</text><!--MD5=[dffa5d117727925aa4668bf20905af82]
cluster showtimes--><polygon fill="#FFFFFF" filter="url(#fncai43hbkq7s)" points="140,702,232,702,239,724.2969,274,724.2969,274,847,140,847,140,702" style="stroke: #000000; stroke-width: 1.5;"/><line style="stroke: #000000; stroke-width: 1.5;" x1="140" x2="239" y1="724.2969" y2="724.2969"/><text fill="#000000" font-family="sans-serif" font-size="14" font-weight="bold" lengthAdjust="spacingAndGlyphs" textLength="86" x="144" y="716.9951">showtimes</text><!--MD5=[0c64180b40cb6a42c012370e26047e31]
cluster tickets--><polygon fill="#FFFFFF" filter="url(#fncai43hbkq7s)" points="302,574,361,574,368,596.2969,414,596.2969,414,847,302,847,302,574" style="stroke: #000000; stroke-width: 1.5;"/><line style="stroke: #000000; stroke-width: 1.5;" x1="302" x2="368" y1="596.2969" y2="596.2969"/><text fill="#000000" font-family="sans-serif" font-size="14" font-weight="bold" lengthAdjust="spacingAndGlyphs" textLength="53" x="306" y="588.9951">tickets</text><ellipse cx="206.7696" cy="350.0236" fill="#FEFECE" filter="url(#fncai43hbkq7s)" rx="39.7696" ry="14.5236" style="stroke: #A80036; stroke-width: 1.5;"/><text fill="#000000" font-family="sans-serif" font-size="14" lengthAdjust="spacingAndGlyphs" textLength="52" x="180.7696" y="354.6721">극장 추가하기</text><ellipse cx="206.7696" cy="414.0236" fill="#FEFECE" filter="url(#fncai43hbkq7s)" rx="39.7696" ry="14.5236" style="stroke: #A80036; stroke-width: 1.5;"/><text fill="#000000" font-family="sans-serif" font-size="14" lengthAdjust="spacingAndGlyphs" textLength="52" x="180.7696" y="418.6721">극장 검색하기</text><ellipse cx="206.7696" cy="519.0236" fill="#FEFECE" filter="url(#fncai43hbkq7s)" rx="39.7696" ry="14.5236" style="stroke: #A80036; stroke-width: 1.5;"/><text fill="#000000" font-family="sans-serif" font-size="14" lengthAdjust="spacingAndGlyphs" textLength="52" x="180.7696" y="523.6721">영화 추가하기</text><ellipse cx="206.7696" cy="583.0236" fill="#FEFECE" filter="url(#fncai43hbkq7s)" rx="39.7696" ry="14.5236" style="stroke: #A80036; stroke-width: 1.5;"/><text fill="#000000" font-family="sans-serif" font-size="14" lengthAdjust="spacingAndGlyphs" textLength="52" x="180.7696" y="587.6721">영화 상세보기</text><ellipse cx="206.7696" cy="647.0236" fill="#FEFECE" filter="url(#fncai43hbkq7s)" rx="39.7696" ry="14.5236" style="stroke: #A80036; stroke-width: 1.5;"/><text fill="#000000" font-family="sans-serif" font-size="14" lengthAdjust="spacingAndGlyphs" textLength="52" x="180.7696" y="651.6721">영화 검색하기</text><ellipse cx="206.7696" cy="245.0236" fill="#FEFECE" filter="url(#fncai43hbkq7s)" rx="39.7696" ry="14.5236" style="stroke: #A80036; stroke-width: 1.5;"/><text fill="#000000" font-family="sans-serif" font-size="14" lengthAdjust="spacingAndGlyphs" textLength="52" x="180.7696" y="249.6721">고객 검색하기</text><ellipse cx="206.7696" cy="181.0236" fill="#FEFECE" filter="url(#fncai43hbkq7s)" rx="39.7696" ry="14.5236" style="stroke: #A80036; stroke-width: 1.5;"/><text fill="#000000" font-family="sans-serif" font-size="14" lengthAdjust="spacingAndGlyphs" textLength="52" x="180.7696" y="185.6721">고객 등록하기</text><ellipse cx="207.1127" cy="117.0236" fill="#FEFECE" filter="url(#fncai43hbkq7s)" rx="34.1127" ry="14.5236" style="stroke: #A80036; stroke-width: 1.5;"/><text fill="#000000" font-family="sans-serif" font-size="14" lengthAdjust="spacingAndGlyphs" textLength="44" x="185.1127" y="121.6721">고객 로그인</text><ellipse cx="207.0833" cy="752.0236" fill="#FEFECE" filter="url(#fncai43hbkq7s)" rx="51.0833" ry="14.5236" style="stroke: #A80036; stroke-width: 1.5;"/><text fill="#000000" font-family="sans-serif" font-size="14" lengthAdjust="spacingAndGlyphs" textLength="68" x="173.0833" y="756.6721">상영시간 생성하기</text><ellipse cx="207.0833" cy="816.0236" fill="#FEFECE" filter="url(#fncai43hbkq7s)" rx="51.0833" ry="14.5236" style="stroke: #A80036; stroke-width: 1.5;"/><text fill="#000000" font-family="sans-serif" font-size="14" lengthAdjust="spacingAndGlyphs" textLength="68" x="173.0833" y="820.6721">상영시간 검색하기</text><ellipse cx="357.7696" cy="624.0236" fill="#FEFECE" filter="url(#fncai43hbkq7s)" rx="39.7696" ry="14.5236" style="stroke: #A80036; stroke-width: 1.5;"/><text fill="#000000" font-family="sans-serif" font-size="14" lengthAdjust="spacingAndGlyphs" textLength="52" x="331.7696" y="628.6721">티켓 구매하기</text><ellipse cx="357.7696" cy="688.0236" fill="#FEFECE" filter="url(#fncai43hbkq7s)" rx="39.7696" ry="14.5236" style="stroke: #A80036; stroke-width: 1.5;"/><text fill="#000000" font-family="sans-serif" font-size="14" lengthAdjust="spacingAndGlyphs" textLength="52" x="331.7696" y="692.6721">티켓 환불하기</text><ellipse cx="357.7696" cy="752.0236" fill="#FEFECE" filter="url(#fncai43hbkq7s)" rx="39.7696" ry="14.5236" style="stroke: #A80036; stroke-width: 1.5;"/><text fill="#000000" font-family="sans-serif" font-size="14" lengthAdjust="spacingAndGlyphs" textLength="52" x="331.7696" y="756.6721">티켓 생성하기</text><ellipse cx="357.7696" cy="816.0236" fill="#FEFECE" filter="url(#fncai43hbkq7s)" rx="39.7696" ry="14.5236" style="stroke: #A80036; stroke-width: 1.5;"/><text fill="#000000" font-family="sans-serif" font-size="14" lengthAdjust="spacingAndGlyphs" textLength="52" x="331.7696" y="820.6721">티켓 검색하기</text><!--MD5=[92848cbaf65985a669855153c5362c37]
entity customer--><ellipse cx="51" cy="118" fill="#FEFECE" filter="url(#fncai43hbkq7s)" rx="8" ry="8" style="stroke: #A80036; stroke-width: 1.5;"/><path d="M51,126 L51,153 M38,134 L64,134 M51,153 L38,168 M51,153 L64,168 " fill="none" filter="url(#fncai43hbkq7s)" style="stroke: #A80036; stroke-width: 1.5;"/><text fill="#000000" font-family="sans-serif" font-size="14" lengthAdjust="spacingAndGlyphs" textLength="66" x="18" y="186.4951">customer</text><!--MD5=[65a041cd1922b3dee6e64063a2213939]
entity administrator--><ellipse cx="51" cy="403" fill="#FEFECE" filter="url(#fncai43hbkq7s)" rx="8" ry="8" style="stroke: #A80036; stroke-width: 1.5;"/><path d="M51,411 L51,438 M38,419 L64,419 M51,438 L38,453 M51,438 L64,453 " fill="none" filter="url(#fncai43hbkq7s)" style="stroke: #A80036; stroke-width: 1.5;"/><text fill="#000000" font-family="sans-serif" font-size="14" lengthAdjust="spacingAndGlyphs" textLength="90" x="6" y="471.4951">administrator</text><!--MD5=[72a9586c6036bc828fb9ec987b717d65]
entity PaymentGateway--><rect fill="#FEFECE" filter="url(#fncai43hbkq7s)" height="36.2969" style="stroke: #000000; stroke-width: 1.5;" width="139" x="458" y="638"/><text fill="#000000" font-family="sans-serif" font-size="14" lengthAdjust="spacingAndGlyphs" textLength="119" x="468" y="660.9951">PaymentGateway</text><!--MD5=[36e059aa8f4996d8e6b93119626b430a]
link administrator to AddTheaters--><path d="M91.64,393.45 C96.89,389.24 102.4,385.3 108,382 C126.05,371.38 148.07,363.78 166.66,358.66 " fill="none" id="administrator-&gt;AddTheaters" style="stroke: #A80036; stroke-width: 1.0;"/><polygon fill="#A80036" points="171.81,357.28,162.0796,355.7573,166.9819,358.5799,164.1594,363.4822,171.81,357.28" style="stroke: #A80036; stroke-width: 1.0;"/><!--MD5=[0e2a2f74bdb85bcbfec930b1f3b486db]
link administrator to AddMovies--><path d="M96.13,458.36 C123.13,473.26 156.76,491.82 179.66,504.46 " fill="none" id="administrator-&gt;AddMovies" style="stroke: #A80036; stroke-width: 1.0;"/><polygon fill="#A80036" points="184.09,506.9,178.1455,499.0474,179.7132,504.4827,174.2779,506.0504,184.09,506.9" style="stroke: #A80036; stroke-width: 1.0;"/><!--MD5=[12ae7ae75e14e7776ae623974e89c69e]
link administrator to SearchCustomers--><path d="M66.34,393.23 C75.83,369.92 89.87,341.03 108,319 C128.36,294.26 158.6,273.06 180.09,259.77 " fill="none" id="administrator-&gt;SearchCustomers" style="stroke: #A80036; stroke-width: 1.0;"/><polygon fill="#A80036" points="184.54,257.06,174.7724,258.3227,180.269,259.6597,178.932,265.1563,184.54,257.06" style="stroke: #A80036; stroke-width: 1.0;"/><!--MD5=[64442fded180a1ec06a8f3436b32a6c2]
link administrator to CreateShowtimes--><path d="M52.98,474.86 C55.98,526.17 67.24,615.08 108,678 C124.77,703.89 153.9,724.16 176.05,736.88 " fill="none" id="administrator-&gt;CreateShowtimes" style="stroke: #A80036; stroke-width: 1.0;"/><polygon fill="#A80036" points="180.66,739.48,174.7966,731.5667,176.3083,737.0178,170.8571,738.5295,180.66,739.48" style="stroke: #A80036; stroke-width: 1.0;"/><!--MD5=[26c7284ebfdaacf56a6eac7c15f3b8a5]
link customer to RegisterCustomer--><path d="M84.28,155.71 C108.35,160.71 141.32,167.56 166.88,172.87 " fill="none" id="customer-&gt;RegisterCustomer" style="stroke: #A80036; stroke-width: 1.0;"/><polygon fill="#A80036" points="171.89,173.91,163.8876,168.1687,166.9938,172.8965,162.266,176.0027,171.89,173.91" style="stroke: #A80036; stroke-width: 1.0;"/><!--MD5=[aaaa75a7407c0d5c0fadb0ae1a78209e]
link customer to LoginCustomer--><path d="M84.28,142.29 C109.67,137.02 144.98,129.68 171.03,124.27 " fill="none" id="customer-&gt;LoginCustomer" style="stroke: #A80036; stroke-width: 1.0;"/><polygon fill="#A80036" points="176.11,123.21,166.486,121.1173,171.2138,124.2235,168.1076,128.9513,176.11,123.21" style="stroke: #A80036; stroke-width: 1.0;"/><!--MD5=[ab03bc895fc1d2fe1b22ae71ecaf8e3f]
link PurchaseTickets to PaymentGateway--><path d="M393.71,630.63 C410.92,633.92 432.39,638.02 453.02,641.96 " fill="none" id="PurchaseTickets-&gt;PaymentGateway" style="stroke: #A80036; stroke-width: 1.0; stroke-dasharray: 7.0,7.0;"/><polygon fill="#A80036" points="457.97,642.91,449.8692,637.3085,453.0569,641.9817,448.3838,645.1694,457.97,642.91" style="stroke: #A80036; stroke-width: 1.0;"/><!--MD5=[e68f44544e5478959c1949a643b083a2]
link RefundTickets to PaymentGateway--><path d="M393.71,681.37 C410.92,678.08 432.39,673.98 453.02,670.04 " fill="none" id="RefundTickets-&gt;PaymentGateway" style="stroke: #A80036; stroke-width: 1.0; stroke-dasharray: 7.0,7.0;"/><polygon fill="#A80036" points="457.97,669.09,448.3838,666.8306,453.0569,670.0183,449.8692,674.6915,457.97,669.09" style="stroke: #A80036; stroke-width: 1.0;"/><!--MD5=[d27f787dbc340e83d2e320a4b7905228]
link CreateShowtimes to GenerateTickets--><path d="M258.03,752 C275.65,752 295.33,752 312.47,752 " fill="none" id="CreateShowtimes-&gt;GenerateTickets" style="stroke: #A80036; stroke-width: 1.0; stroke-dasharray: 7.0,7.0;"/><polygon fill="#A80036" points="317.7,752,308.7,748,312.7,752,308.7,756,317.7,752" style="stroke: #A80036; stroke-width: 1.0;"/><!--MD5=[c52ccef45734e6a4e1584337cb40d05b]
@startuml
left to right direction
actor customer
actor administrator
rectangle PaymentGateway

package "Movie Booking System" as mbs {
    package theaters {
        usecase "극장 추가하기" as AddTheaters
        usecase "극장 검색하기" as SearchTheaters
    }

    package movies {
        usecase "영화 추가하기" as AddMovies
        usecase "영화 상세보기" as MovieDetails
        usecase "영화 검색하기" as SearchMovies
    }

    package customers {
        usecase "고객 검색하기" as SearchCustomers
        usecase "고객 등록하기" as RegisterCustomer
        usecase "고객 로그인" as LoginCustomer

    }

    package showtimes {
        usecase "상영시간 생성하기" as CreateShowtimes
        usecase "상영시간 검색하기" as SearchShowtimes
    }

    package tickets {
        usecase "티켓 구매하기" as PurchaseTickets
        usecase "티켓 환불하기" as RefundTickets
        usecase "티켓 생성하기" as GenerateTickets
        usecase "티켓 검색하기" as SearchTickets
    }
}

administrator - -> AddTheaters
administrator - -> AddMovies
administrator - -> SearchCustomers
administrator - -> CreateShowtimes

customer - -> RegisterCustomer
customer - -> LoginCustomer

PurchaseTickets ..> PaymentGateway
RefundTickets ..> PaymentGateway
CreateShowtimes ..> GenerateTickets

@enduml

PlantUML version 1.2020.02(Sun Mar 01 10:22:07 UTC 2020)
(GPL source distribution)
Java Runtime: OpenJDK Runtime Environment
JVM: OpenJDK 64-Bit Server VM
Java Version: 17.0.15+6-Debian-1deb12u1
Operating System: Linux
Default Encoding: UTF-8
Language: ko
Country: KR
--></g></svg>