<?xml version="1.0" encoding="UTF-8" standalone="no"?><svg xmlns="http://www.w3.org/2000/svg" xmlns:xlink="http://www.w3.org/1999/xlink" contentScriptType="application/ecmascript" contentStyleType="text/css" height="540px" preserveAspectRatio="none" style="width:338px;height:540px;" version="1.1" viewBox="0 0 338 540" width="338px" zoomAndPan="magnify"><defs><filter height="300%" id="fpkn2g7x1eefw" width="300%" x="-1" y="-1"><feGaussianBlur result="blurOut" stdDeviation="2.0"/><feColorMatrix in="blurOut" result="blurOut2" type="matrix" values="0 0 0 0 0 0 0 0 0 0 0 0 0 0 0 0 0 0 .4 0"/><feOffset dx="4.0" dy="4.0" in="blurOut2" result="blurOut3"/><feBlend in="SourceGraphic" in2="blurOut3" mode="normal"/></filter></defs><g><line style="stroke: #A80036; stroke-width: 1.0; stroke-dasharray: 5.0,5.0;" x1="32" x2="32" y1="86.2969" y2="452.7578"/><line style="stroke: #A80036; stroke-width: 1.0; stroke-dasharray: 5.0,5.0;" x1="244.5" x2="244.5" y1="86.2969" y2="452.7578"/><text fill="#000000" font-family="sans-serif" font-size="14" lengthAdjust="spacingAndGlyphs" textLength="43" x="8" y="82.9951">Admin</text><ellipse cx="32.5" cy="13" fill="#FEFECE" filter="url(#fpkn2g7x1eefw)" rx="8" ry="8" style="stroke: #A80036; stroke-width: 2.0;"/><path d="M32.5,21 L32.5,48 M19.5,29 L45.5,29 M32.5,48 L19.5,63 M32.5,48 L45.5,63 " fill="none" filter="url(#fpkn2g7x1eefw)" style="stroke: #A80036; stroke-width: 2.0;"/><text fill="#000000" font-family="sans-serif" font-size="14" lengthAdjust="spacingAndGlyphs" textLength="43" x="8" y="464.7529">Admin</text><ellipse cx="32.5" cy="478.0547" fill="#FEFECE" filter="url(#fpkn2g7x1eefw)" rx="8" ry="8" style="stroke: #A80036; stroke-width: 2.0;"/><path d="M32.5,486.0547 L32.5,513.0547 M19.5,494.0547 L45.5,494.0547 M32.5,513.0547 L19.5,528.0547 M32.5,513.0547 L45.5,528.0547 " fill="none" filter="url(#fpkn2g7x1eefw)" style="stroke: #A80036; stroke-width: 2.0;"/><rect fill="#FEFECE" filter="url(#fpkn2g7x1eefw)" height="30.2969" style="stroke: #A80036; stroke-width: 1.5;" width="170" x="157.5" y="51"/><text fill="#000000" font-family="sans-serif" font-size="14" lengthAdjust="spacingAndGlyphs" textLength="156" x="164.5" y="70.9951">Movie Booking System</text><rect fill="#FEFECE" filter="url(#fpkn2g7x1eefw)" height="30.2969" style="stroke: #A80036; stroke-width: 1.5;" width="170" x="157.5" y="451.7578"/><text fill="#000000" font-family="sans-serif" font-size="14" lengthAdjust="spacingAndGlyphs" textLength="156" x="164.5" y="471.7529">Movie Booking System</text><polygon fill="#A80036" points="232.5,113.4297,242.5,117.4297,232.5,121.4297,236.5,117.4297" style="stroke: #A80036; stroke-width: 1.0;"/><line style="stroke: #A80036; stroke-width: 1.0;" x1="32.5" x2="238.5" y1="117.4297" y2="117.4297"/><text fill="#000000" font-family="sans-serif" font-size="13" lengthAdjust="spacingAndGlyphs" textLength="108" x="39.5" y="112.3638">상영시간 생성 페이지를 방문</text><polygon fill="#A80036" points="43.5,142.5625,33.5,146.5625,43.5,150.5625,39.5,146.5625" style="stroke: #A80036; stroke-width: 1.0;"/><line style="stroke: #A80036; stroke-width: 1.0; stroke-dasharray: 2.0,2.0;" x1="37.5" x2="243.5" y1="146.5625" y2="146.5625"/><text fill="#000000" font-family="sans-serif" font-size="13" lengthAdjust="spacingAndGlyphs" textLength="56" x="49.5" y="141.4966">영화 목록 제공</text><polygon fill="#A80036" points="232.5,171.6953,242.5,175.6953,232.5,179.6953,236.5,175.6953" style="stroke: #A80036; stroke-width: 1.0;"/><line style="stroke: #A80036; stroke-width: 1.0;" x1="32.5" x2="238.5" y1="175.6953" y2="175.6953"/><text fill="#000000" font-family="sans-serif" font-size="13" lengthAdjust="spacingAndGlyphs" textLength="36" x="39.5" y="170.6294">영화 선택</text><polygon fill="#A80036" points="43.5,200.8281,33.5,204.8281,43.5,208.8281,39.5,204.8281" style="stroke: #A80036; stroke-width: 1.0;"/><line style="stroke: #A80036; stroke-width: 1.0; stroke-dasharray: 2.0,2.0;" x1="37.5" x2="243.5" y1="204.8281" y2="204.8281"/><text fill="#000000" font-family="sans-serif" font-size="13" lengthAdjust="spacingAndGlyphs" textLength="56" x="49.5" y="199.7622">극장 목록 제공</text><polygon fill="#A80036" points="232.5,229.9609,242.5,233.9609,232.5,237.9609,236.5,233.9609" style="stroke: #A80036; stroke-width: 1.0;"/><line style="stroke: #A80036; stroke-width: 1.0;" x1="32.5" x2="238.5" y1="233.9609" y2="233.9609"/><text fill="#000000" font-family="sans-serif" font-size="13" lengthAdjust="spacingAndGlyphs" textLength="36" x="39.5" y="228.895">극장 선택</text><polygon fill="#A80036" points="43.5,259.0938,33.5,263.0938,43.5,267.0938,39.5,263.0938" style="stroke: #A80036; stroke-width: 1.0;"/><line style="stroke: #A80036; stroke-width: 1.0; stroke-dasharray: 2.0,2.0;" x1="37.5" x2="243.5" y1="263.0938" y2="263.0938"/><text fill="#000000" font-family="sans-serif" font-size="13" lengthAdjust="spacingAndGlyphs" textLength="72" x="49.5" y="258.0278">상영시간 목록 제공</text><line style="stroke: #A80036; stroke-width: 1.0;" x1="32.5" x2="74.5" y1="292.2266" y2="292.2266"/><line style="stroke: #A80036; stroke-width: 1.0;" x1="74.5" x2="74.5" y1="292.2266" y2="305.2266"/><line style="stroke: #A80036; stroke-width: 1.0;" x1="33.5" x2="74.5" y1="305.2266" y2="305.2266"/><polygon fill="#A80036" points="43.5,301.2266,33.5,305.2266,43.5,309.2266,39.5,305.2266" style="stroke: #A80036; stroke-width: 1.0;"/><text fill="#000000" font-family="sans-serif" font-size="13" lengthAdjust="spacingAndGlyphs" textLength="52" x="39.5" y="287.1606">상영시간 선택</text><polygon fill="#A80036" points="232.5,330.3594,242.5,334.3594,232.5,338.3594,236.5,334.3594" style="stroke: #A80036; stroke-width: 1.0;"/><line style="stroke: #A80036; stroke-width: 1.0;" x1="32.5" x2="238.5" y1="334.3594" y2="334.3594"/><text fill="#000000" font-family="sans-serif" font-size="13" lengthAdjust="spacingAndGlyphs" textLength="72" x="39.5" y="329.2935">상영시간 등록 요청</text><line style="stroke: #A80036; stroke-width: 1.0;" x1="244.5" x2="286.5" y1="363.4922" y2="363.4922"/><line style="stroke: #A80036; stroke-width: 1.0;" x1="286.5" x2="286.5" y1="363.4922" y2="376.4922"/><line style="stroke: #A80036; stroke-width: 1.0;" x1="245.5" x2="286.5" y1="376.4922" y2="376.4922"/><polygon fill="#A80036" points="255.5,372.4922,245.5,376.4922,255.5,380.4922,251.5,376.4922" style="stroke: #A80036; stroke-width: 1.0;"/><text fill="#000000" font-family="sans-serif" font-size="13" lengthAdjust="spacingAndGlyphs" textLength="72" x="251.5" y="358.4263">상영시간 검증 실패</text><polygon fill="#A80036" points="43.5,401.625,33.5,405.625,43.5,409.625,39.5,405.625" style="stroke: #A80036; stroke-width: 1.0;"/><line style="stroke: #A80036; stroke-width: 1.0; stroke-dasharray: 2.0,2.0;" x1="37.5" x2="243.5" y1="405.625" y2="405.625"/><text fill="#000000" font-family="sans-serif" font-size="13" lengthAdjust="spacingAndGlyphs" textLength="188" x="49.5" y="400.5591">상영시간 등록 실패 및 겹치는 상영시간 정보 표시</text><polygon fill="#A80036" points="43.5,430.7578,33.5,434.7578,43.5,438.7578,39.5,434.7578" style="stroke: #A80036; stroke-width: 1.0;"/><line style="stroke: #A80036; stroke-width: 1.0; stroke-dasharray: 2.0,2.0;" x1="37.5" x2="243.5" y1="434.7578" y2="434.7578"/><text fill="#000000" font-family="sans-serif" font-size="13" lengthAdjust="spacingAndGlyphs" textLength="178" x="49.5" y="429.6919">상영시간 목록 제공 (기본 흐름 5단계로 이동)</text><!--MD5=[7565ee59edf217d6f5935e47749a2dc3]
@startuml
actor Admin
participant "Movie Booking System" as mbs

Admin -> mbs:  상영시간 생성 페이지를 방문
Admin <- - mbs:  영화 목록 제공

Admin -> mbs:  영화 선택
Admin <- - mbs: 극장 목록 제공

Admin -> mbs:  극장 선택
Admin <- - mbs: 상영시간 목록 제공

Admin -> Admin:  상영시간 선택
Admin -> mbs:  상영시간 등록 요청

mbs -> mbs:  상영시간 검증 실패

Admin <- - mbs: 상영시간 등록 실패 및 겹치는 상영시간 정보 표시
Admin <- - mbs: 상영시간 목록 제공 (기본 흐름 5단계로 이동)

@enduml

PlantUML version 1.2020.02(Sun Mar 01 10:22:07 UTC 2020)
(GPL source distribution)
Java Runtime: OpenJDK Runtime Environment
JVM: OpenJDK 64-Bit Server VM
Java Version: 17.0.14+7-Debian-1deb12u1
Operating System: Linux
Default Encoding: UTF-8
Language: en
Country: null
--></g></svg>