<?xml version="1.0" encoding="UTF-8" standalone="no"?><svg xmlns="http://www.w3.org/2000/svg" xmlns:xlink="http://www.w3.org/1999/xlink" contentScriptType="application/ecmascript" contentStyleType="text/css" height="776px" preserveAspectRatio="none" style="width:726px;height:776px;" version="1.1" viewBox="0 0 726 776" width="726px" zoomAndPan="magnify"><defs><filter height="300%" id="f520ax6ia9uqg" width="300%" x="-1" y="-1"><feGaussianBlur result="blurOut" stdDeviation="2.0"/><feColorMatrix in="blurOut" result="blurOut2" type="matrix" values="0 0 0 0 0 0 0 0 0 0 0 0 0 0 0 0 0 0 .4 0"/><feOffset dx="4.0" dy="4.0" in="blurOut2" result="blurOut3"/><feBlend in="SourceGraphic" in2="blurOut3" mode="normal"/></filter></defs><g><!--MD5=[6c2d02fe013167922f007c9285828968]
cluster mbs--><polygon fill="#FFFFFF" filter="url(#f520ax6ia9uqg)" points="116,63.83,299,63.83,306,86.1269,556,86.1269,556,668.83,116,668.83,116,63.83" style="stroke: #000000; stroke-width: 1.5;"/><line style="stroke: #000000; stroke-width: 1.5;" x1="116" x2="306" y1="86.1269" y2="86.1269"/><text fill="#000000" font-family="sans-serif" font-size="14" font-weight="bold" lengthAdjust="spacingAndGlyphs" textLength="177" x="120" y="78.8251">Movie Booking System</text><!--MD5=[c7109cc79c436e4de7b73789f25103a4]
cluster theaters--><polygon fill="#FFFFFF" filter="url(#f520ax6ia9uqg)" points="153,343.83,226,343.83,233,366.1269,312,366.1269,312,424.83,153,424.83,153,343.83" style="stroke: #000000; stroke-width: 1.5;"/><line style="stroke: #000000; stroke-width: 1.5;" x1="153" x2="233" y1="366.1269" y2="366.1269"/><text fill="#000000" font-family="sans-serif" font-size="14" font-weight="bold" lengthAdjust="spacingAndGlyphs" textLength="67" x="157" y="358.8251">theaters</text><!--MD5=[b1e937784b653f6ad52390770b5ca1d7]
cluster movies--><polygon fill="#FFFFFF" filter="url(#f520ax6ia9uqg)" points="150.5,106.83,212.5,106.83,219.5,129.1269,314.5,129.1269,314.5,319.83,150.5,319.83,150.5,106.83" style="stroke: #000000; stroke-width: 1.5;"/><line style="stroke: #000000; stroke-width: 1.5;" x1="150.5" x2="219.5" y1="129.1269" y2="129.1269"/><text fill="#000000" font-family="sans-serif" font-size="14" font-weight="bold" lengthAdjust="spacingAndGlyphs" textLength="56" x="154.5" y="121.8251">movies</text><!--MD5=[55c1321e5e660f70fb77e9cf74eefc72]
cluster customers--><polygon fill="#FFFFFF" filter="url(#f520ax6ia9uqg)" points="147,559.83,237,559.83,244,582.1269,318,582.1269,318,644.83,147,644.83,147,559.83" style="stroke: #000000; stroke-width: 1.5;"/><line style="stroke: #000000; stroke-width: 1.5;" x1="147" x2="244" y1="582.1269" y2="582.1269"/><text fill="#000000" font-family="sans-serif" font-size="14" font-weight="bold" lengthAdjust="spacingAndGlyphs" textLength="84" x="151" y="574.8251">customers</text><!--MD5=[dffa5d117727925aa4668bf20905af82]
cluster showtimes--><polygon fill="#FFFFFF" filter="url(#f520ax6ia9uqg)" points="140,448.83,232,448.83,239,471.1269,325,471.1269,325,535.83,140,535.83,140,448.83" style="stroke: #000000; stroke-width: 1.5;"/><line style="stroke: #000000; stroke-width: 1.5;" x1="140" x2="239" y1="471.1269" y2="471.1269"/><text fill="#000000" font-family="sans-serif" font-size="14" font-weight="bold" lengthAdjust="spacingAndGlyphs" textLength="86" x="144" y="463.8251">showtimes</text><!--MD5=[0c64180b40cb6a42c012370e26047e31]
cluster tickets--><polygon fill="#FFFFFF" filter="url(#f520ax6ia9uqg)" points="353,317.83,412,317.83,419,340.1269,532,340.1269,532,603.83,353,603.83,353,317.83" style="stroke: #000000; stroke-width: 1.5;"/><line style="stroke: #000000; stroke-width: 1.5;" x1="353" x2="419" y1="340.1269" y2="340.1269"/><text fill="#000000" font-family="sans-serif" font-size="14" font-weight="bold" lengthAdjust="spacingAndGlyphs" textLength="53" x="357" y="332.8251">tickets</text><ellipse cx="232.3339" cy="393.8968" fill="#FEFECE" filter="url(#f520ax6ia9uqg)" rx="63.3339" ry="15.0668" style="stroke: #A80036; stroke-width: 1.5;"/><text fill="#000000" font-family="sans-serif" font-size="14" lengthAdjust="spacingAndGlyphs" textLength="89" x="187.8339" y="398.5452">AddTheaters</text><ellipse cx="232.533" cy="288.8536" fill="#FEFECE" filter="url(#f520ax6ia9uqg)" rx="56.033" ry="14.5236" style="stroke: #A80036; stroke-width: 1.5;"/><text fill="#000000" font-family="sans-serif" font-size="14" lengthAdjust="spacingAndGlyphs" textLength="75" x="195.033" y="293.5021">AddMovies</text><ellipse cx="232.6001" cy="223.75" fill="#FEFECE" filter="url(#f520ax6ia9uqg)" rx="62.6001" ry="14.92" style="stroke: #A80036; stroke-width: 1.5;"/><text fill="#000000" font-family="sans-serif" font-size="14" lengthAdjust="spacingAndGlyphs" textLength="87" x="189.1001" y="228.3985">MovieDetails</text><ellipse cx="232.4597" cy="157.9219" fill="#FEFECE" filter="url(#f520ax6ia9uqg)" rx="65.9597" ry="15.5919" style="stroke: #A80036; stroke-width: 1.5;"/><text fill="#000000" font-family="sans-serif" font-size="14" lengthAdjust="spacingAndGlyphs" textLength="96" x="184.4597" y="162.5704">SearchMovies</text><ellipse cx="232.4543" cy="611.6209" fill="#FEFECE" filter="url(#f520ax6ia9uqg)" rx="69.4543" ry="16.2909" style="stroke: #A80036; stroke-width: 1.5;"/><text fill="#000000" font-family="sans-serif" font-size="14" lengthAdjust="spacingAndGlyphs" textLength="105" x="179.9543" y="616.2693">FindCustomers</text><ellipse cx="232.3548" cy="502.001" fill="#FEFECE" filter="url(#f520ax6ia9uqg)" rx="76.3548" ry="17.671" style="stroke: #A80036; stroke-width: 1.5;"/><text fill="#000000" font-family="sans-serif" font-size="14" lengthAdjust="spacingAndGlyphs" textLength="122" x="171.3548" y="506.6494">CreateShowtimes</text><ellipse cx="442.4711" cy="570.9242" fill="#FEFECE" filter="url(#f520ax6ia9uqg)" rx="73.4711" ry="17.0942" style="stroke: #A80036; stroke-width: 1.5;"/><text fill="#000000" font-family="sans-serif" font-size="14" lengthAdjust="spacingAndGlyphs" textLength="115" x="384.9711" y="575.5727">PurchaseTickets</text><ellipse cx="442.4975" cy="433.7295" fill="#FEFECE" filter="url(#f520ax6ia9uqg)" rx="67.4975" ry="15.8995" style="stroke: #A80036; stroke-width: 1.5;"/><text fill="#000000" font-family="sans-serif" font-size="14" lengthAdjust="spacingAndGlyphs" textLength="100" x="392.4975" y="438.3779">RefundTickets</text><ellipse cx="442.7401" cy="367.8536" fill="#FEFECE" filter="url(#f520ax6ia9uqg)" rx="56.7401" ry="14.5236" style="stroke: #A80036; stroke-width: 1.5;"/><text fill="#000000" font-family="sans-serif" font-size="14" lengthAdjust="spacingAndGlyphs" textLength="76" x="404.7401" y="372.5021">BuyTickets</text><ellipse cx="442.4711" cy="501.9242" fill="#FEFECE" filter="url(#f520ax6ia9uqg)" rx="73.4711" ry="17.0942" style="stroke: #A80036; stroke-width: 1.5;"/><text fill="#000000" font-family="sans-serif" font-size="14" lengthAdjust="spacingAndGlyphs" textLength="115" x="384.9711" y="506.5727">GenerateTickets</text><!--MD5=[92848cbaf65985a669855153c5362c37]
entity customer--><ellipse cx="51" cy="84.83" fill="#FEFECE" filter="url(#f520ax6ia9uqg)" rx="8" ry="8" style="stroke: #A80036; stroke-width: 1.5;"/><path d="M51,92.83 L51,119.83 M38,100.83 L64,100.83 M51,119.83 L38,134.83 M51,119.83 L64,134.83 " fill="none" filter="url(#f520ax6ia9uqg)" style="stroke: #A80036; stroke-width: 1.5;"/><text fill="#000000" font-family="sans-serif" font-size="14" lengthAdjust="spacingAndGlyphs" textLength="66" x="18" y="153.3251">customer</text><!--MD5=[65a041cd1922b3dee6e64063a2213939]
entity administrator--><ellipse cx="51" cy="525.83" fill="#FEFECE" filter="url(#f520ax6ia9uqg)" rx="8" ry="8" style="stroke: #A80036; stroke-width: 1.5;"/><path d="M51,533.83 L51,560.83 M38,541.83 L64,541.83 M51,560.83 L38,575.83 M51,560.83 L64,575.83 " fill="none" filter="url(#f520ax6ia9uqg)" style="stroke: #A80036; stroke-width: 1.5;"/><text fill="#000000" font-family="sans-serif" font-size="14" lengthAdjust="spacingAndGlyphs" textLength="90" x="6" y="594.3251">administrator</text><!--MD5=[72a9586c6036bc828fb9ec987b717d65]
entity PaymentGateway--><rect fill="#FEFECE" filter="url(#f520ax6ia9uqg)" height="36.2969" style="stroke: #A80036; stroke-width: 1.5;" width="139" x="576" y="484.83"/><rect fill="#FEFECE" height="5" style="stroke: #A80036; stroke-width: 1.5;" width="10" x="571" y="489.83"/><rect fill="#FEFECE" height="5" style="stroke: #A80036; stroke-width: 1.5;" width="10" x="571" y="511.1269"/><text fill="#000000" font-family="sans-serif" font-size="14" lengthAdjust="spacingAndGlyphs" textLength="119" x="586" y="507.8251">PaymentGateway</text><!--MD5=[36e059aa8f4996d8e6b93119626b430a]
link administrator to AddTheaters--><path d="M72.12,516.26 C81.51,499.95 93.78,481.75 108,467.83 C133.82,442.57 169.84,422.25 196.32,409.34 " fill="none" id="administrator-&gt;AddTheaters" style="stroke: #A80036; stroke-width: 1.0;"/><polygon fill="#A80036" points="201.15,407.02,191.306,407.3288,196.6469,409.1929,194.7827,414.5338,201.15,407.02" style="stroke: #A80036; stroke-width: 1.0;"/><!--MD5=[0e2a2f74bdb85bcbfec930b1f3b486db]
link administrator to AddMovies--><path d="M55.05,516.16 C60.06,473.98 73.25,407.97 108,362.83 C129.98,334.28 166.37,314.42 193.97,302.51 " fill="none" id="administrator-&gt;AddMovies" style="stroke: #A80036; stroke-width: 1.0;"/><polygon fill="#A80036" points="198.66,300.53,188.8131,300.336,194.0518,302.4703,191.9175,307.7091,198.66,300.53" style="stroke: #A80036; stroke-width: 1.0;"/><!--MD5=[7d678b2d92987fbd8efd1b913591217b]
link administrator to FindCustomers--><path d="M96.37,570.43 C123.05,578.6 157,589 184.19,597.34 " fill="none" id="administrator-&gt;FindCustomers" style="stroke: #A80036; stroke-width: 1.0;"/><polygon fill="#A80036" points="189.18,598.87,181.7584,592.3954,184.402,597.3966,179.4009,600.0402,189.18,598.87" style="stroke: #A80036; stroke-width: 1.0;"/><!--MD5=[64442fded180a1ec06a8f3436b32a6c2]
link administrator to CreateShowtimes--><path d="M96.37,543.24 C122.08,535.36 154.52,525.42 181.17,517.25 " fill="none" id="administrator-&gt;CreateShowtimes" style="stroke: #A80036; stroke-width: 1.0;"/><polygon fill="#A80036" points="186.08,515.75,176.3051,514.5449,181.2968,517.2064,178.6353,522.198,186.08,515.75" style="stroke: #A80036; stroke-width: 1.0;"/><!--MD5=[d7a12c9cbe511c047719cb63926c7a9a]
link administrator to PurchaseTickets--><path d="M54.71,597.59 C59.48,633.27 72.54,683.16 108,707.83 C190.09,764.94 242.98,751.37 333,707.83 C382.72,683.78 416.6,624.66 432.02,592.5 " fill="none" id="administrator-&gt;PurchaseTickets" style="stroke: #A80036; stroke-width: 1.0;"/><polygon fill="#A80036" points="434.16,587.96,426.7115,594.4036,432.0331,592.4851,433.9516,597.8067,434.16,587.96" style="stroke: #A80036; stroke-width: 1.0;"/><!--MD5=[8d67b7b94ebaab215267248494231948]
link administrator to RefundTickets--><path d="M67.17,597.47 C76.13,615.38 89.43,634.64 108,644.83 C195.66,692.95 259.95,713.12 333,644.83 C361.96,617.76 320.87,498.29 345,466.83 C353.45,455.82 365.76,448.46 378.79,443.54 " fill="none" id="administrator-&gt;RefundTickets" style="stroke: #A80036; stroke-width: 1.0;"/><polygon fill="#A80036" points="383.62,441.84,373.8014,441.0681,378.9058,443.5063,376.4676,448.6107,383.62,441.84" style="stroke: #A80036; stroke-width: 1.0;"/><!--MD5=[293b0fc3d89600cf9a53bc45609a46ca]
link customer to MovieDetails--><path d="M74.87,156.46 C83.75,169.09 94.95,181.99 108,190.83 C126.63,203.45 149.87,211.25 171.15,216.07 " fill="none" id="customer-&gt;MovieDetails" style="stroke: #A80036; stroke-width: 1.0;"/><polygon fill="#A80036" points="176.22,217.17,168.2695,211.3571,171.3331,216.1126,166.5776,219.1762,176.22,217.17" style="stroke: #A80036; stroke-width: 1.0;"/><!--MD5=[de5cce4b6c49eebdce0f089267f679c3]
link customer to SearchMovies--><path d="M84.09,123.34 C110.8,129.59 149.31,138.6 180.28,145.85 " fill="none" id="customer-&gt;SearchMovies" style="stroke: #A80036; stroke-width: 1.0;"/><polygon fill="#A80036" points="185.18,146.99,177.3315,141.0401,180.3122,145.848,175.5043,148.8286,185.18,146.99" style="stroke: #A80036; stroke-width: 1.0;"/><!--MD5=[be8c581e7f8a1c7893702341470acb87]
link customer to BuyTickets--><path d="M75.44,75.04 C84.11,63.8 95.05,53 108,46.83 C198.28,3.83 251.75,-11.47 333,46.83 C433.7,119.1 442.14,289.86 441.97,348.03 " fill="none" id="customer-&gt;BuyTickets" style="stroke: #A80036; stroke-width: 1.0;"/><polygon fill="#A80036" points="441.93,353.3,446.007,344.3346,441.9729,348.3002,438.0073,344.266,441.93,353.3" style="stroke: #A80036; stroke-width: 1.0;"/><!--MD5=[fa26d82864790c4e24cf6facdb769b0d]
link customer to RefundTickets--><path d="M84.34,104.74 C142.96,86.92 266.8,60.17 333,125.83 C354.64,147.29 326.85,375.35 345,399.83 C353.48,411.27 366.11,418.88 379.46,423.94 " fill="none" id="customer-&gt;RefundTickets" style="stroke: #A80036; stroke-width: 1.0;"/><polygon fill="#A80036" points="384.4,425.68,377.2358,418.9217,379.6829,424.0219,374.5828,426.469,384.4,425.68" style="stroke: #A80036; stroke-width: 1.0;"/><!--MD5=[ab03bc895fc1d2fe1b22ae71ecaf8e3f]
link PurchaseTickets to PaymentGateway--><path d="M491.66,558.11 C513.86,551.92 540.45,544.05 564,535.83 C575.11,531.96 586.9,527.38 597.95,522.9 " fill="none" id="PurchaseTickets-&gt;PaymentGateway" style="stroke: #A80036; stroke-width: 1.0; stroke-dasharray: 7.0,7.0;"/><polygon fill="#A80036" points="602.63,520.98,592.786,520.6713,597.9995,522.8665,595.8044,528.08,602.63,520.98" style="stroke: #A80036; stroke-width: 1.0;"/><!--MD5=[e68f44544e5478959c1949a643b083a2]
link RefundTickets to PaymentGateway--><path d="M490.94,445.03 C513.35,450.78 540.31,458.35 564,466.83 C576.72,471.39 590.25,477.08 602.5,482.59 " fill="none" id="RefundTickets-&gt;PaymentGateway" style="stroke: #A80036; stroke-width: 1.0; stroke-dasharray: 7.0,7.0;"/><polygon fill="#A80036" points="607.31,484.77,600.7719,477.4043,602.7582,482.701,597.4615,484.6872,607.31,484.77" style="stroke: #A80036; stroke-width: 1.0;"/><!--MD5=[d27f787dbc340e83d2e320a4b7905228]
link CreateShowtimes to GenerateTickets--><path d="M309.18,501.83 C327.02,501.83 346.06,501.83 363.98,501.83 " fill="none" id="CreateShowtimes-&gt;GenerateTickets" style="stroke: #A80036; stroke-width: 1.0; stroke-dasharray: 7.0,7.0;"/><polygon fill="#A80036" points="369,501.83,360,497.83,364,501.83,360,505.83,369,501.83" style="stroke: #A80036; stroke-width: 1.0;"/><!--MD5=[204b71e3bb64a63b8df9fc8e5e0e7eb2]
@startuml
left to right direction
actor customer
actor administrator
component PaymentGateway

package "Movie Booking System" as mbs {
    package theaters {
        usecase AddTheaters
    }

    package movies {
        usecase AddMovies
    usecase MovieDetails
    usecase SearchMovies
    }

    package customers {
        usecase FindCustomers
    }

    package showtimes {
        usecase CreateShowtimes
    }

    package tickets {
        usecase PurchaseTickets
        usecase RefundTickets
        usecase BuyTickets
        usecase GenerateTickets
    }
}

administrator - -> AddTheaters
administrator - -> AddMovies
administrator - -> FindCustomers
administrator - -> CreateShowtimes
administrator - -> PurchaseTickets
administrator - -> RefundTickets

customer - -> MovieDetails
customer - -> SearchMovies
customer - -> BuyTickets
customer - -> RefundTickets

PurchaseTickets ..> PaymentGateway
RefundTickets ..> PaymentGateway
CreateShowtimes ..> GenerateTickets

@enduml

PlantUML version 1.2020.02(Sun Mar 01 10:22:07 UTC 2020)
(GPL source distribution)
Java Runtime: OpenJDK Runtime Environment
JVM: OpenJDK 64-Bit Server VM
Java Version: 17.0.14+7-Debian-1deb12u1
Operating System: Linux
Default Encoding: UTF-8
Language: en
Country: null
--></g></svg>