<?xml version="1.0" encoding="UTF-8" standalone="no"?><svg xmlns="http://www.w3.org/2000/svg" xmlns:xlink="http://www.w3.org/1999/xlink" contentScriptType="application/ecmascript" contentStyleType="text/css" height="297px" preserveAspectRatio="none" style="width:278px;height:297px;" version="1.1" viewBox="0 0 278 297" width="278px" zoomAndPan="magnify"><defs><filter height="300%" id="f1t5uzplmbfq1u" width="300%" x="-1" y="-1"><feGaussianBlur result="blurOut" stdDeviation="2.0"/><feColorMatrix in="blurOut" result="blurOut2" type="matrix" values="0 0 0 0 0 0 0 0 0 0 0 0 0 0 0 0 0 0 .4 0"/><feOffset dx="4.0" dy="4.0" in="blurOut2" result="blurOut3"/><feBlend in="SourceGraphic" in2="blurOut3" mode="normal"/></filter></defs><g><rect fill="#FFFFFF" filter="url(#f1t5uzplmbfq1u)" height="90.2031" style="stroke: #000000; stroke-width: 2.0;" width="253" x="13" y="103.2969"/><rect fill="#FFFFFF" height="43.9375" style="stroke: none; stroke-width: 1.0;" width="253" x="13" y="149.5625"/><line style="stroke: #A80036; stroke-width: 1.0; stroke-dasharray: 5.0,5.0;" x1="47" x2="47" y1="86.2969" y2="210.5"/><line style="stroke: #A80036; stroke-width: 1.0; stroke-dasharray: 5.0,5.0;" x1="169" x2="169" y1="86.2969" y2="210.5"/><text fill="#000000" font-family="sans-serif" font-size="14" lengthAdjust="spacingAndGlyphs" textLength="43" x="23" y="82.9951">Admin</text><ellipse cx="47.5" cy="13" fill="#FEFECE" filter="url(#f1t5uzplmbfq1u)" rx="8" ry="8" style="stroke: #A80036; stroke-width: 2.0;"/><path d="M47.5,21 L47.5,48 M34.5,29 L60.5,29 M47.5,48 L34.5,63 M47.5,48 L60.5,63 " fill="none" filter="url(#f1t5uzplmbfq1u)" style="stroke: #A80036; stroke-width: 2.0;"/><text fill="#000000" font-family="sans-serif" font-size="14" lengthAdjust="spacingAndGlyphs" textLength="43" x="23" y="222.4951">Admin</text><ellipse cx="47.5" cy="235.7969" fill="#FEFECE" filter="url(#f1t5uzplmbfq1u)" rx="8" ry="8" style="stroke: #A80036; stroke-width: 2.0;"/><path d="M47.5,243.7969 L47.5,270.7969 M34.5,251.7969 L60.5,251.7969 M47.5,270.7969 L34.5,285.7969 M47.5,270.7969 L60.5,285.7969 " fill="none" filter="url(#f1t5uzplmbfq1u)" style="stroke: #A80036; stroke-width: 2.0;"/><rect fill="#FEFECE" filter="url(#f1t5uzplmbfq1u)" height="30.2969" style="stroke: #A80036; stroke-width: 1.5;" width="170" x="82" y="51"/><text fill="#000000" font-family="sans-serif" font-size="14" lengthAdjust="spacingAndGlyphs" textLength="156" x="89" y="70.9951">Movie Booking System</text><rect fill="#FEFECE" filter="url(#f1t5uzplmbfq1u)" height="30.2969" style="stroke: #A80036; stroke-width: 1.5;" width="170" x="82" y="209.5"/><text fill="#000000" font-family="sans-serif" font-size="14" lengthAdjust="spacingAndGlyphs" textLength="156" x="89" y="229.4951">Movie Booking System</text><path d="M13,103.2969 L77,103.2969 L77,110.2969 L67,120.2969 L13,120.2969 L13,103.2969 " fill="#EEEEEE" style="stroke: #000000; stroke-width: 1.0;"/><rect fill="none" height="90.2031" style="stroke: #000000; stroke-width: 2.0;" width="253" x="13" y="103.2969"/><text fill="#000000" font-family="sans-serif" font-size="13" font-weight="bold" lengthAdjust="spacingAndGlyphs" textLength="19" x="28" y="116.3638">alt</text><text fill="#000000" font-family="sans-serif" font-size="11" font-weight="bold" lengthAdjust="spacingAndGlyphs" textLength="78" x="92" y="115.5073">[successful]</text><polygon fill="#A80036" points="157,137.5625,167,141.5625,157,145.5625,161,141.5625" style="stroke: #A80036; stroke-width: 1.0;"/><line style="stroke: #A80036; stroke-width: 1.0;" x1="47.5" x2="163" y1="141.5625" y2="141.5625"/><text fill="#000000" font-family="sans-serif" font-size="13" lengthAdjust="spacingAndGlyphs" textLength="72" x="54.5" y="136.4966">상영시간 등록 성공</text><line style="stroke: #000000; stroke-width: 1.0; stroke-dasharray: 2.0,2.0;" x1="13" x2="266" y1="150.5625" y2="150.5625"/><text fill="#000000" font-family="sans-serif" font-size="11" font-weight="bold" lengthAdjust="spacingAndGlyphs" textLength="52" x="18" y="160.7729">[failure]</text><polygon fill="#A80036" points="157,181.5,167,185.5,157,189.5,161,185.5" style="stroke: #A80036; stroke-width: 1.0;"/><line style="stroke: #A80036; stroke-width: 1.0;" x1="47.5" x2="163" y1="185.5" y2="185.5"/><text fill="#000000" font-family="sans-serif" font-size="13" lengthAdjust="spacingAndGlyphs" textLength="72" x="54.5" y="180.4341">상영시간 등록 실패</text><!--MD5=[04ae576736542216c2634679168ec414]
@startuml
actor Admin
participant "Movie Booking System" as mbs

alt successful
    Admin -> mbs: 상영시간 등록 성공
else failure
    Admin -> mbs: 상영시간 등록 실패
end
@enduml

PlantUML version 1.2020.02(Sun Mar 01 10:22:07 UTC 2020)
(GPL source distribution)
Java Runtime: OpenJDK Runtime Environment
JVM: OpenJDK 64-Bit Server VM
Java Version: 17.0.14+7-Debian-1deb12u1
Operating System: Linux
Default Encoding: UTF-8
Language: en
Country: null
--></g></svg>