<?xml version="1.0" encoding="UTF-8" standalone="no"?><svg xmlns="http://www.w3.org/2000/svg" xmlns:xlink="http://www.w3.org/1999/xlink" contentScriptType="application/ecmascript" contentStyleType="text/css" height="879px" preserveAspectRatio="none" style="width:1158px;height:879px;" version="1.1" viewBox="0 0 1158 879" width="1158px" zoomAndPan="magnify"><defs><filter height="300%" id="f1gm3jvoj1s45g" width="300%" x="-1" y="-1"><feGaussianBlur result="blurOut" stdDeviation="2.0"/><feColorMatrix in="blurOut" result="blurOut2" type="matrix" values="0 0 0 0 0 0 0 0 0 0 0 0 0 0 0 0 0 0 .4 0"/><feOffset dx="4.0" dy="4.0" in="blurOut2" result="blurOut3"/><feBlend in="SourceGraphic" in2="blurOut3" mode="normal"/></filter></defs><g><line style="stroke: #A80036; stroke-width: 1.0; stroke-dasharray: 5.0,5.0;" x1="48" x2="48" y1="38.2969" y2="839.2813"/><line style="stroke: #A80036; stroke-width: 1.0; stroke-dasharray: 5.0,5.0;" x1="351" x2="351" y1="38.2969" y2="839.2813"/><line style="stroke: #A80036; stroke-width: 1.0; stroke-dasharray: 5.0,5.0;" x1="472.5" x2="472.5" y1="38.2969" y2="839.2813"/><line style="stroke: #A80036; stroke-width: 1.0; stroke-dasharray: 5.0,5.0;" x1="605.5" x2="605.5" y1="38.2969" y2="839.2813"/><line style="stroke: #A80036; stroke-width: 1.0; stroke-dasharray: 5.0,5.0;" x1="788.5" x2="788.5" y1="38.2969" y2="839.2813"/><rect fill="#FEFECE" filter="url(#f1gm3jvoj1s45g)" height="30.2969" style="stroke: #A80036; stroke-width: 1.5;" width="77" x="8" y="3"/><text fill="#000000" font-family="sans-serif" font-size="14" lengthAdjust="spacingAndGlyphs" textLength="63" x="15" y="22.9951">Frontend</text><rect fill="#FEFECE" filter="url(#f1gm3jvoj1s45g)" height="30.2969" style="stroke: #A80036; stroke-width: 1.5;" width="77" x="8" y="838.2813"/><text fill="#000000" font-family="sans-serif" font-size="14" lengthAdjust="spacingAndGlyphs" textLength="63" x="15" y="858.2764">Frontend</text><rect fill="#FEFECE" filter="url(#f1gm3jvoj1s45g)" height="30.2969" style="stroke: #A80036; stroke-width: 1.5;" width="75" x="312" y="3"/><text fill="#000000" font-family="sans-serif" font-size="14" lengthAdjust="spacingAndGlyphs" textLength="61" x="319" y="22.9951">Backend</text><rect fill="#FEFECE" filter="url(#f1gm3jvoj1s45g)" height="30.2969" style="stroke: #A80036; stroke-width: 1.5;" width="75" x="312" y="838.2813"/><text fill="#000000" font-family="sans-serif" font-size="14" lengthAdjust="spacingAndGlyphs" textLength="61" x="319" y="858.2764">Backend</text><rect fill="#FEFECE" filter="url(#f1gm3jvoj1s45g)" height="30.2969" style="stroke: #A80036; stroke-width: 1.5;" width="112" x="414.5" y="3"/><text fill="#000000" font-family="sans-serif" font-size="14" lengthAdjust="spacingAndGlyphs" textLength="98" x="421.5" y="22.9951">MoviesService</text><rect fill="#FEFECE" filter="url(#f1gm3jvoj1s45g)" height="30.2969" style="stroke: #A80036; stroke-width: 1.5;" width="112" x="414.5" y="838.2813"/><text fill="#000000" font-family="sans-serif" font-size="14" lengthAdjust="spacingAndGlyphs" textLength="98" x="421.5" y="858.2764">MoviesService</text><rect fill="#FEFECE" filter="url(#f1gm3jvoj1s45g)" height="30.2969" style="stroke: #A80036; stroke-width: 1.5;" width="126" x="540.5" y="3"/><text fill="#000000" font-family="sans-serif" font-size="14" lengthAdjust="spacingAndGlyphs" textLength="112" x="547.5" y="22.9951">TheatersService</text><rect fill="#FEFECE" filter="url(#f1gm3jvoj1s45g)" height="30.2969" style="stroke: #A80036; stroke-width: 1.5;" width="126" x="540.5" y="838.2813"/><text fill="#000000" font-family="sans-serif" font-size="14" lengthAdjust="spacingAndGlyphs" textLength="112" x="547.5" y="858.2764">TheatersService</text><rect fill="#FEFECE" filter="url(#f1gm3jvoj1s45g)" height="30.2969" style="stroke: #A80036; stroke-width: 1.5;" width="140" x="716.5" y="3"/><text fill="#000000" font-family="sans-serif" font-size="14" lengthAdjust="spacingAndGlyphs" textLength="126" x="723.5" y="22.9951">ShowtimesService</text><rect fill="#FEFECE" filter="url(#f1gm3jvoj1s45g)" height="30.2969" style="stroke: #A80036; stroke-width: 1.5;" width="140" x="716.5" y="838.2813"/><text fill="#000000" font-family="sans-serif" font-size="14" lengthAdjust="spacingAndGlyphs" textLength="126" x="723.5" y="858.2764">ShowtimesService</text><polygon fill="#A80036" points="339.5,80.5625,349.5,84.5625,339.5,88.5625,343.5,84.5625" style="stroke: #A80036; stroke-width: 1.0;"/><line style="stroke: #A80036; stroke-width: 1.0;" x1="48.5" x2="345.5" y1="84.5625" y2="84.5625"/><text fill="#000000" font-family="sans-serif" font-size="13" lengthAdjust="spacingAndGlyphs" textLength="117" x="55.5" y="64.3638">Request movie list</text><text fill="#000000" font-family="sans-serif" font-size="13" lengthAdjust="spacingAndGlyphs" textLength="201" x="55.5" y="79.4966">GET /showtime-creation/movies</text><polygon fill="#A80036" points="460.5,109.6953,470.5,113.6953,460.5,117.6953,464.5,113.6953" style="stroke: #A80036; stroke-width: 1.0;"/><line style="stroke: #A80036; stroke-width: 1.0;" x1="351.5" x2="466.5" y1="113.6953" y2="113.6953"/><text fill="#000000" font-family="sans-serif" font-size="13" lengthAdjust="spacingAndGlyphs" textLength="97" x="358.5" y="108.6294">searchMovies()</text><polygon fill="#A80036" points="362.5,138.8281,352.5,142.8281,362.5,146.8281,358.5,142.8281" style="stroke: #A80036; stroke-width: 1.0;"/><line style="stroke: #A80036; stroke-width: 1.0; stroke-dasharray: 2.0,2.0;" x1="356.5" x2="471.5" y1="142.8281" y2="142.8281"/><text fill="#000000" font-family="sans-serif" font-size="13" lengthAdjust="spacingAndGlyphs" textLength="56" x="368.5" y="137.7622">movies[]</text><polygon fill="#A80036" points="59.5,167.9609,49.5,171.9609,59.5,175.9609,55.5,171.9609" style="stroke: #A80036; stroke-width: 1.0;"/><line style="stroke: #A80036; stroke-width: 1.0; stroke-dasharray: 2.0,2.0;" x1="53.5" x2="350.5" y1="171.9609" y2="171.9609"/><text fill="#000000" font-family="sans-serif" font-size="13" lengthAdjust="spacingAndGlyphs" textLength="56" x="65.5" y="166.895">movies[]</text><polygon fill="#A80036" points="339.5,212.2266,349.5,216.2266,339.5,220.2266,343.5,216.2266" style="stroke: #A80036; stroke-width: 1.0;"/><line style="stroke: #A80036; stroke-width: 1.0;" x1="48.5" x2="345.5" y1="216.2266" y2="216.2266"/><text fill="#000000" font-family="sans-serif" font-size="13" lengthAdjust="spacingAndGlyphs" textLength="125" x="55.5" y="196.0278">Request theater list</text><text fill="#000000" font-family="sans-serif" font-size="13" lengthAdjust="spacingAndGlyphs" textLength="209" x="55.5" y="211.1606">GET /showtime-creation/theaters</text><polygon fill="#A80036" points="593.5,241.3594,603.5,245.3594,593.5,249.3594,597.5,245.3594" style="stroke: #A80036; stroke-width: 1.0;"/><line style="stroke: #A80036; stroke-width: 1.0;" x1="351.5" x2="599.5" y1="245.3594" y2="245.3594"/><text fill="#000000" font-family="sans-serif" font-size="13" lengthAdjust="spacingAndGlyphs" textLength="109" x="358.5" y="240.2935">searchTheaters()</text><polygon fill="#A80036" points="362.5,270.4922,352.5,274.4922,362.5,278.4922,358.5,274.4922" style="stroke: #A80036; stroke-width: 1.0;"/><line style="stroke: #A80036; stroke-width: 1.0; stroke-dasharray: 2.0,2.0;" x1="356.5" x2="604.5" y1="274.4922" y2="274.4922"/><text fill="#000000" font-family="sans-serif" font-size="13" lengthAdjust="spacingAndGlyphs" textLength="64" x="368.5" y="269.4263">theaters[]</text><polygon fill="#A80036" points="59.5,299.625,49.5,303.625,59.5,307.625,55.5,303.625" style="stroke: #A80036; stroke-width: 1.0;"/><line style="stroke: #A80036; stroke-width: 1.0; stroke-dasharray: 2.0,2.0;" x1="53.5" x2="350.5" y1="303.625" y2="303.625"/><text fill="#000000" font-family="sans-serif" font-size="13" lengthAdjust="spacingAndGlyphs" textLength="64" x="65.5" y="298.5591">theaters[]</text><polygon fill="#A80036" points="339.5,356.457,349.5,360.457,339.5,364.457,343.5,360.457" style="stroke: #A80036; stroke-width: 1.0;"/><line style="stroke: #A80036; stroke-width: 1.0;" x1="48.5" x2="345.5" y1="360.457" y2="360.457"/><text fill="#000000" font-family="sans-serif" font-size="13" lengthAdjust="spacingAndGlyphs" textLength="139" x="55.5" y="340.2583">Request showtime list</text><text fill="#000000" font-family="sans-serif" font-size="13" lengthAdjust="spacingAndGlyphs" textLength="279" x="55.5" y="355.3911">POST /showtime-creation/showtimes/search</text><path d="M356,316.625 L356,371.625 L527,371.625 L527,326.625 L517,316.625 L356,316.625 " fill="#FBFB77" filter="url(#f1gm3jvoj1s45g)" style="stroke: #A80036; stroke-width: 1.0;"/><path d="M517,316.625 L517,326.625 L527,326.625 L517,316.625 " fill="#FBFB77" style="stroke: #A80036; stroke-width: 1.0;"/><text fill="#000000" font-family="sans-serif" font-size="13" lengthAdjust="spacingAndGlyphs" textLength="150" x="362" y="333.6919">ShowtimesSearchDto {</text><text fill="#000000" font-family="sans-serif" font-size="13" lengthAdjust="spacingAndGlyphs" textLength="65" x="362" y="348.8247">theaterIds</text><text fill="#000000" font-family="sans-serif" font-size="13" lengthAdjust="spacingAndGlyphs" textLength="8" x="362" y="363.9575">}</text><polygon fill="#A80036" points="776.5,398.1563,786.5,402.1563,776.5,406.1563,780.5,402.1563" style="stroke: #A80036; stroke-width: 1.0;"/><line style="stroke: #A80036; stroke-width: 1.0;" x1="351.5" x2="782.5" y1="402.1563" y2="402.1563"/><text fill="#000000" font-family="sans-serif" font-size="13" lengthAdjust="spacingAndGlyphs" textLength="189" x="358.5" y="397.0903">searchShowtimes(searchDto)</text><polygon fill="#A80036" points="362.5,427.2891,352.5,431.2891,362.5,435.2891,358.5,431.2891" style="stroke: #A80036; stroke-width: 1.0;"/><line style="stroke: #A80036; stroke-width: 1.0; stroke-dasharray: 2.0,2.0;" x1="356.5" x2="787.5" y1="431.2891" y2="431.2891"/><text fill="#000000" font-family="sans-serif" font-size="13" lengthAdjust="spacingAndGlyphs" textLength="78" x="368.5" y="426.2231">showtimes[]</text><polygon fill="#A80036" points="59.5,456.4219,49.5,460.4219,59.5,464.4219,55.5,460.4219" style="stroke: #A80036; stroke-width: 1.0;"/><line style="stroke: #A80036; stroke-width: 1.0; stroke-dasharray: 2.0,2.0;" x1="53.5" x2="350.5" y1="460.4219" y2="460.4219"/><text fill="#000000" font-family="sans-serif" font-size="13" lengthAdjust="spacingAndGlyphs" textLength="78" x="65.5" y="455.356">showtimes[]</text><polygon fill="#A80036" points="339.5,535.9531,349.5,539.9531,339.5,543.9531,343.5,539.9531" style="stroke: #A80036; stroke-width: 1.0;"/><line style="stroke: #A80036; stroke-width: 1.0;" x1="48.5" x2="345.5" y1="539.9531" y2="539.9531"/><text fill="#000000" font-family="sans-serif" font-size="13" lengthAdjust="spacingAndGlyphs" textLength="161" x="55.5" y="519.7544">Create showtime request</text><text fill="#000000" font-family="sans-serif" font-size="13" lengthAdjust="spacingAndGlyphs" textLength="232" x="55.5" y="534.8872">POST /showtime-creation/showtimes</text><path d="M356,473.4219 L356,573.4219 L525,573.4219 L525,483.4219 L515,473.4219 L356,473.4219 " fill="#FBFB77" filter="url(#f1gm3jvoj1s45g)" style="stroke: #A80036; stroke-width: 1.0;"/><path d="M515,473.4219 L515,483.4219 L525,483.4219 L515,473.4219 " fill="#FBFB77" style="stroke: #A80036; stroke-width: 1.0;"/><text fill="#000000" font-family="sans-serif" font-size="13" lengthAdjust="spacingAndGlyphs" textLength="148" x="362" y="490.4888">ShowtimesCreateDto {</text><text fill="#000000" font-family="sans-serif" font-size="13" lengthAdjust="spacingAndGlyphs" textLength="54" x="362" y="505.6216">movieId,</text><text fill="#000000" font-family="sans-serif" font-size="13" lengthAdjust="spacingAndGlyphs" textLength="69" x="362" y="520.7544">theaterIds,</text><text fill="#000000" font-family="sans-serif" font-size="13" lengthAdjust="spacingAndGlyphs" textLength="72" x="362" y="535.8872">startTimes,</text><text fill="#000000" font-family="sans-serif" font-size="13" lengthAdjust="spacingAndGlyphs" textLength="103" x="362" y="551.02">durationMinutes</text><text fill="#000000" font-family="sans-serif" font-size="13" lengthAdjust="spacingAndGlyphs" textLength="8" x="362" y="566.1528">}</text><polygon fill="#A80036" points="776.5,600.3516,786.5,604.3516,776.5,608.3516,780.5,604.3516" style="stroke: #A80036; stroke-width: 1.0;"/><line style="stroke: #A80036; stroke-width: 1.0;" x1="351.5" x2="782.5" y1="604.3516" y2="604.3516"/><text fill="#000000" font-family="sans-serif" font-size="13" lengthAdjust="spacingAndGlyphs" textLength="185" x="358.5" y="599.2856">createShowtimes(createDto)</text><polygon fill="#A80036" points="483.5,629.4844,473.5,633.4844,483.5,637.4844,479.5,633.4844" style="stroke: #A80036; stroke-width: 1.0;"/><line style="stroke: #A80036; stroke-width: 1.0;" x1="477.5" x2="787.5" y1="633.4844" y2="633.4844"/><text fill="#000000" font-family="sans-serif" font-size="13" lengthAdjust="spacingAndGlyphs" textLength="136" x="489.5" y="628.4185">moviesExist(movieId)</text><polygon fill="#A80036" points="776.5,658.6172,786.5,662.6172,776.5,666.6172,780.5,662.6172" style="stroke: #A80036; stroke-width: 1.0;"/><line style="stroke: #A80036; stroke-width: 1.0; stroke-dasharray: 2.0,2.0;" x1="472.5" x2="782.5" y1="662.6172" y2="662.6172"/><text fill="#000000" font-family="sans-serif" font-size="13" lengthAdjust="spacingAndGlyphs" textLength="26" x="479.5" y="657.5513">true</text><polygon fill="#A80036" points="616.5,687.75,606.5,691.75,616.5,695.75,612.5,691.75" style="stroke: #A80036; stroke-width: 1.0;"/><line style="stroke: #A80036; stroke-width: 1.0;" x1="610.5" x2="787.5" y1="691.75" y2="691.75"/><text fill="#000000" font-family="sans-serif" font-size="13" lengthAdjust="spacingAndGlyphs" textLength="159" x="622.5" y="686.6841">theatersExist(theaterIds)</text><polygon fill="#A80036" points="776.5,716.8828,786.5,720.8828,776.5,724.8828,780.5,720.8828" style="stroke: #A80036; stroke-width: 1.0;"/><line style="stroke: #A80036; stroke-width: 1.0; stroke-dasharray: 2.0,2.0;" x1="605.5" x2="782.5" y1="720.8828" y2="720.8828"/><text fill="#000000" font-family="sans-serif" font-size="13" lengthAdjust="spacingAndGlyphs" textLength="26" x="612.5" y="715.8169">true</text><line style="stroke: #A80036; stroke-width: 1.0;" x1="788.5" x2="830.5" y1="750.0156" y2="750.0156"/><line style="stroke: #A80036; stroke-width: 1.0;" x1="830.5" x2="830.5" y1="750.0156" y2="763.0156"/><line style="stroke: #A80036; stroke-width: 1.0;" x1="789.5" x2="830.5" y1="763.0156" y2="763.0156"/><polygon fill="#A80036" points="799.5,759.0156,789.5,763.0156,799.5,767.0156,795.5,763.0156" style="stroke: #A80036; stroke-width: 1.0;"/><text fill="#000000" font-family="sans-serif" font-size="13" lengthAdjust="spacingAndGlyphs" textLength="351" x="795.5" y="744.9497">createShowtimes(createDto) // Internal call or delegate</text><polygon fill="#A80036" points="362.5,788.1484,352.5,792.1484,362.5,796.1484,358.5,792.1484" style="stroke: #A80036; stroke-width: 1.0;"/><line style="stroke: #A80036; stroke-width: 1.0; stroke-dasharray: 2.0,2.0;" x1="356.5" x2="787.5" y1="792.1484" y2="792.1484"/><text fill="#000000" font-family="sans-serif" font-size="13" lengthAdjust="spacingAndGlyphs" textLength="384" x="368.5" y="787.0825">showtimes[] // Assuming this returns the created showtimes</text><polygon fill="#A80036" points="59.5,817.2813,49.5,821.2813,59.5,825.2813,55.5,821.2813" style="stroke: #A80036; stroke-width: 1.0;"/><line style="stroke: #A80036; stroke-width: 1.0; stroke-dasharray: 2.0,2.0;" x1="53.5" x2="350.5" y1="821.2813" y2="821.2813"/><text fill="#000000" font-family="sans-serif" font-size="13" lengthAdjust="spacingAndGlyphs" textLength="85" x="65.5" y="816.2153">Created(201)</text><!--MD5=[651cf0a88526cb35e1485ce08d667376]
@startuml
Frontend -> Backend: Request movie list\nGET /showtime-creation/movies
Backend -> MoviesService: searchMovies()
Backend <- - MoviesService: movies[]
Frontend <- - Backend: movies[]

Frontend -> Backend: Request theater list\nGET /showtime-creation/theaters
Backend -> TheatersService: searchTheaters()
Backend <- - TheatersService: theaters[]
Frontend <- - Backend: theaters[]

Frontend -> Backend: Request showtime list\nPOST /showtime-creation/showtimes/search
note right
ShowtimesSearchDto {
theaterIds
}
end note
Backend -> ShowtimesService: searchShowtimes(searchDto)
Backend <- - ShowtimesService: showtimes[]
Frontend <- - Backend: showtimes[]

Frontend -> Backend: Create showtime request\nPOST /showtime-creation/showtimes
note right
ShowtimesCreateDto {
movieId,
theaterIds,
startTimes,
durationMinutes
}
end note
Backend -> ShowtimesService: createShowtimes(createDto)
ShowtimesService -> MoviesService: moviesExist(movieId)
ShowtimesService <- - MoviesService: true

    ShowtimesService -> TheatersService: theatersExist(theaterIds)
    ShowtimesService <- - TheatersService: true

    ShowtimesService -> ShowtimesService: createShowtimes(createDto) // Internal call or delegate
Backend <- - ShowtimesService: showtimes[] // Assuming this returns the created showtimes

Frontend <- - Backend: Created(201)

@enduml

PlantUML version 1.2020.02(Sun Mar 01 10:22:07 UTC 2020)
(GPL source distribution)
Java Runtime: OpenJDK Runtime Environment
JVM: OpenJDK 64-Bit Server VM
Java Version: 17.0.15+6-Debian-1deb12u1
Operating System: Linux
Default Encoding: UTF-8
Language: ko
Country: KR
--></g></svg>