<?xml version="1.0" encoding="UTF-8" standalone="no"?><svg xmlns="http://www.w3.org/2000/svg" xmlns:xlink="http://www.w3.org/1999/xlink" contentScriptType="application/ecmascript" contentStyleType="text/css" height="448px" preserveAspectRatio="none" style="width:654px;height:448px;" version="1.1" viewBox="0 0 654 448" width="654px" zoomAndPan="magnify"><defs><filter height="300%" id="ftr45hur72rwg" width="300%" x="-1" y="-1"><feGaussianBlur result="blurOut" stdDeviation="2.0"/><feColorMatrix in="blurOut" result="blurOut2" type="matrix" values="0 0 0 0 0 0 0 0 0 0 0 0 0 0 0 0 0 0 .4 0"/><feOffset dx="4.0" dy="4.0" in="blurOut2" result="blurOut3"/><feBlend in="SourceGraphic" in2="blurOut3" mode="normal"/></filter></defs><g><line style="stroke: #A80036; stroke-width: 1.0; stroke-dasharray: 5.0,5.0;" x1="48" x2="48" y1="38.2969" y2="407.8906"/><line style="stroke: #A80036; stroke-width: 1.0; stroke-dasharray: 5.0,5.0;" x1="220" x2="220" y1="38.2969" y2="407.8906"/><line style="stroke: #A80036; stroke-width: 1.0; stroke-dasharray: 5.0,5.0;" x1="429.5" x2="429.5" y1="38.2969" y2="407.8906"/><line style="stroke: #A80036; stroke-width: 1.0; stroke-dasharray: 5.0,5.0;" x1="589.5" x2="589.5" y1="38.2969" y2="407.8906"/><rect fill="#FEFECE" filter="url(#ftr45hur72rwg)" height="30.2969" style="stroke: #A80036; stroke-width: 1.5;" width="77" x="8" y="3"/><text fill="#000000" font-family="sans-serif" font-size="14" lengthAdjust="spacingAndGlyphs" textLength="63" x="15" y="22.9951">Frontend</text><rect fill="#FEFECE" filter="url(#ftr45hur72rwg)" height="30.2969" style="stroke: #A80036; stroke-width: 1.5;" width="77" x="8" y="406.8906"/><text fill="#000000" font-family="sans-serif" font-size="14" lengthAdjust="spacingAndGlyphs" textLength="63" x="15" y="426.8857">Frontend</text><rect fill="#FEFECE" filter="url(#ftr45hur72rwg)" height="30.2969" style="stroke: #A80036; stroke-width: 1.5;" width="73" x="182" y="3"/><text fill="#000000" font-family="sans-serif" font-size="14" lengthAdjust="spacingAndGlyphs" textLength="59" x="189" y="22.9951">Gateway</text><rect fill="#FEFECE" filter="url(#ftr45hur72rwg)" height="30.2969" style="stroke: #A80036; stroke-width: 1.5;" width="73" x="182" y="406.8906"/><text fill="#000000" font-family="sans-serif" font-size="14" lengthAdjust="spacingAndGlyphs" textLength="59" x="189" y="426.8857">Gateway</text><rect fill="#FEFECE" filter="url(#ftr45hur72rwg)" height="30.2969" style="stroke: #A80036; stroke-width: 1.5;" width="140" x="357.5" y="3"/><text fill="#000000" font-family="sans-serif" font-size="14" lengthAdjust="spacingAndGlyphs" textLength="126" x="364.5" y="22.9951">ShowtimesService</text><rect fill="#FEFECE" filter="url(#ftr45hur72rwg)" height="30.2969" style="stroke: #A80036; stroke-width: 1.5;" width="140" x="357.5" y="406.8906"/><text fill="#000000" font-family="sans-serif" font-size="14" lengthAdjust="spacingAndGlyphs" textLength="126" x="364.5" y="426.8857">ShowtimesService</text><rect fill="#FEFECE" filter="url(#ftr45hur72rwg)" height="30.2969" style="stroke: #A80036; stroke-width: 1.5;" width="112" x="531.5" y="3"/><text fill="#000000" font-family="sans-serif" font-size="14" lengthAdjust="spacingAndGlyphs" textLength="98" x="538.5" y="22.9951">MoviesService</text><rect fill="#FEFECE" filter="url(#ftr45hur72rwg)" height="30.2969" style="stroke: #A80036; stroke-width: 1.5;" width="112" x="531.5" y="406.8906"/><text fill="#000000" font-family="sans-serif" font-size="14" lengthAdjust="spacingAndGlyphs" textLength="98" x="538.5" y="426.8857">MoviesService</text><polygon fill="#A80036" points="208.5,65.4297,218.5,69.4297,208.5,73.4297,212.5,69.4297" style="stroke: #A80036; stroke-width: 1.0;"/><line style="stroke: #A80036; stroke-width: 1.0;" x1="48.5" x2="214.5" y1="69.4297" y2="69.4297"/><text fill="#000000" font-family="sans-serif" font-size="13" lengthAdjust="spacingAndGlyphs" textLength="72" x="55.5" y="64.3638">상영시간 생성 요청</text><polygon fill="#A80036" points="417.5,94.5625,427.5,98.5625,417.5,102.5625,421.5,98.5625" style="stroke: #A80036; stroke-width: 1.0;"/><line style="stroke: #A80036; stroke-width: 1.0;" x1="220.5" x2="423.5" y1="98.5625" y2="98.5625"/><text fill="#000000" font-family="sans-serif" font-size="13" lengthAdjust="spacingAndGlyphs" textLength="185" x="227.5" y="93.4966">createShowtimes(createDto)</text><polygon fill="#A80036" points="577.5,123.6953,587.5,127.6953,577.5,131.6953,581.5,127.6953" style="stroke: #A80036; stroke-width: 1.0;"/><line style="stroke: #A80036; stroke-width: 1.0;" x1="429.5" x2="583.5" y1="127.6953" y2="127.6953"/><text fill="#000000" font-family="sans-serif" font-size="13" lengthAdjust="spacingAndGlyphs" textLength="136" x="436.5" y="122.6294">moviesExist(movieId)</text><polygon fill="#A80036" points="440.5,152.8281,430.5,156.8281,440.5,160.8281,436.5,156.8281" style="stroke: #A80036; stroke-width: 1.0;"/><line style="stroke: #A80036; stroke-width: 1.0; stroke-dasharray: 2.0,2.0;" x1="434.5" x2="588.5" y1="156.8281" y2="156.8281"/><text fill="#000000" font-family="sans-serif" font-size="13" lengthAdjust="spacingAndGlyphs" textLength="26" x="446.5" y="151.7622">true</text><polygon fill="#A80036" points="231.5,181.9609,221.5,185.9609,231.5,189.9609,227.5,185.9609" style="stroke: #A80036; stroke-width: 1.0;"/><line style="stroke: #A80036; stroke-width: 1.0; stroke-dasharray: 2.0,2.0;" x1="225.5" x2="428.5" y1="185.9609" y2="185.9609"/><text fill="#000000" font-family="sans-serif" font-size="13" lengthAdjust="spacingAndGlyphs" textLength="78" x="237.5" y="180.895">showtimes[]</text><polygon fill="#A80036" points="59.5,211.0938,49.5,215.0938,59.5,219.0938,55.5,215.0938" style="stroke: #A80036; stroke-width: 1.0;"/><line style="stroke: #A80036; stroke-width: 1.0; stroke-dasharray: 2.0,2.0;" x1="53.5" x2="219.5" y1="215.0938" y2="215.0938"/><text fill="#000000" font-family="sans-serif" font-size="13" lengthAdjust="spacingAndGlyphs" textLength="85" x="65.5" y="210.0278">Created(201)</text><polygon fill="#A80036" points="208.5,240.2266,218.5,244.2266,208.5,248.2266,212.5,244.2266" style="stroke: #A80036; stroke-width: 1.0;"/><line style="stroke: #A80036; stroke-width: 1.0;" x1="48.5" x2="214.5" y1="244.2266" y2="244.2266"/><text fill="#000000" font-family="sans-serif" font-size="13" lengthAdjust="spacingAndGlyphs" textLength="148" x="55.5" y="239.1606">23시 이후에 상영하는 영화 목록 요청</text><polygon fill="#A80036" points="577.5,269.3594,587.5,273.3594,577.5,277.3594,581.5,273.3594" style="stroke: #A80036; stroke-width: 1.0;"/><line style="stroke: #A80036; stroke-width: 1.0;" x1="220.5" x2="583.5" y1="273.3594" y2="273.3594"/><text fill="#000000" font-family="sans-serif" font-size="13" lengthAdjust="spacingAndGlyphs" textLength="97" x="227.5" y="268.2935">searchMovies()</text><polygon fill="#A80036" points="440.5,298.4922,430.5,302.4922,440.5,306.4922,436.5,302.4922" style="stroke: #A80036; stroke-width: 1.0;"/><line style="stroke: #A80036; stroke-width: 1.0;" x1="434.5" x2="588.5" y1="302.4922" y2="302.4922"/><text fill="#000000" font-family="sans-serif" font-size="13" lengthAdjust="spacingAndGlyphs" textLength="123" x="446.5" y="297.4263">searchShowtimes()</text><polygon fill="#A80036" points="577.5,327.625,587.5,331.625,577.5,335.625,581.5,331.625" style="stroke: #A80036; stroke-width: 1.0;"/><line style="stroke: #A80036; stroke-width: 1.0; stroke-dasharray: 2.0,2.0;" x1="429.5" x2="583.5" y1="331.625" y2="331.625"/><text fill="#000000" font-family="sans-serif" font-size="13" lengthAdjust="spacingAndGlyphs" textLength="78" x="436.5" y="326.5591">showtimes[]</text><polygon fill="#A80036" points="231.5,356.7578,221.5,360.7578,231.5,364.7578,227.5,360.7578" style="stroke: #A80036; stroke-width: 1.0;"/><line style="stroke: #A80036; stroke-width: 1.0; stroke-dasharray: 2.0,2.0;" x1="225.5" x2="588.5" y1="360.7578" y2="360.7578"/><text fill="#000000" font-family="sans-serif" font-size="13" lengthAdjust="spacingAndGlyphs" textLength="56" x="237.5" y="355.6919">movies[]</text><polygon fill="#A80036" points="59.5,385.8906,49.5,389.8906,59.5,393.8906,55.5,389.8906" style="stroke: #A80036; stroke-width: 1.0;"/><line style="stroke: #A80036; stroke-width: 1.0; stroke-dasharray: 2.0,2.0;" x1="53.5" x2="219.5" y1="389.8906" y2="389.8906"/><text fill="#000000" font-family="sans-serif" font-size="13" lengthAdjust="spacingAndGlyphs" textLength="56" x="65.5" y="384.8247">movies[]</text><!--MD5=[4b5a1a3eae707f11a9a802bac8d42c54]
@startuml
Frontend -> Gateway: 상영시간 생성 요청
    Gateway -> ShowtimesService: createShowtimes(createDto)
        ShowtimesService -> MoviesService: moviesExist(movieId)
        ShowtimesService <- - MoviesService: true
    Gateway <- - ShowtimesService: showtimes[]
Frontend <- - Gateway: Created(201)

Frontend -> Gateway: 23시 이후에 상영하는 영화 목록 요청
    Gateway -> MoviesService: searchMovies()
        MoviesService -> ShowtimesService: searchShowtimes()
        MoviesService <- - ShowtimesService: showtimes[]
    Gateway <- - MoviesService: movies[]
Frontend <- - Gateway: movies[]
@enduml

PlantUML version 1.2020.02(Sun Mar 01 10:22:07 UTC 2020)
(GPL source distribution)
Java Runtime: OpenJDK Runtime Environment
JVM: OpenJDK 64-Bit Server VM
Java Version: 17.0.15+6-Debian-1deb12u1
Operating System: Linux
Default Encoding: UTF-8
Language: ko
Country: KR
--></g></svg>