<?xml version="1.0" encoding="UTF-8" standalone="no"?><svg xmlns="http://www.w3.org/2000/svg" xmlns:xlink="http://www.w3.org/1999/xlink" contentScriptType="application/ecmascript" contentStyleType="text/css" height="572px" preserveAspectRatio="none" style="width:750px;height:572px;" version="1.1" viewBox="0 0 750 572" width="750px" zoomAndPan="magnify"><defs><filter height="300%" id="fouw11vbalqag" width="300%" x="-1" y="-1"><feGaussianBlur result="blurOut" stdDeviation="2.0"/><feColorMatrix in="blurOut" result="blurOut2" type="matrix" values="0 0 0 0 0 0 0 0 0 0 0 0 0 0 0 0 0 0 .4 0"/><feOffset dx="4.0" dy="4.0" in="blurOut2" result="blurOut3"/><feBlend in="SourceGraphic" in2="blurOut3" mode="normal"/></filter></defs><g><!--MD5=[6c2d02fe013167922f007c9285828968]
cluster mbs--><polygon fill="#FFFFFF" filter="url(#fouw11vbalqag)" points="120,32.5,303,32.5,310,54.7969,576,54.7969,576,529.5,120,529.5,120,32.5" style="stroke: #000000; stroke-width: 1.5;"/><line style="stroke: #000000; stroke-width: 1.5;" x1="120" x2="310" y1="54.7969" y2="54.7969"/><text fill="#000000" font-family="sans-serif" font-size="14" font-weight="bold" lengthAdjust="spacingAndGlyphs" textLength="177" x="124" y="47.4951">Movie Booking System</text><!--MD5=[c7109cc79c436e4de7b73789f25103a4]
cluster theaters--><polygon fill="#FFFFFF" filter="url(#fouw11vbalqag)" points="165,83.5,238,83.5,245,105.7969,324,105.7969,324,164.5,165,164.5,165,83.5" style="stroke: #000000; stroke-width: 1.5;"/><line style="stroke: #000000; stroke-width: 1.5;" x1="165" x2="245" y1="105.7969" y2="105.7969"/><text fill="#000000" font-family="sans-serif" font-size="14" font-weight="bold" lengthAdjust="spacingAndGlyphs" textLength="67" x="169" y="98.4951">theaters</text><!--MD5=[b1e937784b653f6ad52390770b5ca1d7]
cluster movies--><polygon fill="#FFFFFF" filter="url(#fouw11vbalqag)" points="172.5,188.5,234.5,188.5,241.5,210.7969,316.5,210.7969,316.5,269.5,172.5,269.5,172.5,188.5" style="stroke: #000000; stroke-width: 1.5;"/><line style="stroke: #000000; stroke-width: 1.5;" x1="172.5" x2="241.5" y1="210.7969" y2="210.7969"/><text fill="#000000" font-family="sans-serif" font-size="14" font-weight="bold" lengthAdjust="spacingAndGlyphs" textLength="56" x="176.5" y="203.4951">movies</text><!--MD5=[55c1321e5e660f70fb77e9cf74eefc72]
cluster customers--><polygon fill="#FFFFFF" filter="url(#fouw11vbalqag)" points="159,293.5,249,293.5,256,315.7969,330,315.7969,330,378.5,159,378.5,159,293.5" style="stroke: #000000; stroke-width: 1.5;"/><line style="stroke: #000000; stroke-width: 1.5;" x1="159" x2="256" y1="315.7969" y2="315.7969"/><text fill="#000000" font-family="sans-serif" font-size="14" font-weight="bold" lengthAdjust="spacingAndGlyphs" textLength="84" x="163" y="308.4951">customers</text><!--MD5=[dffa5d117727925aa4668bf20905af82]
cluster showtimes--><polygon fill="#FFFFFF" filter="url(#fouw11vbalqag)" points="152,402.5,244,402.5,251,424.7969,337,424.7969,337,489.5,152,489.5,152,402.5" style="stroke: #000000; stroke-width: 1.5;"/><line style="stroke: #000000; stroke-width: 1.5;" x1="152" x2="251" y1="424.7969" y2="424.7969"/><text fill="#000000" font-family="sans-serif" font-size="14" font-weight="bold" lengthAdjust="spacingAndGlyphs" textLength="86" x="156" y="417.4951">showtimes</text><!--MD5=[0c64180b40cb6a42c012370e26047e31]
cluster tickets--><polygon fill="#FFFFFF" filter="url(#fouw11vbalqag)" points="365,267.5,424,267.5,431,289.7969,544,289.7969,544,488.5,365,488.5,365,267.5" style="stroke: #000000; stroke-width: 1.5;"/><line style="stroke: #000000; stroke-width: 1.5;" x1="365" x2="431" y1="289.7969" y2="289.7969"/><text fill="#000000" font-family="sans-serif" font-size="14" font-weight="bold" lengthAdjust="spacingAndGlyphs" textLength="53" x="369" y="282.4951">tickets</text><ellipse cx="244.3339" cy="133.5668" fill="#FEFECE" filter="url(#fouw11vbalqag)" rx="63.3339" ry="15.0668" style="stroke: #A80036; stroke-width: 1.5;"/><text fill="#000000" font-family="sans-serif" font-size="14" lengthAdjust="spacingAndGlyphs" textLength="89" x="199.8339" y="138.2152">AddTheaters</text><ellipse cx="244.533" cy="238.5236" fill="#FEFECE" filter="url(#fouw11vbalqag)" rx="56.033" ry="14.5236" style="stroke: #A80036; stroke-width: 1.5;"/><text fill="#000000" font-family="sans-serif" font-size="14" lengthAdjust="spacingAndGlyphs" textLength="75" x="207.033" y="243.1721">AddMovies</text><ellipse cx="244.4543" cy="345.2909" fill="#FEFECE" filter="url(#fouw11vbalqag)" rx="69.4543" ry="16.2909" style="stroke: #A80036; stroke-width: 1.5;"/><text fill="#000000" font-family="sans-serif" font-size="14" lengthAdjust="spacingAndGlyphs" textLength="105" x="191.9543" y="349.9393">FindCustomers</text><ellipse cx="244.3548" cy="455.671" fill="#FEFECE" filter="url(#fouw11vbalqag)" rx="76.3548" ry="17.671" style="stroke: #A80036; stroke-width: 1.5;"/><text fill="#000000" font-family="sans-serif" font-size="14" lengthAdjust="spacingAndGlyphs" textLength="122" x="183.3548" y="460.3194">CreateShowtimes</text><ellipse cx="454.4711" cy="319.5942" fill="#FEFECE" filter="url(#fouw11vbalqag)" rx="73.4711" ry="17.0942" style="stroke: #A80036; stroke-width: 1.5;"/><text fill="#000000" font-family="sans-serif" font-size="14" lengthAdjust="spacingAndGlyphs" textLength="115" x="396.9711" y="324.2427">PurchaseTickets</text><ellipse cx="454.4975" cy="387.3995" fill="#FEFECE" filter="url(#fouw11vbalqag)" rx="67.4975" ry="15.8995" style="stroke: #A80036; stroke-width: 1.5;"/><text fill="#000000" font-family="sans-serif" font-size="14" lengthAdjust="spacingAndGlyphs" textLength="100" x="404.4975" y="392.0479">RefundTickets</text><ellipse cx="454.4711" cy="455.5942" fill="#FEFECE" filter="url(#fouw11vbalqag)" rx="73.4711" ry="17.0942" style="stroke: #A80036; stroke-width: 1.5;"/><text fill="#000000" font-family="sans-serif" font-size="14" lengthAdjust="spacingAndGlyphs" textLength="115" x="396.9711" y="460.2427">GenerateTickets</text><!--MD5=[65a041cd1922b3dee6e64063a2213939]
entity administrator--><ellipse cx="51" cy="490.5" fill="#FEFECE" filter="url(#fouw11vbalqag)" rx="8" ry="8" style="stroke: #A80036; stroke-width: 1.5;"/><path d="M51,498.5 L51,525.5 M38,506.5 L64,506.5 M51,525.5 L38,540.5 M51,525.5 L64,540.5 " fill="none" filter="url(#fouw11vbalqag)" style="stroke: #A80036; stroke-width: 1.5;"/><text fill="#000000" font-family="sans-serif" font-size="14" lengthAdjust="spacingAndGlyphs" textLength="90" x="6" y="558.9951">administrator</text><!--MD5=[72a9586c6036bc828fb9ec987b717d65]
entity PaymentGateway--><rect fill="#FEFECE" filter="url(#fouw11vbalqag)" height="36.2969" style="stroke: #000000; stroke-width: 1.5;" width="139" x="600" y="335.5"/><text fill="#000000" font-family="sans-serif" font-size="14" lengthAdjust="spacingAndGlyphs" textLength="119" x="610" y="358.4951">PaymentGateway</text><!--MD5=[ab03bc895fc1d2fe1b22ae71ecaf8e3f]
link PurchaseTickets to PaymentGateway--><path d="M515.4,329.06 C539.97,332.98 568.66,337.56 594.53,341.69 " fill="none" id="PurchaseTickets-&gt;PaymentGateway" style="stroke: #A80036; stroke-width: 1.0;"/><polygon fill="#A80036" points="599.66,342.51,591.3996,337.1467,594.722,341.7251,590.1436,345.0475,599.66,342.51" style="stroke: #A80036; stroke-width: 1.0;"/><!--MD5=[e68f44544e5478959c1949a643b083a2]
link RefundTickets to PaymentGateway--><path d="M510.91,378.66 C536.44,374.58 567.1,369.69 594.56,365.3 " fill="none" id="RefundTickets-&gt;PaymentGateway" style="stroke: #A80036; stroke-width: 1.0;"/><polygon fill="#A80036" points="599.65,364.49,590.1336,361.9525,594.712,365.2749,591.3896,369.8533,599.65,364.49" style="stroke: #A80036; stroke-width: 1.0;"/><!--MD5=[d27f787dbc340e83d2e320a4b7905228]
link CreateShowtimes to GenerateTickets--><path d="M321.18,455.5 C339.02,455.5 358.06,455.5 375.98,455.5 " fill="none" id="CreateShowtimes-&gt;GenerateTickets" style="stroke: #A80036; stroke-width: 1.0; stroke-dasharray: 7.0,7.0;"/><polygon fill="#A80036" points="381,455.5,372,451.5,376,455.5,372,459.5,381,455.5" style="stroke: #A80036; stroke-width: 1.0;"/><!--MD5=[1f1769e5086b5f2ea9df4a268b87c213]
link administrator to mbs--><path d="M96.42,521.5 C103.38,521.5 110.8541,521.5 118.6103,521.5 C118.8527,521.5 119.0953,521.5 119.3383,521.5 " fill="none" id="administrator-&gt;mbs" style="stroke: #A80036; stroke-width: 1.0;"/><polygon fill="#A80036" points="119.3383,521.5,110.3383,517.5,114.3383,521.5,110.3383,525.5,119.3383,521.5" style="stroke: #A80036; stroke-width: 1.0;"/><!--MD5=[44781ef4ae334c306ac8911cf68ac841]
@startuml
left to right direction
actor administrator
rectangle PaymentGateway

package "Movie Booking System" as mbs {
    package theaters {
        usecase AddTheaters
    }

    package movies {
        usecase AddMovies
    }

    package customers {
        usecase FindCustomers
    }

    package showtimes {
        usecase CreateShowtimes
    }

    package tickets {
        usecase PurchaseTickets
        usecase RefundTickets
        usecase GenerateTickets
    }

    PurchaseTickets - -> PaymentGateway
    RefundTickets - -> PaymentGateway
    CreateShowtimes ..> GenerateTickets
}

administrator - -> mbs
@enduml

PlantUML version 1.2020.02(Sun Mar 01 10:22:07 UTC 2020)
(GPL source distribution)
Java Runtime: OpenJDK Runtime Environment
JVM: OpenJDK 64-Bit Server VM
Java Version: 17.0.14+7-Debian-1deb12u1
Operating System: Linux
Default Encoding: UTF-8
Language: en
Country: null
--></g></svg>