<?xml version="1.0" encoding="UTF-8" standalone="no"?><svg xmlns="http://www.w3.org/2000/svg" xmlns:xlink="http://www.w3.org/1999/xlink" contentScriptType="application/ecmascript" contentStyleType="text/css" height="455px" preserveAspectRatio="none" style="width:562px;height:455px;" version="1.1" viewBox="0 0 562 455" width="562px" zoomAndPan="magnify"><defs><filter height="300%" id="f1ns7scbajd3wt" width="300%" x="-1" y="-1"><feGaussianBlur result="blurOut" stdDeviation="2.0"/><feColorMatrix in="blurOut" result="blurOut2" type="matrix" values="0 0 0 0 0 0 0 0 0 0 0 0 0 0 0 0 0 0 .4 0"/><feOffset dx="4.0" dy="4.0" in="blurOut2" result="blurOut3"/><feBlend in="SourceGraphic" in2="blurOut3" mode="normal"/></filter></defs><g><line style="stroke: #A80036; stroke-width: 1.0; stroke-dasharray: 5.0,5.0;" x1="32" x2="32" y1="86.2969" y2="368.4922"/><line style="stroke: #A80036; stroke-width: 1.0; stroke-dasharray: 5.0,5.0;" x1="468.5" x2="468.5" y1="86.2969" y2="368.4922"/><text fill="#000000" font-family="sans-serif" font-size="14" lengthAdjust="spacingAndGlyphs" textLength="43" x="8" y="82.9951">Admin</text><ellipse cx="32.5" cy="13" fill="#FEFECE" filter="url(#f1ns7scbajd3wt)" rx="8" ry="8" style="stroke: #A80036; stroke-width: 2.0;"/><path d="M32.5,21 L32.5,48 M19.5,29 L45.5,29 M32.5,48 L19.5,63 M32.5,48 L45.5,63 " fill="none" filter="url(#f1ns7scbajd3wt)" style="stroke: #A80036; stroke-width: 2.0;"/><text fill="#000000" font-family="sans-serif" font-size="14" lengthAdjust="spacingAndGlyphs" textLength="43" x="8" y="380.4873">Admin</text><ellipse cx="32.5" cy="393.7891" fill="#FEFECE" filter="url(#f1ns7scbajd3wt)" rx="8" ry="8" style="stroke: #A80036; stroke-width: 2.0;"/><path d="M32.5,401.7891 L32.5,428.7891 M19.5,409.7891 L45.5,409.7891 M32.5,428.7891 L19.5,443.7891 M32.5,428.7891 L45.5,443.7891 " fill="none" filter="url(#f1ns7scbajd3wt)" style="stroke: #A80036; stroke-width: 2.0;"/><rect fill="#FEFECE" filter="url(#f1ns7scbajd3wt)" height="30.2969" style="stroke: #A80036; stroke-width: 1.5;" width="170" x="381.5" y="51"/><text fill="#000000" font-family="sans-serif" font-size="14" lengthAdjust="spacingAndGlyphs" textLength="156" x="388.5" y="70.9951">Movie Booking System</text><rect fill="#FEFECE" filter="url(#f1ns7scbajd3wt)" height="30.2969" style="stroke: #A80036; stroke-width: 1.5;" width="170" x="381.5" y="367.4922"/><text fill="#000000" font-family="sans-serif" font-size="14" lengthAdjust="spacingAndGlyphs" textLength="156" x="388.5" y="387.4873">Movie Booking System</text><polygon fill="#A80036" points="456.5,113.4297,466.5,117.4297,456.5,121.4297,460.5,117.4297" style="stroke: #A80036; stroke-width: 1.0;"/><line style="stroke: #A80036; stroke-width: 1.0;" x1="32.5" x2="462.5" y1="117.4297" y2="117.4297"/><text fill="#000000" font-family="sans-serif" font-size="13" lengthAdjust="spacingAndGlyphs" textLength="249" x="39.5" y="112.3638">(Trigger) Visits showtime creation page</text><polygon fill="#A80036" points="43.5,142.5625,33.5,146.5625,43.5,150.5625,39.5,146.5625" style="stroke: #A80036; stroke-width: 1.0;"/><line style="stroke: #A80036; stroke-width: 1.0; stroke-dasharray: 2.0,2.0;" x1="37.5" x2="467.5" y1="146.5625" y2="146.5625"/><text fill="#000000" font-family="sans-serif" font-size="13" lengthAdjust="spacingAndGlyphs" textLength="141" x="49.5" y="141.4966">(1) Provides movie list</text><polygon fill="#A80036" points="456.5,171.6953,466.5,175.6953,456.5,179.6953,460.5,175.6953" style="stroke: #A80036; stroke-width: 1.0;"/><line style="stroke: #A80036; stroke-width: 1.0;" x1="32.5" x2="462.5" y1="175.6953" y2="175.6953"/><text fill="#000000" font-family="sans-serif" font-size="13" lengthAdjust="spacingAndGlyphs" textLength="112" x="39.5" y="170.6294">(2) Selects movie</text><polygon fill="#A80036" points="43.5,200.8281,33.5,204.8281,43.5,208.8281,39.5,204.8281" style="stroke: #A80036; stroke-width: 1.0;"/><line style="stroke: #A80036; stroke-width: 1.0; stroke-dasharray: 2.0,2.0;" x1="37.5" x2="467.5" y1="204.8281" y2="204.8281"/><text fill="#000000" font-family="sans-serif" font-size="13" lengthAdjust="spacingAndGlyphs" textLength="149" x="49.5" y="199.7622">(3) Provides theater list</text><polygon fill="#A80036" points="456.5,229.9609,466.5,233.9609,456.5,237.9609,460.5,233.9609" style="stroke: #A80036; stroke-width: 1.0;"/><line style="stroke: #A80036; stroke-width: 1.0;" x1="32.5" x2="462.5" y1="233.9609" y2="233.9609"/><text fill="#000000" font-family="sans-serif" font-size="13" lengthAdjust="spacingAndGlyphs" textLength="127" x="39.5" y="228.895">(4) Selects theaters</text><polygon fill="#A80036" points="43.5,259.0938,33.5,263.0938,43.5,267.0938,39.5,263.0938" style="stroke: #A80036; stroke-width: 1.0;"/><line style="stroke: #A80036; stroke-width: 1.0; stroke-dasharray: 2.0,2.0;" x1="37.5" x2="467.5" y1="263.0938" y2="263.0938"/><text fill="#000000" font-family="sans-serif" font-size="13" lengthAdjust="spacingAndGlyphs" textLength="412" x="49.5" y="258.0278">(5) Provides showtime list (for selected theaters/movie implicitly)</text><polygon fill="#A80036" points="456.5,288.2266,466.5,292.2266,456.5,296.2266,460.5,292.2266" style="stroke: #A80036; stroke-width: 1.0;"/><line style="stroke: #A80036; stroke-width: 1.0;" x1="32.5" x2="462.5" y1="292.2266" y2="292.2266"/><text fill="#000000" font-family="sans-serif" font-size="13" lengthAdjust="spacingAndGlyphs" textLength="184" x="39.5" y="287.1606">(6) Selects/Inputs showtimes</text><polygon fill="#A80036" points="456.5,317.3594,466.5,321.3594,456.5,325.3594,460.5,321.3594" style="stroke: #A80036; stroke-width: 1.0;"/><line style="stroke: #A80036; stroke-width: 1.0;" x1="32.5" x2="462.5" y1="321.3594" y2="321.3594"/><text fill="#000000" font-family="sans-serif" font-size="13" lengthAdjust="spacingAndGlyphs" textLength="223" x="39.5" y="316.2935">(7) Requests showtime registration</text><polygon fill="#A80036" points="43.5,346.4922,33.5,350.4922,43.5,354.4922,39.5,350.4922" style="stroke: #A80036; stroke-width: 1.0;"/><line style="stroke: #A80036; stroke-width: 1.0; stroke-dasharray: 2.0,2.0;" x1="37.5" x2="467.5" y1="350.4922" y2="350.4922"/><text fill="#000000" font-family="sans-serif" font-size="13" lengthAdjust="spacingAndGlyphs" textLength="264" x="49.5" y="345.4263">(8) Showtime registration success screen</text><!--MD5=[a76c9094ee181a95c87a1c6ba690c469]
@startuml
actor Admin
participant "Movie Booking System" as mbs

Admin -> mbs: (Trigger) Visits showtime creation page
Admin <- - mbs: (1) Provides movie list

Admin -> mbs: (2) Selects movie
Admin <- - mbs: (3) Provides theater list

Admin -> mbs: (4) Selects theaters
Admin <- - mbs: (5) Provides showtime list (for selected theaters/movie implicitly)

Admin -> mbs: (6) Selects/Inputs showtimes

Admin -> mbs: (7) Requests showtime registration
Admin <- - mbs: (8) Showtime registration success screen

@enduml

PlantUML version 1.2020.02(Sun Mar 01 10:22:07 UTC 2020)
(GPL source distribution)
Java Runtime: OpenJDK Runtime Environment
JVM: OpenJDK 64-Bit Server VM
Java Version: 17.0.15+6-Debian-1deb12u1
Operating System: Linux
Default Encoding: UTF-8
Language: ko
Country: KR
--></g></svg>