<?xml version="1.0" encoding="UTF-8" standalone="no"?><svg xmlns="http://www.w3.org/2000/svg" xmlns:xlink="http://www.w3.org/1999/xlink" contentScriptType="application/ecmascript" contentStyleType="text/css" height="261px" preserveAspectRatio="none" style="width:608px;height:261px;" version="1.1" viewBox="0 0 608 261" width="608px" zoomAndPan="magnify"><defs><filter height="300%" id="f19jr12dqcsx6v" width="300%" x="-1" y="-1"><feGaussianBlur result="blurOut" stdDeviation="2.0"/><feColorMatrix in="blurOut" result="blurOut2" type="matrix" values="0 0 0 0 0 0 0 0 0 0 0 0 0 0 0 0 0 0 .4 0"/><feOffset dx="4.0" dy="4.0" in="blurOut2" result="blurOut3"/><feBlend in="SourceGraphic" in2="blurOut3" mode="normal"/></filter></defs><g><!--MD5=[8f8eb42f678719930d8913f6494b5043]
cluster 완전히 분리한 서비스와 테이블--><polygon fill="#FFFFFF" filter="url(#f19jr12dqcsx6v)" points="22,24,147,24,154,46.2969,586,46.2969,586,249,22,249,22,24" style="stroke: #000000; stroke-width: 1.5;"/><line style="stroke: #000000; stroke-width: 1.5;" x1="22" x2="154" y1="46.2969" y2="46.2969"/><text fill="#000000" font-family="sans-serif" font-size="14" font-weight="bold" lengthAdjust="spacingAndGlyphs" textLength="119" x="26" y="38.9951">완전히 분리한 서비스와 테이블</text><!--MD5=[b244f6153427e463418825080856ced7]
cluster REST API Layer--><polygon fill="#FFFFFF" filter="url(#f19jr12dqcsx6v)" points="46,67,170,67,177,89.2969,184,89.2969,184,225,46,225,46,67" style="stroke: #000000; stroke-width: 1.5;"/><line style="stroke: #000000; stroke-width: 1.5;" x1="46" x2="177" y1="89.2969" y2="89.2969"/><text fill="#000000" font-family="sans-serif" font-size="14" font-weight="bold" lengthAdjust="spacingAndGlyphs" textLength="118" x="50" y="81.9951">REST API Layer</text><!--MD5=[167559344b6808c6e7281c72e5103d8e]
cluster Service Layer--><polygon fill="#FFFFFF" filter="url(#f19jr12dqcsx6v)" points="212,67,326,67,333,89.2969,379,89.2969,379,225,212,225,212,67" style="stroke: #000000; stroke-width: 1.5;"/><line style="stroke: #000000; stroke-width: 1.5;" x1="212" x2="333" y1="89.2969" y2="89.2969"/><text fill="#000000" font-family="sans-serif" font-size="14" font-weight="bold" lengthAdjust="spacingAndGlyphs" textLength="108" x="216" y="81.9951">Service Layer</text><!--MD5=[023fe2768d341cd525e8503fdfbee177]
cluster Data Layer--><polygon fill="#FFFFFF" filter="url(#f19jr12dqcsx6v)" points="407,67,497,67,504,89.2969,562,89.2969,562,225,407,225,407,67" style="stroke: #000000; stroke-width: 1.5;"/><line style="stroke: #000000; stroke-width: 1.5;" x1="407" x2="504" y1="89.2969" y2="89.2969"/><text fill="#000000" font-family="sans-serif" font-size="14" font-weight="bold" lengthAdjust="spacingAndGlyphs" textLength="84" x="411" y="81.9951">Data Layer</text><!--MD5=[40925588c3c688b5f1c26d75dfca4142]
entity Apostille API--><rect fill="#FEFECE" filter="url(#f19jr12dqcsx6v)" height="36.2969" style="stroke: #A80036; stroke-width: 1.5;" width="103" x="63.5" y="102"/><rect fill="#FEFECE" height="5" style="stroke: #A80036; stroke-width: 1.5;" width="10" x="58.5" y="107"/><rect fill="#FEFECE" height="5" style="stroke: #A80036; stroke-width: 1.5;" width="10" x="58.5" y="128.2969"/><text fill="#000000" font-family="sans-serif" font-size="14" lengthAdjust="spacingAndGlyphs" textLength="83" x="73.5" y="124.9951">Apostille API</text><!--MD5=[7f74950928cce643f40b084fc7a6350c]
entity Consular API--><rect fill="#FEFECE" filter="url(#f19jr12dqcsx6v)" height="36.2969" style="stroke: #A80036; stroke-width: 1.5;" width="106" x="62" y="173"/><rect fill="#FEFECE" height="5" style="stroke: #A80036; stroke-width: 1.5;" width="10" x="57" y="178"/><rect fill="#FEFECE" height="5" style="stroke: #A80036; stroke-width: 1.5;" width="10" x="57" y="199.2969"/><text fill="#000000" font-family="sans-serif" font-size="14" lengthAdjust="spacingAndGlyphs" textLength="86" x="72" y="195.9951">Consular API</text><!--MD5=[f1d0f971a5af0ba006fd7e31a2b38879]
entity Apostille Service--><rect fill="#FEFECE" filter="url(#f19jr12dqcsx6v)" height="36.2969" style="stroke: #A80036; stroke-width: 1.5;" width="132" x="229.5" y="102"/><rect fill="#FEFECE" height="5" style="stroke: #A80036; stroke-width: 1.5;" width="10" x="224.5" y="107"/><rect fill="#FEFECE" height="5" style="stroke: #A80036; stroke-width: 1.5;" width="10" x="224.5" y="128.2969"/><text fill="#000000" font-family="sans-serif" font-size="14" lengthAdjust="spacingAndGlyphs" textLength="112" x="239.5" y="124.9951">Apostille Service</text><!--MD5=[72c8671a7da190ee5255141b8245b664]
entity Consular Service--><rect fill="#FEFECE" filter="url(#f19jr12dqcsx6v)" height="36.2969" style="stroke: #A80036; stroke-width: 1.5;" width="135" x="228" y="173"/><rect fill="#FEFECE" height="5" style="stroke: #A80036; stroke-width: 1.5;" width="10" x="223" y="178"/><rect fill="#FEFECE" height="5" style="stroke: #A80036; stroke-width: 1.5;" width="10" x="223" y="199.2969"/><text fill="#000000" font-family="sans-serif" font-size="14" lengthAdjust="spacingAndGlyphs" textLength="115" x="238" y="195.9951">Consular Service</text><!--MD5=[dda7d3ca0278a3b7ae5569cb34cae4f9]
entity Apostille Table--><rect fill="#FEFECE" filter="url(#f19jr12dqcsx6v)" height="36.2969" style="stroke: #A80036; stroke-width: 1.5;" width="120" x="424.5" y="102"/><rect fill="#FEFECE" height="5" style="stroke: #A80036; stroke-width: 1.5;" width="10" x="419.5" y="107"/><rect fill="#FEFECE" height="5" style="stroke: #A80036; stroke-width: 1.5;" width="10" x="419.5" y="128.2969"/><text fill="#000000" font-family="sans-serif" font-size="14" lengthAdjust="spacingAndGlyphs" textLength="100" x="434.5" y="124.9951">Apostille Table</text><!--MD5=[59c21086688e9bb3c4c2f2c3f6cc7fee]
entity Consular Table--><rect fill="#FEFECE" filter="url(#f19jr12dqcsx6v)" height="36.2969" style="stroke: #A80036; stroke-width: 1.5;" width="123" x="423" y="173"/><rect fill="#FEFECE" height="5" style="stroke: #A80036; stroke-width: 1.5;" width="10" x="418" y="178"/><rect fill="#FEFECE" height="5" style="stroke: #A80036; stroke-width: 1.5;" width="10" x="418" y="199.2969"/><text fill="#000000" font-family="sans-serif" font-size="14" lengthAdjust="spacingAndGlyphs" textLength="103" x="433" y="195.9951">Consular Table</text><!--MD5=[37053d73f272240ef2f5d4a39af9a630]
link Apostille API to Apostille Service--><path d="M166.67,120 C184.48,120 204.82,120 223.96,120 " fill="none" id="Apostille API-&gt;Apostille Service" style="stroke: #A80036; stroke-width: 1.0;"/><polygon fill="#A80036" points="229.33,120,220.33,116,224.33,120,220.33,124,229.33,120" style="stroke: #A80036; stroke-width: 1.0;"/><!--MD5=[1c54d27d44042ee8aab9146f0edacfc3]
link Consular API to Consular Service--><path d="M168.11,191 C185.13,191 204.35,191 222.57,191 " fill="none" id="Consular API-&gt;Consular Service" style="stroke: #A80036; stroke-width: 1.0;"/><polygon fill="#A80036" points="227.68,191,218.68,187,222.68,191,218.68,195,227.68,191" style="stroke: #A80036; stroke-width: 1.0;"/><!--MD5=[1b5d01c6125718d82d32a1a7af7f4183]
link Apostille Service to Apostille Table--><path d="M361.64,120 C380.24,120 400.48,120 419.04,120 " fill="none" id="Apostille Service-&gt;Apostille Table" style="stroke: #A80036; stroke-width: 1.0;"/><polygon fill="#A80036" points="424.22,120,415.22,116,419.22,120,415.22,124,424.22,120" style="stroke: #A80036; stroke-width: 1.0;"/><!--MD5=[df111419ad2f0481bcd77ab1abede23a]
link Consular Service to Consular Table--><path d="M363.22,191 C380.8,191 399.77,191 417.33,191 " fill="none" id="Consular Service-&gt;Consular Table" style="stroke: #A80036; stroke-width: 1.0;"/><polygon fill="#A80036" points="422.73,191,413.73,187,417.73,191,413.73,195,422.73,191" style="stroke: #A80036; stroke-width: 1.0;"/><!--MD5=[6391d7200c2f142184889648a993e319]
@startuml
left to right direction

package "완전히 분리한 서비스와 테이블" {
    package "REST API Layer" {
    [Apostille API]
    [Consular API]
    }

    package "Service Layer" {
    [Apostille Service]
    [Consular Service]
    }

    package "Data Layer" {
    [Apostille Table]
    [Consular Table]
    }

    [Apostille API] - -> [Apostille Service]
    [Consular API] - -> [Consular Service]
    [Apostille Service] - -> [Apostille Table]
    [Consular Service] - -> [Consular Table]
}

@enduml

PlantUML version 1.2020.02(Sun Mar 01 10:22:07 UTC 2020)
(GPL source distribution)
Java Runtime: OpenJDK Runtime Environment
JVM: OpenJDK 64-Bit Server VM
Java Version: 17.0.11+9-Debian-1deb12u1
Operating System: Linux
Default Encoding: UTF-8
Language: en
Country: null
--></g></svg>