<?xml version="1.0" encoding="UTF-8" standalone="no"?><svg xmlns="http://www.w3.org/2000/svg" xmlns:xlink="http://www.w3.org/1999/xlink" contentScriptType="application/ecmascript" contentStyleType="text/css" height="858px" preserveAspectRatio="none" style="width:655px;height:858px;" version="1.1" viewBox="0 0 655 858" width="655px" zoomAndPan="magnify"><defs><filter height="300%" id="f2meuf9hqjvv7" width="300%" x="-1" y="-1"><feGaussianBlur result="blurOut" stdDeviation="2.0"/><feColorMatrix in="blurOut" result="blurOut2" type="matrix" values="0 0 0 0 0 0 0 0 0 0 0 0 0 0 0 0 0 0 .4 0"/><feOffset dx="4.0" dy="4.0" in="blurOut2" result="blurOut3"/><feBlend in="SourceGraphic" in2="blurOut3" mode="normal"/></filter></defs><g><line style="stroke: #A80036; stroke-width: 1.0; stroke-dasharray: 5.0,5.0;" x1="32" x2="32" y1="86.2969" y2="770.75"/><line style="stroke: #A80036; stroke-width: 1.0; stroke-dasharray: 5.0,5.0;" x1="164" x2="164" y1="86.2969" y2="770.75"/><line style="stroke: #A80036; stroke-width: 1.0; stroke-dasharray: 5.0,5.0;" x1="467" x2="467" y1="86.2969" y2="770.75"/><text fill="#000000" font-family="sans-serif" font-size="14" lengthAdjust="spacingAndGlyphs" textLength="43" x="8" y="82.9951">Admin</text><ellipse cx="32.5" cy="13" fill="#FEFECE" filter="url(#f2meuf9hqjvv7)" rx="8" ry="8" style="stroke: #A80036; stroke-width: 2.0;"/><path d="M32.5,21 L32.5,48 M19.5,29 L45.5,29 M32.5,48 L19.5,63 M32.5,48 L45.5,63 " fill="none" filter="url(#f2meuf9hqjvv7)" style="stroke: #A80036; stroke-width: 2.0;"/><text fill="#000000" font-family="sans-serif" font-size="14" lengthAdjust="spacingAndGlyphs" textLength="43" x="8" y="782.7451">Admin</text><ellipse cx="32.5" cy="796.0469" fill="#FEFECE" filter="url(#f2meuf9hqjvv7)" rx="8" ry="8" style="stroke: #A80036; stroke-width: 2.0;"/><path d="M32.5,804.0469 L32.5,831.0469 M19.5,812.0469 L45.5,812.0469 M32.5,831.0469 L19.5,846.0469 M32.5,831.0469 L45.5,846.0469 " fill="none" filter="url(#f2meuf9hqjvv7)" style="stroke: #A80036; stroke-width: 2.0;"/><rect fill="#FEFECE" filter="url(#f2meuf9hqjvv7)" height="30.2969" style="stroke: #A80036; stroke-width: 1.5;" width="77" x="124" y="51"/><text fill="#000000" font-family="sans-serif" font-size="14" lengthAdjust="spacingAndGlyphs" textLength="63" x="131" y="70.9951">Frontend</text><rect fill="#FEFECE" filter="url(#f2meuf9hqjvv7)" height="30.2969" style="stroke: #A80036; stroke-width: 1.5;" width="77" x="124" y="769.75"/><text fill="#000000" font-family="sans-serif" font-size="14" lengthAdjust="spacingAndGlyphs" textLength="63" x="131" y="789.7451">Frontend</text><rect fill="#FEFECE" filter="url(#f2meuf9hqjvv7)" height="30.2969" style="stroke: #A80036; stroke-width: 1.5;" width="75" x="428" y="51"/><text fill="#000000" font-family="sans-serif" font-size="14" lengthAdjust="spacingAndGlyphs" textLength="61" x="435" y="70.9951">Backend</text><rect fill="#FEFECE" filter="url(#f2meuf9hqjvv7)" height="30.2969" style="stroke: #A80036; stroke-width: 1.5;" width="75" x="428" y="769.75"/><text fill="#000000" font-family="sans-serif" font-size="14" lengthAdjust="spacingAndGlyphs" textLength="61" x="435" y="789.7451">Backend</text><polygon fill="#A80036" points="152.5,113.4297,162.5,117.4297,152.5,121.4297,156.5,117.4297" style="stroke: #A80036; stroke-width: 1.0;"/><line style="stroke: #A80036; stroke-width: 1.0;" x1="32.5" x2="158.5" y1="117.4297" y2="117.4297"/><text fill="#000000" font-family="sans-serif" font-size="13" lengthAdjust="spacingAndGlyphs" textLength="108" x="39.5" y="112.3638">상영시간 생성 페이지를 방문</text><polygon fill="#A80036" points="455.5,157.6953,465.5,161.6953,455.5,165.6953,459.5,161.6953" style="stroke: #A80036; stroke-width: 1.0;"/><line style="stroke: #A80036; stroke-width: 1.0;" x1="164.5" x2="461.5" y1="161.6953" y2="161.6953"/><text fill="#000000" font-family="sans-serif" font-size="13" lengthAdjust="spacingAndGlyphs" textLength="56" x="171.5" y="141.4966">영화 목록 요청</text><text fill="#000000" font-family="sans-serif" font-size="13" lengthAdjust="spacingAndGlyphs" textLength="201" x="171.5" y="156.6294">GET /showtime-creation/movies</text><polygon fill="#A80036" points="175.5,186.8281,165.5,190.8281,175.5,194.8281,171.5,190.8281" style="stroke: #A80036; stroke-width: 1.0;"/><line style="stroke: #A80036; stroke-width: 1.0; stroke-dasharray: 2.0,2.0;" x1="169.5" x2="466.5" y1="190.8281" y2="190.8281"/><text fill="#000000" font-family="sans-serif" font-size="13" lengthAdjust="spacingAndGlyphs" textLength="56" x="181.5" y="185.7622">movies[]</text><polygon fill="#A80036" points="43.5,215.9609,33.5,219.9609,43.5,223.9609,39.5,219.9609" style="stroke: #A80036; stroke-width: 1.0;"/><line style="stroke: #A80036; stroke-width: 1.0; stroke-dasharray: 2.0,2.0;" x1="37.5" x2="163.5" y1="219.9609" y2="219.9609"/><text fill="#000000" font-family="sans-serif" font-size="13" lengthAdjust="spacingAndGlyphs" textLength="56" x="49.5" y="214.895">영화 목록 제공</text><polygon fill="#A80036" points="152.5,245.0938,162.5,249.0938,152.5,253.0938,156.5,249.0938" style="stroke: #A80036; stroke-width: 1.0;"/><line style="stroke: #A80036; stroke-width: 1.0;" x1="32.5" x2="158.5" y1="249.0938" y2="249.0938"/><text fill="#000000" font-family="sans-serif" font-size="13" lengthAdjust="spacingAndGlyphs" textLength="36" x="39.5" y="244.0278">영화 선택</text><polygon fill="#A80036" points="455.5,289.3594,465.5,293.3594,455.5,297.3594,459.5,293.3594" style="stroke: #A80036; stroke-width: 1.0;"/><line style="stroke: #A80036; stroke-width: 1.0;" x1="164.5" x2="461.5" y1="293.3594" y2="293.3594"/><text fill="#000000" font-family="sans-serif" font-size="13" lengthAdjust="spacingAndGlyphs" textLength="56" x="171.5" y="273.1606">극장 목록 요청</text><text fill="#000000" font-family="sans-serif" font-size="13" lengthAdjust="spacingAndGlyphs" textLength="209" x="171.5" y="288.2935">GET /showtime-creation/theaters</text><polygon fill="#A80036" points="175.5,318.4922,165.5,322.4922,175.5,326.4922,171.5,322.4922" style="stroke: #A80036; stroke-width: 1.0;"/><line style="stroke: #A80036; stroke-width: 1.0; stroke-dasharray: 2.0,2.0;" x1="169.5" x2="466.5" y1="322.4922" y2="322.4922"/><text fill="#000000" font-family="sans-serif" font-size="13" lengthAdjust="spacingAndGlyphs" textLength="64" x="181.5" y="317.4263">theaters[]</text><polygon fill="#A80036" points="43.5,347.625,33.5,351.625,43.5,355.625,39.5,351.625" style="stroke: #A80036; stroke-width: 1.0;"/><line style="stroke: #A80036; stroke-width: 1.0; stroke-dasharray: 2.0,2.0;" x1="37.5" x2="163.5" y1="351.625" y2="351.625"/><text fill="#000000" font-family="sans-serif" font-size="13" lengthAdjust="spacingAndGlyphs" textLength="56" x="49.5" y="346.5591">극장 목록 제공</text><polygon fill="#A80036" points="152.5,376.7578,162.5,380.7578,152.5,384.7578,156.5,380.7578" style="stroke: #A80036; stroke-width: 1.0;"/><line style="stroke: #A80036; stroke-width: 1.0;" x1="32.5" x2="158.5" y1="380.7578" y2="380.7578"/><text fill="#000000" font-family="sans-serif" font-size="13" lengthAdjust="spacingAndGlyphs" textLength="36" x="39.5" y="375.6919">극장 선택</text><polygon fill="#A80036" points="455.5,433.5898,465.5,437.5898,455.5,441.5898,459.5,437.5898" style="stroke: #A80036; stroke-width: 1.0;"/><line style="stroke: #A80036; stroke-width: 1.0;" x1="164.5" x2="461.5" y1="437.5898" y2="437.5898"/><text fill="#000000" font-family="sans-serif" font-size="13" lengthAdjust="spacingAndGlyphs" textLength="72" x="171.5" y="417.3911">상영시간 목록 요청</text><text fill="#000000" font-family="sans-serif" font-size="13" lengthAdjust="spacingAndGlyphs" textLength="279" x="171.5" y="432.5239">POST /showtime-creation/showtimes/search</text><path d="M472,393.7578 L472,448.7578 L643,448.7578 L643,403.7578 L633,393.7578 L472,393.7578 " fill="#FBFB77" filter="url(#f2meuf9hqjvv7)" style="stroke: #A80036; stroke-width: 1.0;"/><path d="M633,393.7578 L633,403.7578 L643,403.7578 L633,393.7578 " fill="#FBFB77" style="stroke: #A80036; stroke-width: 1.0;"/><text fill="#000000" font-family="sans-serif" font-size="13" lengthAdjust="spacingAndGlyphs" textLength="150" x="478" y="410.8247">ShowtimesSearchDto {</text><text fill="#000000" font-family="sans-serif" font-size="13" lengthAdjust="spacingAndGlyphs" textLength="69" x="494" y="425.9575">theaterIds,</text><text fill="#000000" font-family="sans-serif" font-size="13" lengthAdjust="spacingAndGlyphs" textLength="8" x="478" y="441.0903">}</text><polygon fill="#A80036" points="175.5,475.2891,165.5,479.2891,175.5,483.2891,171.5,479.2891" style="stroke: #A80036; stroke-width: 1.0;"/><line style="stroke: #A80036; stroke-width: 1.0; stroke-dasharray: 2.0,2.0;" x1="169.5" x2="466.5" y1="479.2891" y2="479.2891"/><text fill="#000000" font-family="sans-serif" font-size="13" lengthAdjust="spacingAndGlyphs" textLength="78" x="181.5" y="474.2231">showtimes[]</text><polygon fill="#A80036" points="43.5,504.4219,33.5,508.4219,43.5,512.4219,39.5,508.4219" style="stroke: #A80036; stroke-width: 1.0;"/><line style="stroke: #A80036; stroke-width: 1.0; stroke-dasharray: 2.0,2.0;" x1="37.5" x2="163.5" y1="508.4219" y2="508.4219"/><text fill="#000000" font-family="sans-serif" font-size="13" lengthAdjust="spacingAndGlyphs" textLength="72" x="49.5" y="503.356">상영시간 목록 제공</text><line style="stroke: #A80036; stroke-width: 1.0;" x1="32.5" x2="74.5" y1="537.5547" y2="537.5547"/><line style="stroke: #A80036; stroke-width: 1.0;" x1="74.5" x2="74.5" y1="537.5547" y2="550.5547"/><line style="stroke: #A80036; stroke-width: 1.0;" x1="33.5" x2="74.5" y1="550.5547" y2="550.5547"/><polygon fill="#A80036" points="43.5,546.5547,33.5,550.5547,43.5,554.5547,39.5,550.5547" style="stroke: #A80036; stroke-width: 1.0;"/><text fill="#000000" font-family="sans-serif" font-size="13" lengthAdjust="spacingAndGlyphs" textLength="52" x="39.5" y="532.4888">상영시간 선택</text><polygon fill="#A80036" points="152.5,575.6875,162.5,579.6875,152.5,583.6875,156.5,579.6875" style="stroke: #A80036; stroke-width: 1.0;"/><line style="stroke: #A80036; stroke-width: 1.0;" x1="32.5" x2="158.5" y1="579.6875" y2="579.6875"/><text fill="#000000" font-family="sans-serif" font-size="13" lengthAdjust="spacingAndGlyphs" textLength="72" x="39.5" y="574.6216">상영시간 생성 요청</text><polygon fill="#A80036" points="455.5,655.2188,465.5,659.2188,455.5,663.2188,459.5,659.2188" style="stroke: #A80036; stroke-width: 1.0;"/><line style="stroke: #A80036; stroke-width: 1.0;" x1="164.5" x2="461.5" y1="659.2188" y2="659.2188"/><text fill="#000000" font-family="sans-serif" font-size="13" lengthAdjust="spacingAndGlyphs" textLength="72" x="171.5" y="639.02">상영시간 생성 요청</text><text fill="#000000" font-family="sans-serif" font-size="13" lengthAdjust="spacingAndGlyphs" textLength="232" x="171.5" y="654.1528">POST /showtime-creation/showtimes</text><path d="M472,592.6875 L472,692.6875 L641,692.6875 L641,602.6875 L631,592.6875 L472,592.6875 " fill="#FBFB77" filter="url(#f2meuf9hqjvv7)" style="stroke: #A80036; stroke-width: 1.0;"/><path d="M631,592.6875 L631,602.6875 L641,602.6875 L631,592.6875 " fill="#FBFB77" style="stroke: #A80036; stroke-width: 1.0;"/><text fill="#000000" font-family="sans-serif" font-size="13" lengthAdjust="spacingAndGlyphs" textLength="148" x="478" y="609.7544">ShowtimesCreateDto {</text><text fill="#000000" font-family="sans-serif" font-size="13" lengthAdjust="spacingAndGlyphs" textLength="54" x="494" y="624.8872">movieId,</text><text fill="#000000" font-family="sans-serif" font-size="13" lengthAdjust="spacingAndGlyphs" textLength="69" x="494" y="640.02">theaterIds,</text><text fill="#000000" font-family="sans-serif" font-size="13" lengthAdjust="spacingAndGlyphs" textLength="72" x="494" y="655.1528">startTimes,</text><text fill="#000000" font-family="sans-serif" font-size="13" lengthAdjust="spacingAndGlyphs" textLength="103" x="494" y="670.2856">durationMinutes</text><text fill="#000000" font-family="sans-serif" font-size="13" lengthAdjust="spacingAndGlyphs" textLength="8" x="478" y="685.4185">}</text><polygon fill="#A80036" points="175.5,719.6172,165.5,723.6172,175.5,727.6172,171.5,723.6172" style="stroke: #A80036; stroke-width: 1.0;"/><line style="stroke: #A80036; stroke-width: 1.0; stroke-dasharray: 2.0,2.0;" x1="169.5" x2="466.5" y1="723.6172" y2="723.6172"/><text fill="#000000" font-family="sans-serif" font-size="13" lengthAdjust="spacingAndGlyphs" textLength="85" x="181.5" y="718.5513">Created(201)</text><polygon fill="#A80036" points="43.5,748.75,33.5,752.75,43.5,756.75,39.5,752.75" style="stroke: #A80036; stroke-width: 1.0;"/><line style="stroke: #A80036; stroke-width: 1.0; stroke-dasharray: 2.0,2.0;" x1="37.5" x2="163.5" y1="752.75" y2="752.75"/><text fill="#000000" font-family="sans-serif" font-size="13" lengthAdjust="spacingAndGlyphs" textLength="92" x="49.5" y="747.6841">상영시간 생성 성공 화면</text><!--MD5=[3823c3d12177e34a4e8e6909e13f6784]
@startuml
actor Admin
Admin -> Frontend: 상영시간 생성 페이지를 방문
    Frontend -> Backend: 영화 목록 요청\nGET /showtime-creation/movies
    Frontend <- - Backend: movies[]
Admin <- - Frontend: 영화 목록 제공

Admin -> Frontend: 영화 선택
    Frontend -> Backend: 극장 목록 요청\nGET /showtime-creation/theaters
    Frontend <- - Backend: theaters[]
Admin <- - Frontend: 극장 목록 제공

Admin -> Frontend: 극장 선택
    Frontend -> Backend: 상영시간 목록 요청\nPOST /showtime-creation/showtimes/search
        note right
            ShowtimesSearchDto {
                theaterIds,
            }
        end note

    Frontend <- - Backend: showtimes[]
Admin <- - Frontend: 상영시간 목록 제공

Admin -> Admin: 상영시간 선택

Admin -> Frontend: 상영시간 생성 요청
    Frontend -> Backend: 상영시간 생성 요청\nPOST /showtime-creation/showtimes
        note right
            ShowtimesCreateDto {
                movieId,
                theaterIds,
                startTimes,
                durationMinutes
            }
        end note
    Frontend <- - Backend: Created(201)
Admin <- - Frontend: 상영시간 생성 성공 화면

@enduml

PlantUML version 1.2020.02(Sun Mar 01 10:22:07 UTC 2020)
(GPL source distribution)
Java Runtime: OpenJDK Runtime Environment
JVM: OpenJDK 64-Bit Server VM
Java Version: 17.0.15+6-Debian-1deb12u1
Operating System: Linux
Default Encoding: UTF-8
Language: ko
Country: KR
--></g></svg>