<?xml version="1.0" encoding="UTF-8" standalone="no"?><svg xmlns="http://www.w3.org/2000/svg" xmlns:xlink="http://www.w3.org/1999/xlink" contentScriptType="application/ecmascript" contentStyleType="text/css" height="543px" preserveAspectRatio="none" style="width:287px;height:543px;" version="1.1" viewBox="0 0 287 543" width="287px" zoomAndPan="magnify"><defs><filter height="300%" id="f58o8lo5yhq29" width="300%" x="-1" y="-1"><feGaussianBlur result="blurOut" stdDeviation="2.0"/><feColorMatrix in="blurOut" result="blurOut2" type="matrix" values="0 0 0 0 0 0 0 0 0 0 0 0 0 0 0 0 0 0 .4 0"/><feOffset dx="4.0" dy="4.0" in="blurOut2" result="blurOut3"/><feBlend in="SourceGraphic" in2="blurOut3" mode="normal"/></filter></defs><g><line style="stroke: #A80036; stroke-width: 1.0; stroke-dasharray: 5.0,5.0;" x1="23" x2="23" y1="86.2969" y2="455.8906"/><line style="stroke: #A80036; stroke-width: 1.0; stroke-dasharray: 5.0,5.0;" x1="138.5" x2="138.5" y1="86.2969" y2="455.8906"/><line style="stroke: #A80036; stroke-width: 1.0; stroke-dasharray: 5.0,5.0;" x1="240.5" x2="240.5" y1="86.2969" y2="455.8906"/><text fill="#000000" font-family="sans-serif" font-size="14" lengthAdjust="spacingAndGlyphs" textLength="24" x="8" y="82.9951">사용자</text><ellipse cx="23" cy="13" fill="#FEFECE" filter="url(#f58o8lo5yhq29)" rx="8" ry="8" style="stroke: #A80036; stroke-width: 2.0;"/><path d="M23,21 L23,48 M10,29 L36,29 M23,48 L10,63 M23,48 L36,63 " fill="none" filter="url(#f58o8lo5yhq29)" style="stroke: #A80036; stroke-width: 2.0;"/><text fill="#000000" font-family="sans-serif" font-size="14" lengthAdjust="spacingAndGlyphs" textLength="24" x="8" y="467.8857">사용자</text><ellipse cx="23" cy="481.1875" fill="#FEFECE" filter="url(#f58o8lo5yhq29)" rx="8" ry="8" style="stroke: #A80036; stroke-width: 2.0;"/><path d="M23,489.1875 L23,516.1875 M10,497.1875 L36,497.1875 M23,516.1875 L10,531.1875 M23,516.1875 L36,531.1875 " fill="none" filter="url(#f58o8lo5yhq29)" style="stroke: #A80036; stroke-width: 2.0;"/><rect fill="#FEFECE" filter="url(#f58o8lo5yhq29)" height="30.2969" style="stroke: #A80036; stroke-width: 1.5;" width="77" x="98.5" y="51"/><text fill="#000000" font-family="sans-serif" font-size="14" lengthAdjust="spacingAndGlyphs" textLength="63" x="105.5" y="70.9951">Frontend</text><rect fill="#FEFECE" filter="url(#f58o8lo5yhq29)" height="30.2969" style="stroke: #A80036; stroke-width: 1.5;" width="77" x="98.5" y="454.8906"/><text fill="#000000" font-family="sans-serif" font-size="14" lengthAdjust="spacingAndGlyphs" textLength="63" x="105.5" y="474.8857">Frontend</text><rect fill="#FEFECE" filter="url(#f58o8lo5yhq29)" height="30.2969" style="stroke: #A80036; stroke-width: 1.5;" width="75" x="201.5" y="51"/><text fill="#000000" font-family="sans-serif" font-size="14" lengthAdjust="spacingAndGlyphs" textLength="61" x="208.5" y="70.9951">Backend</text><rect fill="#FEFECE" filter="url(#f58o8lo5yhq29)" height="30.2969" style="stroke: #A80036; stroke-width: 1.5;" width="75" x="201.5" y="454.8906"/><text fill="#000000" font-family="sans-serif" font-size="14" lengthAdjust="spacingAndGlyphs" textLength="61" x="208.5" y="474.8857">Backend</text><polygon fill="#A80036" points="127,113.4297,137,117.4297,127,121.4297,131,117.4297" style="stroke: #A80036; stroke-width: 1.0;"/><line style="stroke: #A80036; stroke-width: 1.0;" x1="23" x2="133" y1="117.4297" y2="117.4297"/><text fill="#000000" font-family="sans-serif" font-size="13" lengthAdjust="spacingAndGlyphs" textLength="92" x="30" y="112.3638">영화 예매 시스템에 접속</text><polygon fill="#A80036" points="229,142.5625,239,146.5625,229,150.5625,233,146.5625" style="stroke: #A80036; stroke-width: 1.0;"/><line style="stroke: #A80036; stroke-width: 1.0;" x1="139" x2="235" y1="146.5625" y2="146.5625"/><text fill="#000000" font-family="sans-serif" font-size="13" lengthAdjust="spacingAndGlyphs" textLength="76" x="146" y="141.4966">상영 영화 목록 요청</text><polygon fill="#A80036" points="150,171.6953,140,175.6953,150,179.6953,146,175.6953" style="stroke: #A80036; stroke-width: 1.0;"/><line style="stroke: #A80036; stroke-width: 1.0; stroke-dasharray: 2.0,2.0;" x1="144" x2="240" y1="175.6953" y2="175.6953"/><text fill="#000000" font-family="sans-serif" font-size="13" lengthAdjust="spacingAndGlyphs" textLength="56" x="156" y="170.6294">movies[]</text><polygon fill="#A80036" points="34,200.8281,24,204.8281,34,208.8281,30,204.8281" style="stroke: #A80036; stroke-width: 1.0;"/><line style="stroke: #A80036; stroke-width: 1.0; stroke-dasharray: 2.0,2.0;" x1="28" x2="138" y1="204.8281" y2="204.8281"/><text fill="#000000" font-family="sans-serif" font-size="13" lengthAdjust="spacingAndGlyphs" textLength="56" x="40" y="199.7622">영화 목록 제공</text><polygon fill="#A80036" points="127,229.9609,137,233.9609,127,237.9609,131,233.9609" style="stroke: #A80036; stroke-width: 1.0;"/><line style="stroke: #A80036; stroke-width: 1.0;" x1="23" x2="133" y1="233.9609" y2="233.9609"/><text fill="#000000" font-family="sans-serif" font-size="13" lengthAdjust="spacingAndGlyphs" textLength="36" x="30" y="228.895">영화 선택</text><polygon fill="#A80036" points="229,259.0938,239,263.0938,229,267.0938,233,263.0938" style="stroke: #A80036; stroke-width: 1.0;"/><line style="stroke: #A80036; stroke-width: 1.0;" x1="139" x2="235" y1="263.0938" y2="263.0938"/><text fill="#000000" font-family="sans-serif" font-size="13" lengthAdjust="spacingAndGlyphs" textLength="76" x="146" y="258.0278">상영 극장 목록 요청</text><polygon fill="#A80036" points="150,288.2266,140,292.2266,150,296.2266,146,292.2266" style="stroke: #A80036; stroke-width: 1.0;"/><line style="stroke: #A80036; stroke-width: 1.0; stroke-dasharray: 2.0,2.0;" x1="144" x2="240" y1="292.2266" y2="292.2266"/><text fill="#000000" font-family="sans-serif" font-size="13" lengthAdjust="spacingAndGlyphs" textLength="64" x="156" y="287.1606">theaters[]</text><polygon fill="#A80036" points="34,317.3594,24,321.3594,34,325.3594,30,321.3594" style="stroke: #A80036; stroke-width: 1.0;"/><line style="stroke: #A80036; stroke-width: 1.0; stroke-dasharray: 2.0,2.0;" x1="28" x2="138" y1="321.3594" y2="321.3594"/><text fill="#000000" font-family="sans-serif" font-size="13" lengthAdjust="spacingAndGlyphs" textLength="56" x="40" y="316.2935">극장 목록 제공</text><polygon fill="#A80036" points="127,346.4922,137,350.4922,127,354.4922,131,350.4922" style="stroke: #A80036; stroke-width: 1.0;"/><line style="stroke: #A80036; stroke-width: 1.0;" x1="23" x2="133" y1="350.4922" y2="350.4922"/><text fill="#000000" font-family="sans-serif" font-size="13" lengthAdjust="spacingAndGlyphs" textLength="36" x="30" y="345.4263">극장 선택</text><polygon fill="#A80036" points="229,375.625,239,379.625,229,383.625,233,379.625" style="stroke: #A80036; stroke-width: 1.0;"/><line style="stroke: #A80036; stroke-width: 1.0;" x1="139" x2="235" y1="379.625" y2="379.625"/><text fill="#000000" font-family="sans-serif" font-size="13" lengthAdjust="spacingAndGlyphs" textLength="64" x="146" y="374.5591">상영일 목록 요청</text><polygon fill="#A80036" points="150,404.7578,140,408.7578,150,412.7578,146,408.7578" style="stroke: #A80036; stroke-width: 1.0;"/><line style="stroke: #A80036; stroke-width: 1.0; stroke-dasharray: 2.0,2.0;" x1="144" x2="240" y1="408.7578" y2="408.7578"/><text fill="#000000" font-family="sans-serif" font-size="13" lengthAdjust="spacingAndGlyphs" textLength="78" x="156" y="403.6919">showdates[]</text><polygon fill="#A80036" points="34,433.8906,24,437.8906,34,441.8906,30,437.8906" style="stroke: #A80036; stroke-width: 1.0;"/><line style="stroke: #A80036; stroke-width: 1.0; stroke-dasharray: 2.0,2.0;" x1="28" x2="138" y1="437.8906" y2="437.8906"/><text fill="#000000" font-family="sans-serif" font-size="13" lengthAdjust="spacingAndGlyphs" textLength="64" x="40" y="432.8247">상영일 목록 제공</text><!--MD5=[6db3c6a852155c3e68ae4ec84733bb84]
@startuml
actor 사용자 as customer
participant "Frontend" as front
participant "Backend" as back

customer -> front : 영화 예매 시스템에 접속
front -> back : 상영 영화 목록 요청
front <- - back : movies[]
customer <- - front : 영화 목록 제공
customer -> front : 영화 선택
front -> back : 상영 극장 목록 요청
front <- - back : theaters[]
customer <- - front : 극장 목록 제공
customer -> front : 극장 선택
front -> back : 상영일 목록 요청
front <- - back : showdates[]
customer <- - front : 상영일 목록 제공
@enduml

PlantUML version 1.2020.02(Sun Mar 01 10:22:07 UTC 2020)
(GPL source distribution)
Java Runtime: OpenJDK Runtime Environment
JVM: OpenJDK 64-Bit Server VM
Java Version: 17.0.11+9-Debian-1deb12u1
Operating System: Linux
Default Encoding: UTF-8
Language: en
Country: null
--></g></svg>