<?xml version="1.0" encoding="UTF-8" standalone="no"?><svg xmlns="http://www.w3.org/2000/svg" xmlns:xlink="http://www.w3.org/1999/xlink" contentScriptType="application/ecmascript" contentStyleType="text/css" height="819px" preserveAspectRatio="none" style="width:670px;height:819px;" version="1.1" viewBox="0 0 670 819" width="670px" zoomAndPan="magnify"><defs><filter height="300%" id="f144da0sqmq101" width="300%" x="-1" y="-1"><feGaussianBlur result="blurOut" stdDeviation="2.0"/><feColorMatrix in="blurOut" result="blurOut2" type="matrix" values="0 0 0 0 0 0 0 0 0 0 0 0 0 0 0 0 0 0 .4 0"/><feOffset dx="4.0" dy="4.0" in="blurOut2" result="blurOut3"/><feBlend in="SourceGraphic" in2="blurOut3" mode="normal"/></filter></defs><g><line style="stroke: #A80036; stroke-width: 1.0; stroke-dasharray: 5.0,5.0;" x1="32" x2="32" y1="86.2969" y2="732.6172"/><line style="stroke: #A80036; stroke-width: 1.0; stroke-dasharray: 5.0,5.0;" x1="202" x2="202" y1="86.2969" y2="732.6172"/><line style="stroke: #A80036; stroke-width: 1.0; stroke-dasharray: 5.0,5.0;" x1="484" x2="484" y1="86.2969" y2="732.6172"/><text fill="#000000" font-family="sans-serif" font-size="14" lengthAdjust="spacingAndGlyphs" textLength="43" x="8" y="82.9951">Admin</text><ellipse cx="32.5" cy="13" fill="#FEFECE" filter="url(#f144da0sqmq101)" rx="8" ry="8" style="stroke: #A80036; stroke-width: 2.0;"/><path d="M32.5,21 L32.5,48 M19.5,29 L45.5,29 M32.5,48 L19.5,63 M32.5,48 L45.5,63 " fill="none" filter="url(#f144da0sqmq101)" style="stroke: #A80036; stroke-width: 2.0;"/><text fill="#000000" font-family="sans-serif" font-size="14" lengthAdjust="spacingAndGlyphs" textLength="43" x="8" y="744.6123">Admin</text><ellipse cx="32.5" cy="757.9141" fill="#FEFECE" filter="url(#f144da0sqmq101)" rx="8" ry="8" style="stroke: #A80036; stroke-width: 2.0;"/><path d="M32.5,765.9141 L32.5,792.9141 M19.5,773.9141 L45.5,773.9141 M32.5,792.9141 L19.5,807.9141 M32.5,792.9141 L45.5,807.9141 " fill="none" filter="url(#f144da0sqmq101)" style="stroke: #A80036; stroke-width: 2.0;"/><rect fill="#FEFECE" filter="url(#f144da0sqmq101)" height="30.2969" style="stroke: #A80036; stroke-width: 1.5;" width="77" x="162" y="51"/><text fill="#000000" font-family="sans-serif" font-size="14" lengthAdjust="spacingAndGlyphs" textLength="63" x="169" y="70.9951">Frontend</text><rect fill="#FEFECE" filter="url(#f144da0sqmq101)" height="30.2969" style="stroke: #A80036; stroke-width: 1.5;" width="77" x="162" y="731.6172"/><text fill="#000000" font-family="sans-serif" font-size="14" lengthAdjust="spacingAndGlyphs" textLength="63" x="169" y="751.6123">Frontend</text><rect fill="#FEFECE" filter="url(#f144da0sqmq101)" height="30.2969" style="stroke: #A80036; stroke-width: 1.5;" width="75" x="445" y="51"/><text fill="#000000" font-family="sans-serif" font-size="14" lengthAdjust="spacingAndGlyphs" textLength="61" x="452" y="70.9951">Backend</text><rect fill="#FEFECE" filter="url(#f144da0sqmq101)" height="30.2969" style="stroke: #A80036; stroke-width: 1.5;" width="75" x="445" y="731.6172"/><text fill="#000000" font-family="sans-serif" font-size="14" lengthAdjust="spacingAndGlyphs" textLength="61" x="452" y="751.6123">Backend</text><polygon fill="#A80036" points="190.5,113.4297,200.5,117.4297,190.5,121.4297,194.5,117.4297" style="stroke: #A80036; stroke-width: 1.0;"/><line style="stroke: #A80036; stroke-width: 1.0;" x1="32.5" x2="196.5" y1="117.4297" y2="117.4297"/><text fill="#000000" font-family="sans-serif" font-size="13" lengthAdjust="spacingAndGlyphs" textLength="146" x="39.5" y="112.3638">(트리거) 상영시간 생성 페이지를 방문</text><polygon fill="#A80036" points="472.5,157.6953,482.5,161.6953,472.5,165.6953,476.5,161.6953" style="stroke: #A80036; stroke-width: 1.0;"/><line style="stroke: #A80036; stroke-width: 1.0;" x1="202.5" x2="478.5" y1="161.6953" y2="161.6953"/><text fill="#000000" font-family="sans-serif" font-size="13" lengthAdjust="spacingAndGlyphs" textLength="56" x="209.5" y="141.4966">영화 목록 요청</text><text fill="#000000" font-family="sans-serif" font-size="13" lengthAdjust="spacingAndGlyphs" textLength="258" x="209.5" y="156.6294">GET /movies?orderby=releaseDate:desc</text><polygon fill="#A80036" points="213.5,186.8281,203.5,190.8281,213.5,194.8281,209.5,190.8281" style="stroke: #A80036; stroke-width: 1.0;"/><line style="stroke: #A80036; stroke-width: 1.0; stroke-dasharray: 2.0,2.0;" x1="207.5" x2="483.5" y1="190.8281" y2="190.8281"/><text fill="#000000" font-family="sans-serif" font-size="13" lengthAdjust="spacingAndGlyphs" textLength="56" x="219.5" y="185.7622">movies[]</text><polygon fill="#A80036" points="43.5,215.9609,33.5,219.9609,43.5,223.9609,39.5,219.9609" style="stroke: #A80036; stroke-width: 1.0;"/><line style="stroke: #A80036; stroke-width: 1.0; stroke-dasharray: 2.0,2.0;" x1="37.5" x2="201.5" y1="219.9609" y2="219.9609"/><text fill="#000000" font-family="sans-serif" font-size="13" lengthAdjust="spacingAndGlyphs" textLength="78" x="49.5" y="214.895">(1) 영화 목록 제공</text><polygon fill="#A80036" points="190.5,245.0938,200.5,249.0938,190.5,253.0938,194.5,249.0938" style="stroke: #A80036; stroke-width: 1.0;"/><line style="stroke: #A80036; stroke-width: 1.0;" x1="32.5" x2="196.5" y1="249.0938" y2="249.0938"/><text fill="#000000" font-family="sans-serif" font-size="13" lengthAdjust="spacingAndGlyphs" textLength="58" x="39.5" y="244.0278">(2) 영화 선택</text><polygon fill="#A80036" points="472.5,289.3594,482.5,293.3594,472.5,297.3594,476.5,293.3594" style="stroke: #A80036; stroke-width: 1.0;"/><line style="stroke: #A80036; stroke-width: 1.0;" x1="202.5" x2="478.5" y1="293.3594" y2="293.3594"/><text fill="#000000" font-family="sans-serif" font-size="13" lengthAdjust="spacingAndGlyphs" textLength="56" x="209.5" y="273.1606">극장 목록 요청</text><text fill="#000000" font-family="sans-serif" font-size="13" lengthAdjust="spacingAndGlyphs" textLength="217" x="209.5" y="288.2935">GET /theaters?orderby=name:asc</text><polygon fill="#A80036" points="213.5,318.4922,203.5,322.4922,213.5,326.4922,209.5,322.4922" style="stroke: #A80036; stroke-width: 1.0;"/><line style="stroke: #A80036; stroke-width: 1.0; stroke-dasharray: 2.0,2.0;" x1="207.5" x2="483.5" y1="322.4922" y2="322.4922"/><text fill="#000000" font-family="sans-serif" font-size="13" lengthAdjust="spacingAndGlyphs" textLength="64" x="219.5" y="317.4263">theaters[]</text><polygon fill="#A80036" points="43.5,347.625,33.5,351.625,43.5,355.625,39.5,351.625" style="stroke: #A80036; stroke-width: 1.0;"/><line style="stroke: #A80036; stroke-width: 1.0; stroke-dasharray: 2.0,2.0;" x1="37.5" x2="201.5" y1="351.625" y2="351.625"/><text fill="#000000" font-family="sans-serif" font-size="13" lengthAdjust="spacingAndGlyphs" textLength="78" x="49.5" y="346.5591">(3) 극장 목록 제공</text><polygon fill="#A80036" points="190.5,376.7578,200.5,380.7578,190.5,384.7578,194.5,380.7578" style="stroke: #A80036; stroke-width: 1.0;"/><line style="stroke: #A80036; stroke-width: 1.0;" x1="32.5" x2="196.5" y1="380.7578" y2="380.7578"/><text fill="#000000" font-family="sans-serif" font-size="13" lengthAdjust="spacingAndGlyphs" textLength="58" x="39.5" y="375.6919">(4) 극장 선택</text><polygon fill="#A80036" points="472.5,421.0234,482.5,425.0234,472.5,429.0234,476.5,425.0234" style="stroke: #A80036; stroke-width: 1.0;"/><line style="stroke: #A80036; stroke-width: 1.0;" x1="202.5" x2="478.5" y1="425.0234" y2="425.0234"/><text fill="#000000" font-family="sans-serif" font-size="13" lengthAdjust="spacingAndGlyphs" textLength="72" x="209.5" y="404.8247">상영시간 목록 요청</text><text fill="#000000" font-family="sans-serif" font-size="13" lengthAdjust="spacingAndGlyphs" textLength="194" x="209.5" y="419.9575">GET /showtimes?theaterIds=[]</text><polygon fill="#A80036" points="213.5,450.1563,203.5,454.1563,213.5,458.1563,209.5,454.1563" style="stroke: #A80036; stroke-width: 1.0;"/><line style="stroke: #A80036; stroke-width: 1.0; stroke-dasharray: 2.0,2.0;" x1="207.5" x2="483.5" y1="454.1563" y2="454.1563"/><text fill="#000000" font-family="sans-serif" font-size="13" lengthAdjust="spacingAndGlyphs" textLength="78" x="219.5" y="449.0903">showtimes[]</text><polygon fill="#A80036" points="43.5,479.2891,33.5,483.2891,43.5,487.2891,39.5,483.2891" style="stroke: #A80036; stroke-width: 1.0;"/><line style="stroke: #A80036; stroke-width: 1.0; stroke-dasharray: 2.0,2.0;" x1="37.5" x2="201.5" y1="483.2891" y2="483.2891"/><text fill="#000000" font-family="sans-serif" font-size="13" lengthAdjust="spacingAndGlyphs" textLength="94" x="49.5" y="478.2231">(5) 상영시간 목록 제공</text><polygon fill="#A80036" points="190.5,508.4219,200.5,512.4219,190.5,516.4219,194.5,512.4219" style="stroke: #A80036; stroke-width: 1.0;"/><line style="stroke: #A80036; stroke-width: 1.0;" x1="32.5" x2="196.5" y1="512.4219" y2="512.4219"/><text fill="#000000" font-family="sans-serif" font-size="13" lengthAdjust="spacingAndGlyphs" textLength="74" x="39.5" y="507.356">(6) 상영시간 선택</text><polygon fill="#A80036" points="190.5,537.5547,200.5,541.5547,190.5,545.5547,194.5,541.5547" style="stroke: #A80036; stroke-width: 1.0;"/><line style="stroke: #A80036; stroke-width: 1.0;" x1="32.5" x2="196.5" y1="541.5547" y2="541.5547"/><text fill="#000000" font-family="sans-serif" font-size="13" lengthAdjust="spacingAndGlyphs" textLength="94" x="39.5" y="536.4888">(7) 상영시간 등록 요청</text><polygon fill="#A80036" points="472.5,617.0859,482.5,621.0859,472.5,625.0859,476.5,621.0859" style="stroke: #A80036; stroke-width: 1.0;"/><line style="stroke: #A80036; stroke-width: 1.0;" x1="202.5" x2="478.5" y1="621.0859" y2="621.0859"/><text fill="#000000" font-family="sans-serif" font-size="13" lengthAdjust="spacingAndGlyphs" textLength="72" x="209.5" y="600.8872">상영시간 생성 요청</text><text fill="#000000" font-family="sans-serif" font-size="13" lengthAdjust="spacingAndGlyphs" textLength="110" x="209.5" y="616.02">POST /showtimes</text><path d="M489,554.5547 L489,654.5547 L658,654.5547 L658,564.5547 L648,554.5547 L489,554.5547 " fill="#FBFB77" filter="url(#f144da0sqmq101)" style="stroke: #A80036; stroke-width: 1.0;"/><path d="M648,554.5547 L648,564.5547 L658,564.5547 L648,554.5547 " fill="#FBFB77" style="stroke: #A80036; stroke-width: 1.0;"/><text fill="#000000" font-family="sans-serif" font-size="13" lengthAdjust="spacingAndGlyphs" textLength="148" x="495" y="571.6216">ShowtimesCreateDto {</text><text fill="#000000" font-family="sans-serif" font-size="13" lengthAdjust="spacingAndGlyphs" textLength="54" x="511" y="586.7544">movieId,</text><text fill="#000000" font-family="sans-serif" font-size="13" lengthAdjust="spacingAndGlyphs" textLength="69" x="511" y="601.8872">theaterIds,</text><text fill="#000000" font-family="sans-serif" font-size="13" lengthAdjust="spacingAndGlyphs" textLength="72" x="511" y="617.02">startTimes,</text><text fill="#000000" font-family="sans-serif" font-size="13" lengthAdjust="spacingAndGlyphs" textLength="103" x="511" y="632.1528">durationMinutes</text><text fill="#000000" font-family="sans-serif" font-size="13" lengthAdjust="spacingAndGlyphs" textLength="8" x="495" y="647.2856">}</text><polygon fill="#A80036" points="213.5,681.4844,203.5,685.4844,213.5,689.4844,209.5,685.4844" style="stroke: #A80036; stroke-width: 1.0;"/><line style="stroke: #A80036; stroke-width: 1.0; stroke-dasharray: 2.0,2.0;" x1="207.5" x2="483.5" y1="685.4844" y2="685.4844"/><text fill="#000000" font-family="sans-serif" font-size="13" lengthAdjust="spacingAndGlyphs" textLength="85" x="219.5" y="680.4185">Created(201)</text><polygon fill="#A80036" points="43.5,710.6172,33.5,714.6172,43.5,718.6172,39.5,714.6172" style="stroke: #A80036; stroke-width: 1.0;"/><line style="stroke: #A80036; stroke-width: 1.0; stroke-dasharray: 2.0,2.0;" x1="37.5" x2="201.5" y1="714.6172" y2="714.6172"/><text fill="#000000" font-family="sans-serif" font-size="13" lengthAdjust="spacingAndGlyphs" textLength="114" x="49.5" y="709.5513">(8) 상영시간 등록 성공 화면</text><!--MD5=[721522ccc7375da1093e4af02c2bd4d7]
@startuml
actor Admin
Admin -> Frontend: (트리거) 상영시간 생성 페이지를 방문
    Frontend -> Backend:영화 목록 요청\nGET /movies?orderby=releaseDate:desc
    Frontend <- - Backend: movies[]
Admin <- - Frontend: (1) 영화 목록 제공

Admin -> Frontend: (2) 영화 선택
    Frontend -> Backend:극장 목록 요청\nGET /theaters?orderby=name:asc
    Frontend <- - Backend: theaters[]
Admin <- - Frontend: (3) 극장 목록 제공

Admin -> Frontend: (4) 극장 선택
    Frontend -> Backend: 상영시간 목록 요청\nGET /showtimes?theaterIds=[]
    Frontend <- - Backend: showtimes[]
Admin <- - Frontend: (5) 상영시간 목록 제공

Admin -> Frontend: (6) 상영시간 선택

Admin -> Frontend: (7) 상영시간 등록 요청
    Frontend -> Backend: 상영시간 생성 요청\nPOST /showtimes
        note right
        ShowtimesCreateDto {
            movieId,
            theaterIds,
            startTimes,
            durationMinutes
        }
        end note
    Frontend <- - Backend: Created(201)
Admin <- - Frontend: (8) 상영시간 등록 성공 화면

@enduml

PlantUML version 1.2020.02(Sun Mar 01 10:22:07 UTC 2020)
(GPL source distribution)
Java Runtime: OpenJDK Runtime Environment
JVM: OpenJDK 64-Bit Server VM
Java Version: 17.0.14+7-Debian-1deb12u1
Operating System: Linux
Default Encoding: UTF-8
Language: en
Country: null
--></g></svg>