<?xml version="1.0" encoding="UTF-8" standalone="no"?><svg xmlns="http://www.w3.org/2000/svg" xmlns:xlink="http://www.w3.org/1999/xlink" contentScriptType="application/ecmascript" contentStyleType="text/css" height="455px" preserveAspectRatio="none" style="width:258px;height:455px;" version="1.1" viewBox="0 0 258 455" width="258px" zoomAndPan="magnify"><defs><filter height="300%" id="f1h69jlw6op0n0" width="300%" x="-1" y="-1"><feGaussianBlur result="blurOut" stdDeviation="2.0"/><feColorMatrix in="blurOut" result="blurOut2" type="matrix" values="0 0 0 0 0 0 0 0 0 0 0 0 0 0 0 0 0 0 .4 0"/><feOffset dx="4.0" dy="4.0" in="blurOut2" result="blurOut3"/><feBlend in="SourceGraphic" in2="blurOut3" mode="normal"/></filter></defs><g><line style="stroke: #A80036; stroke-width: 1.0; stroke-dasharray: 5.0,5.0;" x1="32" x2="32" y1="86.2969" y2="368.4922"/><line style="stroke: #A80036; stroke-width: 1.0; stroke-dasharray: 5.0,5.0;" x1="164.5" x2="164.5" y1="86.2969" y2="368.4922"/><text fill="#000000" font-family="sans-serif" font-size="14" lengthAdjust="spacingAndGlyphs" textLength="43" x="8" y="82.9951">Admin</text><ellipse cx="32.5" cy="13" fill="#FEFECE" filter="url(#f1h69jlw6op0n0)" rx="8" ry="8" style="stroke: #A80036; stroke-width: 2.0;"/><path d="M32.5,21 L32.5,48 M19.5,29 L45.5,29 M32.5,48 L19.5,63 M32.5,48 L45.5,63 " fill="none" filter="url(#f1h69jlw6op0n0)" style="stroke: #A80036; stroke-width: 2.0;"/><text fill="#000000" font-family="sans-serif" font-size="14" lengthAdjust="spacingAndGlyphs" textLength="43" x="8" y="380.4873">Admin</text><ellipse cx="32.5" cy="393.7891" fill="#FEFECE" filter="url(#f1h69jlw6op0n0)" rx="8" ry="8" style="stroke: #A80036; stroke-width: 2.0;"/><path d="M32.5,401.7891 L32.5,428.7891 M19.5,409.7891 L45.5,409.7891 M32.5,428.7891 L19.5,443.7891 M32.5,428.7891 L45.5,443.7891 " fill="none" filter="url(#f1h69jlw6op0n0)" style="stroke: #A80036; stroke-width: 2.0;"/><rect fill="#FEFECE" filter="url(#f1h69jlw6op0n0)" height="30.2969" style="stroke: #A80036; stroke-width: 1.5;" width="170" x="77.5" y="51"/><text fill="#000000" font-family="sans-serif" font-size="14" lengthAdjust="spacingAndGlyphs" textLength="156" x="84.5" y="70.9951">Movie Booking System</text><rect fill="#FEFECE" filter="url(#f1h69jlw6op0n0)" height="30.2969" style="stroke: #A80036; stroke-width: 1.5;" width="170" x="77.5" y="367.4922"/><text fill="#000000" font-family="sans-serif" font-size="14" lengthAdjust="spacingAndGlyphs" textLength="156" x="84.5" y="387.4873">Movie Booking System</text><polygon fill="#A80036" points="152.5,113.4297,162.5,117.4297,152.5,121.4297,156.5,117.4297" style="stroke: #A80036; stroke-width: 1.0;"/><line style="stroke: #A80036; stroke-width: 1.0;" x1="32.5" x2="158.5" y1="117.4297" y2="117.4297"/><text fill="#000000" font-family="sans-serif" font-size="13" lengthAdjust="spacingAndGlyphs" textLength="108" x="39.5" y="112.3638">상영시간 생성 페이지를 방문</text><polygon fill="#A80036" points="43.5,142.5625,33.5,146.5625,43.5,150.5625,39.5,146.5625" style="stroke: #A80036; stroke-width: 1.0;"/><line style="stroke: #A80036; stroke-width: 1.0; stroke-dasharray: 2.0,2.0;" x1="37.5" x2="163.5" y1="146.5625" y2="146.5625"/><text fill="#000000" font-family="sans-serif" font-size="13" lengthAdjust="spacingAndGlyphs" textLength="56" x="49.5" y="141.4966">영화 목록 제공</text><polygon fill="#A80036" points="152.5,171.6953,162.5,175.6953,152.5,179.6953,156.5,175.6953" style="stroke: #A80036; stroke-width: 1.0;"/><line style="stroke: #A80036; stroke-width: 1.0;" x1="32.5" x2="158.5" y1="175.6953" y2="175.6953"/><text fill="#000000" font-family="sans-serif" font-size="13" lengthAdjust="spacingAndGlyphs" textLength="36" x="39.5" y="170.6294">영화 선택</text><polygon fill="#A80036" points="43.5,200.8281,33.5,204.8281,43.5,208.8281,39.5,204.8281" style="stroke: #A80036; stroke-width: 1.0;"/><line style="stroke: #A80036; stroke-width: 1.0; stroke-dasharray: 2.0,2.0;" x1="37.5" x2="163.5" y1="204.8281" y2="204.8281"/><text fill="#000000" font-family="sans-serif" font-size="13" lengthAdjust="spacingAndGlyphs" textLength="56" x="49.5" y="199.7622">극장 목록 제공</text><polygon fill="#A80036" points="152.5,229.9609,162.5,233.9609,152.5,237.9609,156.5,233.9609" style="stroke: #A80036; stroke-width: 1.0;"/><line style="stroke: #A80036; stroke-width: 1.0;" x1="32.5" x2="158.5" y1="233.9609" y2="233.9609"/><text fill="#000000" font-family="sans-serif" font-size="13" lengthAdjust="spacingAndGlyphs" textLength="36" x="39.5" y="228.895">극장 선택</text><polygon fill="#A80036" points="43.5,259.0938,33.5,263.0938,43.5,267.0938,39.5,263.0938" style="stroke: #A80036; stroke-width: 1.0;"/><line style="stroke: #A80036; stroke-width: 1.0; stroke-dasharray: 2.0,2.0;" x1="37.5" x2="163.5" y1="263.0938" y2="263.0938"/><text fill="#000000" font-family="sans-serif" font-size="13" lengthAdjust="spacingAndGlyphs" textLength="72" x="49.5" y="258.0278">상영시간 목록 제공</text><polygon fill="#A80036" points="152.5,288.2266,162.5,292.2266,152.5,296.2266,156.5,292.2266" style="stroke: #A80036; stroke-width: 1.0;"/><line style="stroke: #A80036; stroke-width: 1.0;" x1="32.5" x2="158.5" y1="292.2266" y2="292.2266"/><text fill="#000000" font-family="sans-serif" font-size="13" lengthAdjust="spacingAndGlyphs" textLength="52" x="39.5" y="287.1606">상영시간 선택</text><polygon fill="#A80036" points="152.5,317.3594,162.5,321.3594,152.5,325.3594,156.5,321.3594" style="stroke: #A80036; stroke-width: 1.0;"/><line style="stroke: #A80036; stroke-width: 1.0;" x1="32.5" x2="158.5" y1="321.3594" y2="321.3594"/><text fill="#000000" font-family="sans-serif" font-size="13" lengthAdjust="spacingAndGlyphs" textLength="72" x="39.5" y="316.2935">상영시간 등록 요청</text><polygon fill="#A80036" points="43.5,346.4922,33.5,350.4922,43.5,354.4922,39.5,350.4922" style="stroke: #A80036; stroke-width: 1.0;"/><line style="stroke: #A80036; stroke-width: 1.0; stroke-dasharray: 2.0,2.0;" x1="37.5" x2="163.5" y1="350.4922" y2="350.4922"/><text fill="#000000" font-family="sans-serif" font-size="13" lengthAdjust="spacingAndGlyphs" textLength="92" x="49.5" y="345.4263">상영시간 등록 성공 화면</text><!--MD5=[6d259590de3ce520647e19745ff63f64]
@startuml
actor Admin
participant "Movie Booking System" as mbs

Admin -> mbs: 상영시간 생성 페이지를 방문
Admin <- - mbs: 영화 목록 제공

Admin -> mbs: 영화 선택
Admin <- - mbs: 극장 목록 제공

Admin -> mbs: 극장 선택
Admin <- - mbs: 상영시간 목록 제공

Admin -> mbs: 상영시간 선택

Admin -> mbs: 상영시간 등록 요청
Admin <- - mbs: 상영시간 등록 성공 화면

@enduml

PlantUML version 1.2020.02(Sun Mar 01 10:22:07 UTC 2020)
(GPL source distribution)
Java Runtime: OpenJDK Runtime Environment
JVM: OpenJDK 64-Bit Server VM
Java Version: 17.0.14+7-Debian-1deb12u1
Operating System: Linux
Default Encoding: UTF-8
Language: en
Country: null
--></g></svg>