<?xml version="1.0" encoding="UTF-8" standalone="no"?><svg xmlns="http://www.w3.org/2000/svg" xmlns:xlink="http://www.w3.org/1999/xlink" contentScriptType="application/ecmascript" contentStyleType="text/css" height="226px" preserveAspectRatio="none" style="width:223px;height:226px;" version="1.1" viewBox="0 0 223 226" width="223px" zoomAndPan="magnify"><defs><filter height="300%" id="f10arxqb1t8dni" width="300%" x="-1" y="-1"><feGaussianBlur result="blurOut" stdDeviation="2.0"/><feColorMatrix in="blurOut" result="blurOut2" type="matrix" values="0 0 0 0 0 0 0 0 0 0 0 0 0 0 0 0 0 0 .4 0"/><feOffset dx="4.0" dy="4.0" in="blurOut2" result="blurOut3"/><feBlend in="SourceGraphic" in2="blurOut3" mode="normal"/></filter></defs><g><ellipse cx="48.7696" cy="22.5236" fill="#FEFECE" filter="url(#f10arxqb1t8dni)" rx="39.7696" ry="14.5236" style="stroke: #A80036; stroke-width: 1.5;"/><text fill="#000000" font-family="sans-serif" font-size="14" lengthAdjust="spacingAndGlyphs" textLength="52" x="22.7696" y="27.1721">원리주의 팀원</text><ellipse cx="48.7696" cy="111.5236" fill="#FEFECE" filter="url(#f10arxqb1t8dni)" rx="39.7696" ry="14.5236" style="stroke: #A80036; stroke-width: 1.5;"/><text fill="#000000" font-family="sans-serif" font-size="14" lengthAdjust="spacingAndGlyphs" textLength="52" x="22.7696" y="116.1721">원리주의 팀장</text><ellipse cx="45.7696" cy="200.5236" fill="#FEFECE" filter="url(#f10arxqb1t8dni)" rx="39.7696" ry="14.5236" style="stroke: #A80036; stroke-width: 1.5;"/><text fill="#000000" font-family="sans-serif" font-size="14" lengthAdjust="spacingAndGlyphs" textLength="52" x="19.7696" y="205.1721">중도성향 팀장</text><ellipse cx="166.9264" cy="200.5236" fill="#FEFECE" filter="url(#f10arxqb1t8dni)" rx="45.4264" ry="14.5236" style="stroke: #A80036; stroke-width: 1.5;"/><text fill="#000000" font-family="sans-serif" font-size="14" lengthAdjust="spacingAndGlyphs" textLength="60" x="136.9264" y="205.1721">원리주의 관리자</text><ellipse cx="166.7696" cy="111.5236" fill="#FEFECE" filter="url(#f10arxqb1t8dni)" rx="39.7696" ry="14.5236" style="stroke: #A80036; stroke-width: 1.5;"/><text fill="#000000" font-family="sans-serif" font-size="14" lengthAdjust="spacingAndGlyphs" textLength="52" x="140.7696" y="116.1721">실용주의 팀장</text><!--MD5=[cffb94870253ddb9df316ae87ed23d8d]
link 원리주의 팀원 to 원리주의 팀장--><path d="M49,37.09 C49,51.69 49,75 49,91.43 " fill="none" id="원리주의 팀원-&gt;원리주의 팀장" style="stroke: #A80036; stroke-width: 1.0;"/><polygon fill="#A80036" points="49,96.71,53,87.71,49,91.71,45,87.71,49,96.71" style="stroke: #A80036; stroke-width: 1.0;"/><!--MD5=[df22e099127bee0fcc4a3b536f4a99be]
link 원리주의 팀장 to 중도성향 팀장--><path d="M48.53,126.09 C48.03,140.69 47.22,164 46.66,180.43 " fill="none" id="원리주의 팀장-&gt;중도성향 팀장" style="stroke: #A80036; stroke-width: 1.0;"/><polygon fill="#A80036" points="46.48,185.71,50.786,176.8523,46.6513,180.7129,42.7907,176.5782,46.48,185.71" style="stroke: #A80036; stroke-width: 1.0;"/><!--MD5=[d4e5f4d954d7a89819e7deb1ca599fc7]
link 원리주의 팀장 to 원리주의 관리자--><path d="M65.66,124.78 C86.71,140.3 122.96,167.03 145.92,183.96 " fill="none" id="원리주의 팀장-&gt;원리주의 관리자" style="stroke: #A80036; stroke-width: 1.0;"/><polygon fill="#A80036" points="150.05,187,145.1814,178.4386,146.0262,184.0321,140.4327,184.8768,150.05,187" style="stroke: #A80036; stroke-width: 1.0;"/><!--MD5=[cab93de5f2dfe11e0eec20b66793e2b0]
link 실용주의 팀장 to 원리주의 관리자--><path d="M167,126.09 C167,140.69 167,164 167,180.43 " fill="none" id="실용주의 팀장-&gt;원리주의 관리자" style="stroke: #A80036; stroke-width: 1.0;"/><polygon fill="#A80036" points="167,185.71,171,176.71,167,180.71,163,176.71,167,185.71" style="stroke: #A80036; stroke-width: 1.0;"/><!--MD5=[4347c4f6461cf30bcaa4acb237d01736]
@startuml
(원리주의 팀원) - -> (원리주의 팀장)
(원리주의 팀장) - -> (중도성향 팀장)
(원리주의 팀장) - -> (원리주의 관리자)
(실용주의 팀장) - -> (원리주의 관리자)

@enduml

PlantUML version 1.2020.02(Sun Mar 01 10:22:07 UTC 2020)
(GPL source distribution)
Java Runtime: OpenJDK Runtime Environment
JVM: OpenJDK 64-Bit Server VM
Java Version: 17.0.11+9-Debian-1deb12u1
Operating System: Linux
Default Encoding: UTF-8
Language: en
Country: null
--></g></svg>