<?xml version="1.0" encoding="UTF-8" standalone="no"?><svg xmlns="http://www.w3.org/2000/svg" xmlns:xlink="http://www.w3.org/1999/xlink" contentScriptType="application/ecmascript" contentStyleType="text/css" height="331px" preserveAspectRatio="none" style="width:377px;height:331px;" version="1.1" viewBox="0 0 377 331" width="377px" zoomAndPan="magnify"><defs><filter height="300%" id="f191ugtyv4zj5g" width="300%" x="-1" y="-1"><feGaussianBlur result="blurOut" stdDeviation="2.0"/><feColorMatrix in="blurOut" result="blurOut2" type="matrix" values="0 0 0 0 0 0 0 0 0 0 0 0 0 0 0 0 0 0 .4 0"/><feOffset dx="4.0" dy="4.0" in="blurOut2" result="blurOut3"/><feBlend in="SourceGraphic" in2="blurOut3" mode="normal"/></filter></defs><g><!--MD5=[6c2d02fe013167922f007c9285828968]
cluster mbs--><polygon fill="#FFFFFF" filter="url(#f191ugtyv4zj5g)" points="162,62.5,345,62.5,352,84.7969,355,84.7969,355,172.5,162,172.5,162,62.5" style="stroke: #000000; stroke-width: 1.5;"/><line style="stroke: #000000; stroke-width: 1.5;" x1="162" x2="352" y1="84.7969" y2="84.7969"/><text fill="#000000" font-family="sans-serif" font-size="14" font-weight="bold" lengthAdjust="spacingAndGlyphs" textLength="177" x="166" y="77.4951">Movie Booking System</text><ellipse cx="258.38" cy="117.304" fill="#FEFECE" filter="url(#f191ugtyv4zj5g)" rx="13.38" ry="11.304" style="stroke: #A80036; stroke-width: 1.5;"/><text fill="#000000" font-family="sans-serif" font-size="14" lengthAdjust="spacingAndGlyphs" textLength="0" x="260.38" y="121.9525"/><!--MD5=[92848cbaf65985a669855153c5362c37]
entity customer--><ellipse cx="66" cy="17.5" fill="#FEFECE" filter="url(#f191ugtyv4zj5g)" rx="8" ry="8" style="stroke: #A80036; stroke-width: 1.5;"/><path d="M66,25.5 L66,52.5 M53,33.5 L79,33.5 M66,52.5 L53,67.5 M66,52.5 L79,67.5 " fill="none" filter="url(#f191ugtyv4zj5g)" style="stroke: #A80036; stroke-width: 1.5;"/><text fill="#000000" font-family="sans-serif" font-size="14" lengthAdjust="spacingAndGlyphs" textLength="66" x="33" y="85.9951">customer</text><!--MD5=[3908db504f15eb564d5f0e12bd7273c1]
entity agent--><ellipse cx="66" cy="133.5" fill="#FEFECE" filter="url(#f191ugtyv4zj5g)" rx="8" ry="8" style="stroke: #A80036; stroke-width: 1.5;"/><path d="M66,141.5 L66,168.5 M53,149.5 L79,149.5 M66,168.5 L53,183.5 M66,168.5 L79,183.5 " fill="none" filter="url(#f191ugtyv4zj5g)" style="stroke: #A80036; stroke-width: 1.5;"/><text fill="#000000" font-family="sans-serif" font-size="14" lengthAdjust="spacingAndGlyphs" textLength="120" x="6" y="201.9951">Call Center Agent</text><!--MD5=[2f9795ea503557699cddd4010d0870e5]
entity checker--><ellipse cx="66" cy="249.5" fill="#FEFECE" filter="url(#f191ugtyv4zj5g)" rx="8" ry="8" style="stroke: #A80036; stroke-width: 1.5;"/><path d="M66,257.5 L66,284.5 M53,265.5 L79,265.5 M66,284.5 L53,299.5 M66,284.5 L79,299.5 " fill="none" filter="url(#f191ugtyv4zj5g)" style="stroke: #A80036; stroke-width: 1.5;"/><text fill="#000000" font-family="sans-serif" font-size="14" lengthAdjust="spacingAndGlyphs" textLength="104" x="14" y="317.9951">Ticket Checker</text><!--MD5=[9383602d3e41c617da9b8b81d6a24f28]
link customer to mbs--><path d="M99.29,76.6 C108.57,85.6 118.26,95.97 126,106.5 C137.54,122.2 130.29,133.98 146,145.5 C148.4938,147.3294 151.1027,149.0056 153.8032,150.5406 C155.1535,151.308 156.5266,152.0402 157.9197,152.7386 C158.6163,153.0877 159.3178,153.4285 160.024,153.7609 C160.3771,153.9271 160.7313,154.0913 161.0866,154.2534 C161.2643,154.3345 161.4423,154.415 161.6205,154.4951 " fill="none" id="customer-&gt;mbs" style="stroke: #A80036; stroke-width: 1.0;"/><polygon fill="#A80036" points="161.6205,154.4951,155.0492,147.159,157.0593,152.4466,151.7717,154.4568,161.6205,154.4951" style="stroke: #A80036; stroke-width: 1.0;"/><!--MD5=[0da3172a2f122338ca1c83bfc50301e0]
link agent to mbs--><path d="M126.23,164.5 C133.1113,164.5 140.2866,164.5 147.5794,164.5 C151.2258,164.5 154.9016,164.5 158.5847,164.5 C159.5055,164.5 160.4267,164.5 161.3481,164.5 " fill="none" id="agent-&gt;mbs" style="stroke: #A80036; stroke-width: 1.0;"/><polygon fill="#A80036" points="161.3481,164.5,152.3481,160.5,156.3481,164.5,152.3481,168.5,161.3481,164.5" style="stroke: #A80036; stroke-width: 1.0;"/><!--MD5=[66f3b917f021ba0b25656d2704b60872]
link checker to mbs--><path d="M118.05,249.41 C145.825,232.5 180.04,211.6675 207.6275,194.87 C221.4213,186.4713 233.5581,179.0813 242.4047,173.6947 C242.9576,173.358 243.4977,173.0292 244.0245,172.7084 " fill="none" id="checker-&gt;mbs" style="stroke: #A80036; stroke-width: 1.0;"/><polygon fill="#A80036" points="244.0245,172.7084,234.2571,173.9725,239.7538,175.3088,238.4176,180.8055,244.0245,172.7084" style="stroke: #A80036; stroke-width: 1.0;"/><!--MD5=[5d600f8a3888a12530c541e5e7389861]
@startuml
left to right direction
actor customer
actor "Call Center Agent" as agent
actor "Ticket Checker" as checker

package "Movie Booking System" as mbs {
usecase " "
}

customer - -> mbs
agent - -> mbs
checker - -> mbs
@enduml

PlantUML version 1.2020.02(Sun Mar 01 10:22:07 UTC 2020)
(GPL source distribution)
Java Runtime: OpenJDK Runtime Environment
JVM: OpenJDK 64-Bit Server VM
Java Version: 17.0.14+7-Debian-1deb12u1
Operating System: Linux
Default Encoding: UTF-8
Language: en
Country: null
--></g></svg>