<?xml version="1.0" encoding="UTF-8" standalone="no"?><svg xmlns="http://www.w3.org/2000/svg" xmlns:xlink="http://www.w3.org/1999/xlink" contentScriptType="application/ecmascript" contentStyleType="text/css" height="376px" preserveAspectRatio="none" style="width:423px;height:376px;" version="1.1" viewBox="0 0 423 376" width="423px" zoomAndPan="magnify"><defs><filter height="300%" id="f14cgx9x01rrr6" width="300%" x="-1" y="-1"><feGaussianBlur result="blurOut" stdDeviation="2.0"/><feColorMatrix in="blurOut" result="blurOut2" type="matrix" values="0 0 0 0 0 0 0 0 0 0 0 0 0 0 0 0 0 0 .4 0"/><feOffset dx="4.0" dy="4.0" in="blurOut2" result="blurOut3"/><feBlend in="SourceGraphic" in2="blurOut3" mode="normal"/></filter></defs><g><!--MD5=[dda167896673ecf5e640f179532600f0]
entity printDocument--><path d="M146.8047,16.8283 C150.1187,11.1732 155.6617,10.2865 159.7055,16.0002 C162.7893,11.3729 167.8635,11.2837 170.9067,16.0486 C173.0764,11.0732 177.7491,8.9922 181.6655,14.2039 C186.6369,8.4257 190.8165,8.7831 195.3042,14.7649 C197.9473,8.4597 203.608,8.197 206.8743,14.178 C210.1106,8.8992 214.8347,9.4041 217.536,14.7166 C220.9293,8.7072 225.66,8.8602 228.9366,14.8276 C233.1237,8.47 237.8727,8.9003 241.5796,15.3034 C245.2845,9.7406 250.4605,11.3938 253.1425,16.4203 C257.6198,10.9747 261.7753,12.185 265.2336,17.5591 C273.659,19.1145 278.2421,25.5365 271.9209,33.3406 C274.7754,40.6742 272.8149,45.9677 264.1926,46.624 C262.9042,51.9447 258.5325,54.1059 254.3001,49.5825 C250.7797,56.9905 245.5644,55.8308 241.0912,50.5765 C238.2702,55.7837 232.9018,57.2168 228.9886,51.8234 C227.3436,57.6277 222.5679,58.5539 218.5915,54.2127 C214.8798,60.0666 209.9526,60.9572 205.242,55.379 C201.3319,60.5298 195.6335,59.9415 193.6168,53.483 C189.7756,58.1816 183.8418,58.8092 181.4933,51.9213 C177.776,56.7504 173.2779,56.341 170.8063,50.6552 C166.1087,55.6599 162.1026,55.5922 159.2105,48.8699 C154.8274,54.7331 150.5855,55.1283 146.5922,48.4768 C136.9129,47.2536 133.7317,42.1025 138.2124,33.1416 C132.2748,23.6647 135.8627,17.4146 146.8047,16.8283 " fill="#FFFFFF" style="stroke: #000000; stroke-width: 1.5;"/><text fill="#000000" font-family="sans-serif" font-size="14" lengthAdjust="spacingAndGlyphs" textLength="104" x="153" y="35.9951">printDocument</text><!--MD5=[18b34a0952a7ee69b726755e544908e5]
class DocumentReadable--><rect fill="#FEFECE" filter="url(#f14cgx9x01rrr6)" height="73.6094" id="DocumentReadable" style="stroke: #A80036; stroke-width: 1.5;" width="156" x="127" y="131"/><ellipse cx="142.45" cy="147" fill="#B4A7E5" rx="11" ry="11" style="stroke: #A80036; stroke-width: 1.0;"/><path d="M138.3719,142.7656 L138.3719,140.6094 L145.7625,140.6094 L145.7625,142.7656 L143.2938,142.7656 L143.2938,150.8438 L145.7625,150.8438 L145.7625,153 L138.3719,153 L138.3719,150.8438 L140.8406,150.8438 L140.8406,142.7656 L138.3719,142.7656 Z "/><text fill="#000000" font-family="sans-serif" font-size="12" font-style="italic" lengthAdjust="spacingAndGlyphs" textLength="123" x="156.55" y="151.1543">DocumentReadable</text><line style="stroke: #A80036; stroke-width: 1.5;" x1="128" x2="282" y1="163" y2="163"/><line style="stroke: #A80036; stroke-width: 1.5;" x1="128" x2="282" y1="171" y2="171"/><ellipse cx="138" cy="182" fill="#84BE84" rx="3" ry="3" style="stroke: #038048; stroke-width: 1.0;"/><text fill="#000000" font-family="sans-serif" font-size="11" lengthAdjust="spacingAndGlyphs" textLength="130" x="147" y="185.2104">getChar() : string | null</text><ellipse cx="138" cy="194.8047" fill="#84BE84" rx="3" ry="3" style="stroke: #038048; stroke-width: 1.0;"/><text fill="#000000" font-family="sans-serif" font-size="11" lengthAdjust="spacingAndGlyphs" textLength="73" x="147" y="198.0151">close() : void</text><!--MD5=[9e3c820e30af0a8a0f0b8cd4e913f14e]
class BufferDocument--><rect fill="#FEFECE" filter="url(#f14cgx9x01rrr6)" height="99.2188" id="BufferDocument" style="stroke: #A80036; stroke-width: 1.5;" width="178" x="6" y="266"/><ellipse cx="41.25" cy="282" fill="#ADD1B2" rx="11" ry="11" style="stroke: #A80036; stroke-width: 1.0;"/><path d="M44.2188,287.6406 Q43.6406,287.9375 43,288.0781 Q42.3594,288.2344 41.6563,288.2344 Q39.1563,288.2344 37.8281,286.5938 Q36.5156,284.9375 36.5156,281.8125 Q36.5156,278.6875 37.8281,277.0313 Q39.1563,275.375 41.6563,275.375 Q42.3594,275.375 43,275.5313 Q43.6563,275.6875 44.2188,275.9844 L44.2188,278.7031 Q43.5938,278.125 43,277.8594 Q42.4063,277.5781 41.7813,277.5781 Q40.4375,277.5781 39.75,278.6563 Q39.0625,279.7188 39.0625,281.8125 Q39.0625,283.9063 39.75,284.9844 Q40.4375,286.0469 41.7813,286.0469 Q42.4063,286.0469 43,285.7813 Q43.5938,285.5 44.2188,284.9219 L44.2188,287.6406 Z "/><text fill="#000000" font-family="sans-serif" font-size="12" lengthAdjust="spacingAndGlyphs" textLength="101" x="59.75" y="286.1543">BufferDocument</text><line style="stroke: #A80036; stroke-width: 1.5;" x1="7" x2="183" y1="298" y2="298"/><rect fill="none" height="6" style="stroke: #C82930; stroke-width: 1.0;" width="6" x="14" y="306"/><text fill="#000000" font-family="sans-serif" font-size="11" lengthAdjust="spacingAndGlyphs" textLength="79" x="26" y="312.2104">buffer : string</text><rect fill="none" height="6" style="stroke: #C82930; stroke-width: 1.0;" width="6" x="14" y="318.8047"/><text fill="#000000" font-family="sans-serif" font-size="11" lengthAdjust="spacingAndGlyphs" textLength="101" x="26" y="325.0151">position : number</text><line style="stroke: #A80036; stroke-width: 1.5;" x1="7" x2="183" y1="331.6094" y2="331.6094"/><ellipse cx="17" cy="342.6094" fill="#84BE84" rx="3" ry="3" style="stroke: #038048; stroke-width: 1.0;"/><text fill="#000000" font-family="sans-serif" font-size="11" lengthAdjust="spacingAndGlyphs" textLength="152" x="26" y="345.8198">constructor(buffer : string)</text><ellipse cx="17" cy="355.4141" fill="#84BE84" rx="3" ry="3" style="stroke: #038048; stroke-width: 1.0;"/><text fill="#000000" font-family="sans-serif" font-size="11" lengthAdjust="spacingAndGlyphs" textLength="130" x="26" y="358.6245">getChar() : string | null</text><!--MD5=[382578df00442c8a0809fd6891586ad8]
class FileDocument--><rect fill="#FEFECE" filter="url(#f14cgx9x01rrr6)" height="99.2188" id="FileDocument" style="stroke: #A80036; stroke-width: 1.5;" width="193" x="219.5" y="266"/><ellipse cx="269.25" cy="282" fill="#ADD1B2" rx="11" ry="11" style="stroke: #A80036; stroke-width: 1.0;"/><path d="M272.2188,287.6406 Q271.6406,287.9375 271,288.0781 Q270.3594,288.2344 269.6563,288.2344 Q267.1563,288.2344 265.8281,286.5938 Q264.5156,284.9375 264.5156,281.8125 Q264.5156,278.6875 265.8281,277.0313 Q267.1563,275.375 269.6563,275.375 Q270.3594,275.375 271,275.5313 Q271.6563,275.6875 272.2188,275.9844 L272.2188,278.7031 Q271.5938,278.125 271,277.8594 Q270.4063,277.5781 269.7813,277.5781 Q268.4375,277.5781 267.75,278.6563 Q267.0625,279.7188 267.0625,281.8125 Q267.0625,283.9063 267.75,284.9844 Q268.4375,286.0469 269.7813,286.0469 Q270.4063,286.0469 271,285.7813 Q271.5938,285.5 272.2188,284.9219 L272.2188,287.6406 Z "/><text fill="#000000" font-family="sans-serif" font-size="12" lengthAdjust="spacingAndGlyphs" textLength="85" x="289.75" y="286.1543">FileDocument</text><line style="stroke: #A80036; stroke-width: 1.5;" x1="220.5" x2="411.5" y1="298" y2="298"/><rect fill="none" height="6" style="stroke: #C82930; stroke-width: 1.0;" width="6" x="227.5" y="306"/><text fill="#000000" font-family="sans-serif" font-size="11" lengthAdjust="spacingAndGlyphs" textLength="123" x="239.5" y="312.2104">stream : ReadStream</text><line style="stroke: #A80036; stroke-width: 1.5;" x1="220.5" x2="411.5" y1="318.8047" y2="318.8047"/><ellipse cx="230.5" cy="329.8047" fill="#84BE84" rx="3" ry="3" style="stroke: #038048; stroke-width: 1.0;"/><text fill="#000000" font-family="sans-serif" font-size="11" lengthAdjust="spacingAndGlyphs" textLength="167" x="239.5" y="333.0151">constructor(filename : string)</text><ellipse cx="230.5" cy="342.6094" fill="#84BE84" rx="3" ry="3" style="stroke: #038048; stroke-width: 1.0;"/><text fill="#000000" font-family="sans-serif" font-size="11" lengthAdjust="spacingAndGlyphs" textLength="130" x="239.5" y="345.8198">getChar() : string | null</text><ellipse cx="230.5" cy="355.4141" fill="#84BE84" rx="3" ry="3" style="stroke: #038048; stroke-width: 1.0;"/><text fill="#000000" font-family="sans-serif" font-size="11" lengthAdjust="spacingAndGlyphs" textLength="73" x="239.5" y="358.6245">close() : void</text><!--MD5=[2912905d19e7ca858cf59eddadfdc6a7]
link printDocument to DocumentReadable--><path d="M205,54.29 C205,73.65 205,102.18 205,125.7 " fill="none" id="printDocument-&gt;DocumentReadable" style="stroke: #A80036; stroke-width: 1.0;"/><polygon fill="#A80036" points="205,130.94,209,121.94,205,125.94,201,121.94,205,130.94" style="stroke: #A80036; stroke-width: 1.0;"/><text fill="#000000" font-family="sans-serif" font-size="13" lengthAdjust="spacingAndGlyphs" textLength="34" x="206" y="97.0669">usesf</text><!--MD5=[3df37f390afd3a0181c7a275b154d961]
reverse link DocumentReadable to BufferDocument--><path d="M165.25,221.58 C154.35,235.99 142.59,251.55 131.87,265.74 " fill="none" id="DocumentReadable&lt;-BufferDocument" style="stroke: #A80036; stroke-width: 1.0; stroke-dasharray: 7.0,7.0;"/><polygon fill="none" points="159.88,217.07,177.53,205.34,171.05,225.52,159.88,217.07" style="stroke: #A80036; stroke-width: 1.0;"/><!--MD5=[ebb415e4e687d99f1697d07d9b071bd9]
reverse link DocumentReadable to FileDocument--><path d="M245.11,221.58 C256.11,235.99 267.97,251.55 278.8,265.74 " fill="none" id="DocumentReadable&lt;-FileDocument" style="stroke: #A80036; stroke-width: 1.0; stroke-dasharray: 7.0,7.0;"/><polygon fill="none" points="239.29,225.49,232.72,205.34,250.42,217,239.29,225.49" style="stroke: #A80036; stroke-width: 1.0;"/><!--MD5=[4fb396e104d6c2df258acb456c30b15d]
@startuml

interface DocumentReadable {
    +getChar() : string | null
    +close() : void
}

class BufferDocument {
    -buffer : string
    -position : number
    +constructor(buffer : string)
    +getChar() : string | null
}

class FileDocument {
    -stream : ReadStream
    +constructor(filename : string)
    +getChar() : string | null
    +close() : void
}

package printDocument <<Cloud>> {
}

printDocument - -> DocumentReadable : usesf
DocumentReadable <|.. BufferDocument
DocumentReadable <|.. FileDocument

@enduml

PlantUML version 1.2020.02(Sun Mar 01 10:22:07 UTC 2020)
(GPL source distribution)
Java Runtime: OpenJDK Runtime Environment
JVM: OpenJDK 64-Bit Server VM
Java Version: 17.0.10+7-Debian-1deb12u1
Operating System: Linux
Default Encoding: UTF-8
Language: en
Country: null
--></g></svg>