<?xml version="1.0" encoding="UTF-8" standalone="no"?><svg xmlns="http://www.w3.org/2000/svg" xmlns:xlink="http://www.w3.org/1999/xlink" contentScriptType="application/ecmascript" contentStyleType="text/css" height="819px" preserveAspectRatio="none" style="width:766px;height:819px;" version="1.1" viewBox="0 0 766 819" width="766px" zoomAndPan="magnify"><defs><filter height="300%" id="f11bys1guqvogc" width="300%" x="-1" y="-1"><feGaussianBlur result="blurOut" stdDeviation="2.0"/><feColorMatrix in="blurOut" result="blurOut2" type="matrix" values="0 0 0 0 0 0 0 0 0 0 0 0 0 0 0 0 0 0 .4 0"/><feOffset dx="4.0" dy="4.0" in="blurOut2" result="blurOut3"/><feBlend in="SourceGraphic" in2="blurOut3" mode="normal"/></filter></defs><g><line style="stroke: #A80036; stroke-width: 1.0; stroke-dasharray: 5.0,5.0;" x1="32" x2="32" y1="86.2969" y2="732.6172"/><line style="stroke: #A80036; stroke-width: 1.0; stroke-dasharray: 5.0,5.0;" x1="298" x2="298" y1="86.2969" y2="732.6172"/><line style="stroke: #A80036; stroke-width: 1.0; stroke-dasharray: 5.0,5.0;" x1="580" x2="580" y1="86.2969" y2="732.6172"/><text fill="#000000" font-family="sans-serif" font-size="14" lengthAdjust="spacingAndGlyphs" textLength="43" x="8" y="82.9951">Admin</text><ellipse cx="32.5" cy="13" fill="#FEFECE" filter="url(#f11bys1guqvogc)" rx="8" ry="8" style="stroke: #A80036; stroke-width: 2.0;"/><path d="M32.5,21 L32.5,48 M19.5,29 L45.5,29 M32.5,48 L19.5,63 M32.5,48 L45.5,63 " fill="none" filter="url(#f11bys1guqvogc)" style="stroke: #A80036; stroke-width: 2.0;"/><text fill="#000000" font-family="sans-serif" font-size="14" lengthAdjust="spacingAndGlyphs" textLength="43" x="8" y="744.6123">Admin</text><ellipse cx="32.5" cy="757.9141" fill="#FEFECE" filter="url(#f11bys1guqvogc)" rx="8" ry="8" style="stroke: #A80036; stroke-width: 2.0;"/><path d="M32.5,765.9141 L32.5,792.9141 M19.5,773.9141 L45.5,773.9141 M32.5,792.9141 L19.5,807.9141 M32.5,792.9141 L45.5,807.9141 " fill="none" filter="url(#f11bys1guqvogc)" style="stroke: #A80036; stroke-width: 2.0;"/><rect fill="#FEFECE" filter="url(#f11bys1guqvogc)" height="30.2969" style="stroke: #A80036; stroke-width: 1.5;" width="77" x="258" y="51"/><text fill="#000000" font-family="sans-serif" font-size="14" lengthAdjust="spacingAndGlyphs" textLength="63" x="265" y="70.9951">Frontend</text><rect fill="#FEFECE" filter="url(#f11bys1guqvogc)" height="30.2969" style="stroke: #A80036; stroke-width: 1.5;" width="77" x="258" y="731.6172"/><text fill="#000000" font-family="sans-serif" font-size="14" lengthAdjust="spacingAndGlyphs" textLength="63" x="265" y="751.6123">Frontend</text><rect fill="#FEFECE" filter="url(#f11bys1guqvogc)" height="30.2969" style="stroke: #A80036; stroke-width: 1.5;" width="75" x="541" y="51"/><text fill="#000000" font-family="sans-serif" font-size="14" lengthAdjust="spacingAndGlyphs" textLength="61" x="548" y="70.9951">Backend</text><rect fill="#FEFECE" filter="url(#f11bys1guqvogc)" height="30.2969" style="stroke: #A80036; stroke-width: 1.5;" width="75" x="541" y="731.6172"/><text fill="#000000" font-family="sans-serif" font-size="14" lengthAdjust="spacingAndGlyphs" textLength="61" x="548" y="751.6123">Backend</text><polygon fill="#A80036" points="286.5,113.4297,296.5,117.4297,286.5,121.4297,290.5,117.4297" style="stroke: #A80036; stroke-width: 1.0;"/><line style="stroke: #A80036; stroke-width: 1.0;" x1="32.5" x2="292.5" y1="117.4297" y2="117.4297"/><text fill="#000000" font-family="sans-serif" font-size="13" lengthAdjust="spacingAndGlyphs" textLength="191" x="39.5" y="112.3638">Visits showtime creation page</text><polygon fill="#A80036" points="568.5,157.6953,578.5,161.6953,568.5,165.6953,572.5,161.6953" style="stroke: #A80036; stroke-width: 1.0;"/><line style="stroke: #A80036; stroke-width: 1.0;" x1="298.5" x2="574.5" y1="161.6953" y2="161.6953"/><text fill="#000000" font-family="sans-serif" font-size="13" lengthAdjust="spacingAndGlyphs" textLength="117" x="305.5" y="141.4966">Request movie list</text><text fill="#000000" font-family="sans-serif" font-size="13" lengthAdjust="spacingAndGlyphs" textLength="258" x="305.5" y="156.6294">GET /movies?orderby=releaseDate:desc</text><polygon fill="#A80036" points="309.5,186.8281,299.5,190.8281,309.5,194.8281,305.5,190.8281" style="stroke: #A80036; stroke-width: 1.0;"/><line style="stroke: #A80036; stroke-width: 1.0; stroke-dasharray: 2.0,2.0;" x1="303.5" x2="579.5" y1="190.8281" y2="190.8281"/><text fill="#000000" font-family="sans-serif" font-size="13" lengthAdjust="spacingAndGlyphs" textLength="56" x="315.5" y="185.7622">movies[]</text><polygon fill="#A80036" points="43.5,215.9609,33.5,219.9609,43.5,223.9609,39.5,219.9609" style="stroke: #A80036; stroke-width: 1.0;"/><line style="stroke: #A80036; stroke-width: 1.0; stroke-dasharray: 2.0,2.0;" x1="37.5" x2="297.5" y1="219.9609" y2="219.9609"/><text fill="#000000" font-family="sans-serif" font-size="13" lengthAdjust="spacingAndGlyphs" textLength="119" x="49.5" y="214.895">Provides movie list</text><polygon fill="#A80036" points="286.5,245.0938,296.5,249.0938,286.5,253.0938,290.5,249.0938" style="stroke: #A80036; stroke-width: 1.0;"/><line style="stroke: #A80036; stroke-width: 1.0;" x1="32.5" x2="292.5" y1="249.0938" y2="249.0938"/><text fill="#000000" font-family="sans-serif" font-size="13" lengthAdjust="spacingAndGlyphs" textLength="90" x="39.5" y="244.0278">Selects movie</text><polygon fill="#A80036" points="568.5,289.3594,578.5,293.3594,568.5,297.3594,572.5,293.3594" style="stroke: #A80036; stroke-width: 1.0;"/><line style="stroke: #A80036; stroke-width: 1.0;" x1="298.5" x2="574.5" y1="293.3594" y2="293.3594"/><text fill="#000000" font-family="sans-serif" font-size="13" lengthAdjust="spacingAndGlyphs" textLength="125" x="305.5" y="273.1606">Request theater list</text><text fill="#000000" font-family="sans-serif" font-size="13" lengthAdjust="spacingAndGlyphs" textLength="217" x="305.5" y="288.2935">GET /theaters?orderby=name:asc</text><polygon fill="#A80036" points="309.5,318.4922,299.5,322.4922,309.5,326.4922,305.5,322.4922" style="stroke: #A80036; stroke-width: 1.0;"/><line style="stroke: #A80036; stroke-width: 1.0; stroke-dasharray: 2.0,2.0;" x1="303.5" x2="579.5" y1="322.4922" y2="322.4922"/><text fill="#000000" font-family="sans-serif" font-size="13" lengthAdjust="spacingAndGlyphs" textLength="64" x="315.5" y="317.4263">theaters[]</text><polygon fill="#A80036" points="43.5,347.625,33.5,351.625,43.5,355.625,39.5,351.625" style="stroke: #A80036; stroke-width: 1.0;"/><line style="stroke: #A80036; stroke-width: 1.0; stroke-dasharray: 2.0,2.0;" x1="37.5" x2="297.5" y1="351.625" y2="351.625"/><text fill="#000000" font-family="sans-serif" font-size="13" lengthAdjust="spacingAndGlyphs" textLength="127" x="49.5" y="346.5591">Provides theater list</text><polygon fill="#A80036" points="286.5,376.7578,296.5,380.7578,286.5,384.7578,290.5,380.7578" style="stroke: #A80036; stroke-width: 1.0;"/><line style="stroke: #A80036; stroke-width: 1.0;" x1="32.5" x2="292.5" y1="380.7578" y2="380.7578"/><text fill="#000000" font-family="sans-serif" font-size="13" lengthAdjust="spacingAndGlyphs" textLength="105" x="39.5" y="375.6919">Selects theaters</text><polygon fill="#A80036" points="568.5,421.0234,578.5,425.0234,568.5,429.0234,572.5,425.0234" style="stroke: #A80036; stroke-width: 1.0;"/><line style="stroke: #A80036; stroke-width: 1.0;" x1="298.5" x2="574.5" y1="425.0234" y2="425.0234"/><text fill="#000000" font-family="sans-serif" font-size="13" lengthAdjust="spacingAndGlyphs" textLength="139" x="305.5" y="404.8247">Request showtime list</text><text fill="#000000" font-family="sans-serif" font-size="13" lengthAdjust="spacingAndGlyphs" textLength="194" x="305.5" y="419.9575">GET /showtimes?theaterIds=[]</text><polygon fill="#A80036" points="309.5,450.1563,299.5,454.1563,309.5,458.1563,305.5,454.1563" style="stroke: #A80036; stroke-width: 1.0;"/><line style="stroke: #A80036; stroke-width: 1.0; stroke-dasharray: 2.0,2.0;" x1="303.5" x2="579.5" y1="454.1563" y2="454.1563"/><text fill="#000000" font-family="sans-serif" font-size="13" lengthAdjust="spacingAndGlyphs" textLength="78" x="315.5" y="449.0903">showtimes[]</text><polygon fill="#A80036" points="43.5,479.2891,33.5,483.2891,43.5,487.2891,39.5,483.2891" style="stroke: #A80036; stroke-width: 1.0;"/><line style="stroke: #A80036; stroke-width: 1.0; stroke-dasharray: 2.0,2.0;" x1="37.5" x2="297.5" y1="483.2891" y2="483.2891"/><text fill="#000000" font-family="sans-serif" font-size="13" lengthAdjust="spacingAndGlyphs" textLength="141" x="49.5" y="478.2231">Provides showtime list</text><polygon fill="#A80036" points="286.5,508.4219,296.5,512.4219,286.5,516.4219,290.5,512.4219" style="stroke: #A80036; stroke-width: 1.0;"/><line style="stroke: #A80036; stroke-width: 1.0;" x1="32.5" x2="292.5" y1="512.4219" y2="512.4219"/><text fill="#000000" font-family="sans-serif" font-size="13" lengthAdjust="spacingAndGlyphs" textLength="162" x="39.5" y="507.356">Selects/Inputs showtimes</text><polygon fill="#A80036" points="286.5,537.5547,296.5,541.5547,286.5,545.5547,290.5,541.5547" style="stroke: #A80036; stroke-width: 1.0;"/><line style="stroke: #A80036; stroke-width: 1.0;" x1="32.5" x2="292.5" y1="541.5547" y2="541.5547"/><text fill="#000000" font-family="sans-serif" font-size="13" lengthAdjust="spacingAndGlyphs" textLength="201" x="39.5" y="536.4888">Requests showtime registration</text><polygon fill="#A80036" points="568.5,617.0859,578.5,621.0859,568.5,625.0859,572.5,621.0859" style="stroke: #A80036; stroke-width: 1.0;"/><line style="stroke: #A80036; stroke-width: 1.0;" x1="298.5" x2="574.5" y1="621.0859" y2="621.0859"/><text fill="#000000" font-family="sans-serif" font-size="13" lengthAdjust="spacingAndGlyphs" textLength="161" x="305.5" y="600.8872">Create showtime request</text><text fill="#000000" font-family="sans-serif" font-size="13" lengthAdjust="spacingAndGlyphs" textLength="110" x="305.5" y="616.02">POST /showtimes</text><path d="M585,554.5547 L585,654.5547 L754,654.5547 L754,564.5547 L744,554.5547 L585,554.5547 " fill="#FBFB77" filter="url(#f11bys1guqvogc)" style="stroke: #A80036; stroke-width: 1.0;"/><path d="M744,554.5547 L744,564.5547 L754,564.5547 L744,554.5547 " fill="#FBFB77" style="stroke: #A80036; stroke-width: 1.0;"/><text fill="#000000" font-family="sans-serif" font-size="13" lengthAdjust="spacingAndGlyphs" textLength="148" x="591" y="571.6216">ShowtimesCreateDto {</text><text fill="#000000" font-family="sans-serif" font-size="13" lengthAdjust="spacingAndGlyphs" textLength="54" x="591" y="586.7544">movieId,</text><text fill="#000000" font-family="sans-serif" font-size="13" lengthAdjust="spacingAndGlyphs" textLength="69" x="591" y="601.8872">theaterIds,</text><text fill="#000000" font-family="sans-serif" font-size="13" lengthAdjust="spacingAndGlyphs" textLength="72" x="591" y="617.02">startTimes,</text><text fill="#000000" font-family="sans-serif" font-size="13" lengthAdjust="spacingAndGlyphs" textLength="103" x="591" y="632.1528">durationMinutes</text><text fill="#000000" font-family="sans-serif" font-size="13" lengthAdjust="spacingAndGlyphs" textLength="8" x="591" y="647.2856">}</text><polygon fill="#A80036" points="309.5,681.4844,299.5,685.4844,309.5,689.4844,305.5,685.4844" style="stroke: #A80036; stroke-width: 1.0;"/><line style="stroke: #A80036; stroke-width: 1.0; stroke-dasharray: 2.0,2.0;" x1="303.5" x2="579.5" y1="685.4844" y2="685.4844"/><text fill="#000000" font-family="sans-serif" font-size="13" lengthAdjust="spacingAndGlyphs" textLength="85" x="315.5" y="680.4185">Created(201)</text><polygon fill="#A80036" points="43.5,710.6172,33.5,714.6172,43.5,718.6172,39.5,714.6172" style="stroke: #A80036; stroke-width: 1.0;"/><line style="stroke: #A80036; stroke-width: 1.0; stroke-dasharray: 2.0,2.0;" x1="37.5" x2="297.5" y1="714.6172" y2="714.6172"/><text fill="#000000" font-family="sans-serif" font-size="13" lengthAdjust="spacingAndGlyphs" textLength="242" x="49.5" y="709.5513">Showtime registration success screen</text><!--MD5=[d2e99bad8fb6db943c057cee8a302c9f]
@startuml
actor Admin

Admin -> Frontend: Visits showtime creation page
Frontend -> Backend: Request movie list\nGET /movies?orderby=releaseDate:desc
Frontend <- - Backend: movies[]
Admin <- - Frontend: Provides movie list

Admin -> Frontend: Selects movie
Frontend -> Backend: Request theater list\nGET /theaters?orderby=name:asc
Frontend <- - Backend: theaters[]
Admin <- - Frontend: Provides theater list

Admin -> Frontend: Selects theaters
Frontend -> Backend: Request showtime list\nGET /showtimes?theaterIds=[]
Frontend <- - Backend: showtimes[]
Admin <- - Frontend: Provides showtime list

Admin -> Frontend: Selects/Inputs showtimes

Admin -> Frontend: Requests showtime registration
Frontend -> Backend: Create showtime request\nPOST /showtimes
note right
ShowtimesCreateDto {
movieId,
theaterIds,
startTimes,
durationMinutes
}
end note
Frontend <- - Backend: Created(201)
Admin <- - Frontend: Showtime registration success screen
@enduml

PlantUML version 1.2020.02(Sun Mar 01 10:22:07 UTC 2020)
(GPL source distribution)
Java Runtime: OpenJDK Runtime Environment
JVM: OpenJDK 64-Bit Server VM
Java Version: 17.0.15+6-Debian-1deb12u1
Operating System: Linux
Default Encoding: UTF-8
Language: ko
Country: KR
--></g></svg>