<?xml version="1.0" encoding="UTF-8" standalone="no"?><svg xmlns="http://www.w3.org/2000/svg" xmlns:xlink="http://www.w3.org/1999/xlink" contentScriptType="application/ecmascript" contentStyleType="text/css" height="543px" preserveAspectRatio="none" style="width:590px;height:543px;" version="1.1" viewBox="0 0 590 543" width="590px" zoomAndPan="magnify"><defs><filter height="300%" id="f5pq8e1bli045" width="300%" x="-1" y="-1"><feGaussianBlur result="blurOut" stdDeviation="2.0"/><feColorMatrix in="blurOut" result="blurOut2" type="matrix" values="0 0 0 0 0 0 0 0 0 0 0 0 0 0 0 0 0 0 .4 0"/><feOffset dx="4.0" dy="4.0" in="blurOut2" result="blurOut3"/><feBlend in="SourceGraphic" in2="blurOut3" mode="normal"/></filter></defs><g><line style="stroke: #A80036; stroke-width: 1.0; stroke-dasharray: 5.0,5.0;" x1="44" x2="44" y1="86.2969" y2="455.8906"/><line style="stroke: #A80036; stroke-width: 1.0; stroke-dasharray: 5.0,5.0;" x1="264.5" x2="264.5" y1="86.2969" y2="455.8906"/><line style="stroke: #A80036; stroke-width: 1.0; stroke-dasharray: 5.0,5.0;" x1="543.5" x2="543.5" y1="86.2969" y2="455.8906"/><text fill="#000000" font-family="sans-serif" font-size="14" lengthAdjust="spacingAndGlyphs" textLength="66" x="8" y="82.9951">customer</text><ellipse cx="44" cy="13" fill="#FEFECE" filter="url(#f5pq8e1bli045)" rx="8" ry="8" style="stroke: #A80036; stroke-width: 2.0;"/><path d="M44,21 L44,48 M31,29 L57,29 M44,48 L31,63 M44,48 L57,63 " fill="none" filter="url(#f5pq8e1bli045)" style="stroke: #A80036; stroke-width: 2.0;"/><text fill="#000000" font-family="sans-serif" font-size="14" lengthAdjust="spacingAndGlyphs" textLength="66" x="8" y="467.8857">customer</text><ellipse cx="44" cy="481.1875" fill="#FEFECE" filter="url(#f5pq8e1bli045)" rx="8" ry="8" style="stroke: #A80036; stroke-width: 2.0;"/><path d="M44,489.1875 L44,516.1875 M31,497.1875 L57,497.1875 M44,516.1875 L31,531.1875 M44,516.1875 L57,531.1875 " fill="none" filter="url(#f5pq8e1bli045)" style="stroke: #A80036; stroke-width: 2.0;"/><rect fill="#FEFECE" filter="url(#f5pq8e1bli045)" height="30.2969" style="stroke: #A80036; stroke-width: 1.5;" width="77" x="224.5" y="51"/><text fill="#000000" font-family="sans-serif" font-size="14" lengthAdjust="spacingAndGlyphs" textLength="63" x="231.5" y="70.9951">Frontend</text><rect fill="#FEFECE" filter="url(#f5pq8e1bli045)" height="30.2969" style="stroke: #A80036; stroke-width: 1.5;" width="77" x="224.5" y="454.8906"/><text fill="#000000" font-family="sans-serif" font-size="14" lengthAdjust="spacingAndGlyphs" textLength="63" x="231.5" y="474.8857">Frontend</text><rect fill="#FEFECE" filter="url(#f5pq8e1bli045)" height="30.2969" style="stroke: #A80036; stroke-width: 1.5;" width="75" x="504.5" y="51"/><text fill="#000000" font-family="sans-serif" font-size="14" lengthAdjust="spacingAndGlyphs" textLength="61" x="511.5" y="70.9951">Backend</text><rect fill="#FEFECE" filter="url(#f5pq8e1bli045)" height="30.2969" style="stroke: #A80036; stroke-width: 1.5;" width="75" x="504.5" y="454.8906"/><text fill="#000000" font-family="sans-serif" font-size="14" lengthAdjust="spacingAndGlyphs" textLength="61" x="511.5" y="474.8857">Backend</text><polygon fill="#A80036" points="253,113.4297,263,117.4297,253,121.4297,257,117.4297" style="stroke: #A80036; stroke-width: 1.0;"/><line style="stroke: #A80036; stroke-width: 1.0;" x1="44" x2="259" y1="117.4297" y2="117.4297"/><text fill="#000000" font-family="sans-serif" font-size="13" lengthAdjust="spacingAndGlyphs" textLength="197" x="51" y="112.3638">Access movie ticketing system</text><polygon fill="#A80036" points="532,142.5625,542,146.5625,532,150.5625,536,146.5625" style="stroke: #A80036; stroke-width: 1.0;"/><line style="stroke: #A80036; stroke-width: 1.0;" x1="265" x2="538" y1="146.5625" y2="146.5625"/><text fill="#000000" font-family="sans-serif" font-size="13" lengthAdjust="spacingAndGlyphs" textLength="255" x="272" y="141.4966">Request list of currently showing movies</text><polygon fill="#A80036" points="276,171.6953,266,175.6953,276,179.6953,272,175.6953" style="stroke: #A80036; stroke-width: 1.0;"/><line style="stroke: #A80036; stroke-width: 1.0;" x1="270" x2="543" y1="175.6953" y2="175.6953"/><text fill="#000000" font-family="sans-serif" font-size="13" lengthAdjust="spacingAndGlyphs" textLength="56" x="282" y="170.6294">movies[]</text><polygon fill="#A80036" points="55,200.8281,45,204.8281,55,208.8281,51,204.8281" style="stroke: #A80036; stroke-width: 1.0;"/><line style="stroke: #A80036; stroke-width: 1.0;" x1="49" x2="264" y1="204.8281" y2="204.8281"/><text fill="#000000" font-family="sans-serif" font-size="13" lengthAdjust="spacingAndGlyphs" textLength="135" x="61" y="199.7622">Provide list of movies</text><polygon fill="#A80036" points="253,229.9609,263,233.9609,253,237.9609,257,233.9609" style="stroke: #A80036; stroke-width: 1.0;"/><line style="stroke: #A80036; stroke-width: 1.0;" x1="44" x2="259" y1="233.9609" y2="233.9609"/><text fill="#000000" font-family="sans-serif" font-size="13" lengthAdjust="spacingAndGlyphs" textLength="83" x="51" y="228.895">Select movie</text><polygon fill="#A80036" points="532,259.0938,542,263.0938,532,267.0938,536,263.0938" style="stroke: #A80036; stroke-width: 1.0;"/><line style="stroke: #A80036; stroke-width: 1.0;" x1="265" x2="538" y1="263.0938" y2="263.0938"/><text fill="#000000" font-family="sans-serif" font-size="13" lengthAdjust="spacingAndGlyphs" textLength="148" x="272" y="258.0278">Request list of theaters</text><polygon fill="#A80036" points="276,288.2266,266,292.2266,276,296.2266,272,292.2266" style="stroke: #A80036; stroke-width: 1.0;"/><line style="stroke: #A80036; stroke-width: 1.0;" x1="270" x2="543" y1="292.2266" y2="292.2266"/><text fill="#000000" font-family="sans-serif" font-size="13" lengthAdjust="spacingAndGlyphs" textLength="64" x="282" y="287.1606">theaters[]</text><polygon fill="#A80036" points="55,317.3594,45,321.3594,55,325.3594,51,321.3594" style="stroke: #A80036; stroke-width: 1.0;"/><line style="stroke: #A80036; stroke-width: 1.0;" x1="49" x2="264" y1="321.3594" y2="321.3594"/><text fill="#000000" font-family="sans-serif" font-size="13" lengthAdjust="spacingAndGlyphs" textLength="143" x="61" y="316.2935">Provide list of theaters</text><polygon fill="#A80036" points="253,346.4922,263,350.4922,253,354.4922,257,350.4922" style="stroke: #A80036; stroke-width: 1.0;"/><line style="stroke: #A80036; stroke-width: 1.0;" x1="44" x2="259" y1="350.4922" y2="350.4922"/><text fill="#000000" font-family="sans-serif" font-size="13" lengthAdjust="spacingAndGlyphs" textLength="91" x="51" y="345.4263">Select theater</text><polygon fill="#A80036" points="532,375.625,542,379.625,532,383.625,536,379.625" style="stroke: #A80036; stroke-width: 1.0;"/><line style="stroke: #A80036; stroke-width: 1.0;" x1="265" x2="538" y1="379.625" y2="379.625"/><text fill="#000000" font-family="sans-serif" font-size="13" lengthAdjust="spacingAndGlyphs" textLength="166" x="272" y="374.5591">Request list of show dates</text><polygon fill="#A80036" points="276,404.7578,266,408.7578,276,412.7578,272,408.7578" style="stroke: #A80036; stroke-width: 1.0;"/><line style="stroke: #A80036; stroke-width: 1.0;" x1="270" x2="543" y1="408.7578" y2="408.7578"/><text fill="#000000" font-family="sans-serif" font-size="13" lengthAdjust="spacingAndGlyphs" textLength="78" x="282" y="403.6919">showdates[]</text><polygon fill="#A80036" points="55,433.8906,45,437.8906,55,441.8906,51,437.8906" style="stroke: #A80036; stroke-width: 1.0;"/><line style="stroke: #A80036; stroke-width: 1.0;" x1="49" x2="264" y1="437.8906" y2="437.8906"/><text fill="#000000" font-family="sans-serif" font-size="13" lengthAdjust="spacingAndGlyphs" textLength="161" x="61" y="432.8247">Provide list of show dates</text><!--MD5=[0c07c0987fe8a7cb023081053f33455f]
@startuml
actor customer
participant “Frontend” as front
participant “Backend” as back

customer -> front : Access movie ticketing system
front -> back : Request list of currently showing movies
front <- back : movies[]
customer <- front : Provide list of movies
customer -> front : Select movie
front -> back : Request list of theaters
front <- back : theaters[]
customer <- front : Provide list of theaters
customer -> front : Select theater
front -> back : Request list of show dates
front <- back : showdates[]
customer <- front : Provide list of show dates
@enduml

PlantUML version 1.2020.02(Sun Mar 01 10:22:07 UTC 2020)
(GPL source distribution)
Java Runtime: OpenJDK Runtime Environment
JVM: OpenJDK 64-Bit Server VM
Java Version: 17.0.15+6-Debian-1deb12u1
Operating System: Linux
Default Encoding: UTF-8
Language: ko
Country: KR
--></g></svg>