<svg xmlns="http://www.w3.org/2000/svg" xmlns:xlink="http://www.w3.org/1999/xlink" version="1.1" data-diagram-type="DESCRIPTION" style="width:601px;height:744px;background:#FFFFFF;" width="601px" height="744px" viewBox="0 0 601 744" zoomAndPan="magnify" preserveAspectRatio="none" contentStyleType="text/css"><?plantuml 1.2026.7beta11?><defs/><g font-family="sans-serif" lengthAdjust="spacing"><g class="title" data-source-line="1"><text x="189.578" y="26.24" fill="#000" font-size="14" textLength="215.613" font-weight="700" font-family="'Noto Sans CJK KR'">이응노미술관 운영 시스템 유스케이스</text></g><!--cluster 이응노미술관 운영 시스템--><g class="cluster" data-qualified-name="...... .. ..." id="ent0005" data-source-line="23"><rect x="133.42" y="265.912" width="454.35" height="465" fill="none" style="stroke:#181818;stroke-width:1;" rx="2.5" ry="2.5"/><text x="286.577" y="284.152" fill="#000" font-size="14" textLength="148.035" font-weight="700" font-family="'Noto Sans CJK KR'">이응노미술관 운영 시스템</text></g><!--entity KioskTicketing--><g class="entity" data-qualified-name="...... .. ....KioskTicketing" id="ent0006" data-source-line="24"><ellipse cx="499.054" cy="342.913" rx="72.714" ry="29.621" fill="#FFF" style="stroke:#2563EB;stroke-width:0.5;"/><text x="445.966" y="342.43" fill="#111827" font-size="14" textLength="106.176" font-family="'Noto Sans CJK KR'">발권 키오스크에서</text><text x="465.286" y="362.702" fill="#111827" font-size="14" textLength="67.536" font-family="'Noto Sans CJK KR'">관람권 발권</text></g><!--entity Admission--><g class="entity" data-qualified-name="...... .. ....Admission" id="ent0007" data-source-line="25"><ellipse cx="229.884" cy="321.911" rx="75.194" ry="17.439" fill="#FFF" style="stroke:#2563EB;stroke-width:0.5;"/><text x="178.469" y="328.547" fill="#111827" font-size="14" textLength="102.83" font-family="'Noto Sans CJK KR'">QR 티켓으로 입장</text></g><!--entity PosTicketing--><g class="entity" data-qualified-name="...... .. ....PosTicketing" id="ent0008" data-source-line="27"><ellipse cx="499.046" cy="464.917" rx="48.566" ry="30.355" fill="#FFF" style="stroke:#2563EB;stroke-width:0.5;"/><text x="472.37" y="459.512" fill="#111827" font-size="14" textLength="53.354" font-family="'Noto Sans CJK KR'">POS에서</text><text x="465.279" y="479.784" fill="#111827" font-size="14" textLength="67.536" font-family="'Noto Sans CJK KR'">관람권 발권</text></g><!--entity ReprintTicket--><g class="entity" data-qualified-name="...... .. ....ReprintTicket" id="ent0009" data-source-line="28"><ellipse cx="229.884" cy="403.907" rx="49.754" ry="29.235" fill="#FFF" style="stroke:#2563EB;stroke-width:0.5;"/><text x="193.757" y="404.026" fill="#111827" font-size="14" textLength="72.254" font-family="'Noto Sans CJK KR'">티켓·영수증</text><text x="210.564" y="424.298" fill="#111827" font-size="14" textLength="38.64" font-family="'Noto Sans CJK KR'">재출력</text></g><!--entity CreateEvent--><g class="entity" data-qualified-name="...... .. ....CreateEvent" id="ent0010" data-source-line="30"><ellipse cx="229.885" cy="555.916" rx="50.755" ry="17.334" fill="#FFF" style="stroke:#2563EB;stroke-width:0.5;"/><text x="196.117" y="562.552" fill="#111827" font-size="14" textLength="67.536" font-family="'Noto Sans CJK KR'">이벤트 생성</text></g><!--entity ViewSales--><g class="entity" data-qualified-name="...... .. ....ViewSales" id="ent0011" data-source-line="31"><ellipse cx="229.877" cy="625.916" rx="41.647" ry="17.334" fill="#FFF" style="stroke:#2563EB;stroke-width:0.5;"/><text x="202.55" y="632.552" fill="#111827" font-size="14" textLength="54.656" font-family="'Noto Sans CJK KR'">매출 조회</text></g><!--entity ViewStatistics--><g class="entity" data-qualified-name="...... .. ....ViewStatistics" id="ent0012" data-source-line="32"><ellipse cx="229.882" cy="696.914" rx="80.462" ry="18.492" fill="#FFF" style="stroke:#2563EB;stroke-width:0.5;"/><text x="171.299" y="703.55" fill="#111827" font-size="14" textLength="117.165" font-family="'Noto Sans CJK KR'">발권·입장 통계 조회</text></g><!--entity CardPayment--><g class="entity" data-qualified-name="...... .. ....CardPayment" id="ent0013" data-source-line="34"><ellipse cx="229.878" cy="485.908" rx="75.578" ry="17.516" fill="#FFF" style="stroke:#2563EB;stroke-width:0.5;"/><text x="177.925" y="492.544" fill="#111827" font-size="14" textLength="103.908" font-family="'Noto Sans CJK KR'">KOVAN 카드 결제</text></g><!--entity Visitor--><g class="entity" data-qualified-name="Visitor" id="ent0001" data-source-line="18"><ellipse cx="46.21" cy="55.272" rx="8" ry="8" fill="#F1F1F1" style="stroke:#1F2937;stroke-width:0.5;"/><path d="M46.21,63.272 L46.21,90.272 M33.21,71.272 L59.21,71.272 M46.21,90.272 L33.21,105.272 M46.21,90.272 L59.21,105.272" style="stroke:#1F2937;stroke-width:0.5;" fill="none"/><text x="26.89" y="123.012" fill="#111827" font-size="14" textLength="38.64" font-family="'Noto Sans CJK KR'">관람객</text></g><!--entity Staff--><g class="entity" data-qualified-name="Staff" id="ent0002" data-source-line="19"><ellipse cx="46.208" cy="264.272" rx="8" ry="8" fill="#F1F1F1" style="stroke:#1F2937;stroke-width:0.5;"/><path d="M46.208,272.272 L46.208,299.272 M33.208,280.272 L59.208,280.272 M46.208,299.272 L33.208,314.272 M46.208,299.272 L59.208,314.272" style="stroke:#1F2937;stroke-width:0.5;" fill="none"/><text x="18.88" y="332.012" fill="#111827" font-size="14" textLength="54.656" font-family="'Noto Sans CJK KR'">현장 직원</text></g><!--entity Manager--><g class="entity" data-qualified-name="Manager" id="ent0003" data-source-line="20"><ellipse cx="46.208" cy="594.272" rx="8" ry="8" fill="#F1F1F1" style="stroke:#1F2937;stroke-width:0.5;"/><path d="M46.208,602.272 L46.208,629.272 M33.208,610.272 L59.208,610.272 M46.208,629.272 L33.208,644.272 M46.208,629.272 L59.208,644.272" style="stroke:#1F2937;stroke-width:0.5;" fill="none"/><text x="6" y="662.012" fill="#111827" font-size="14" textLength="80.416" font-family="'Noto Sans CJK KR'">미술관 담당자</text></g><!--entity PaymentProvider--><g class="entity" data-qualified-name="PaymentProvider" id="ent0004" data-source-line="21"><ellipse cx="46.208" cy="454.272" rx="8" ry="8" fill="#F1F1F1" style="stroke:#1F2937;stroke-width:0.5;"/><path d="M46.208,462.272 L46.208,489.272 M33.208,470.272 L59.208,470.272 M46.208,489.272 L33.208,504.272 M46.208,489.272 L59.208,504.272" style="stroke:#1F2937;stroke-width:0.5;" fill="none"/><text x="23.15" y="522.012" fill="#111827" font-size="14" textLength="46.116" font-family="'Noto Sans CJK KR'">KOVAN</text></g><g class="entity" data-qualified-name="GMN14" id="ent0015" data-source-line="38"><path d="M159,202.092 L159,249.74 L300.757,249.74 L300.757,212.092 L290.757,202.092 L159,202.092" style="stroke:#181818;stroke-width:0.5;" fill="#FEFFDD"/><path d="M290.757,202.092 L290.757,212.092 L300.757,212.092 L290.757,202.092" style="stroke:#181818;stroke-width:1;" fill="#FEFFDD"/><text x="165" y="222.172" fill="#000" font-size="13" textLength="93.925" font-family="'Noto Sans CJK KR'">운영 기간·시간과</text><text x="165" y="240.996" fill="#000" font-size="13" textLength="120.757" font-family="'Noto Sans CJK KR'">권종·가격을 함께 설정</text></g><!--link CreateEvent to GMN14--><g class="link" data-entity-1="ent0010" data-entity-2="ent0015" id="lnk16" data-source-line="38" data-link-type="association"><path d="M180.95,550.992 C152.04,545.052 118.68,532.012 105.92,503.412 C88.08,463.432 88.08,346.392 105.92,306.412 C117.21,281.102 141.04,262.822 164.81,250.142" style="stroke:#4B5563;stroke-width:1;stroke-dasharray:7,7;" fill="none" id="CreateEvent-GMN14"/></g><!--link Visitor to KioskTicketing--><g class="link" data-entity-1="ent0001" data-entity-2="ent0006" id="lnk17" data-source-line="42" data-link-type="dependency"><path d="M65.74,87.332 C110.65,89.092 227.67,98.182 310.34,144.912 C385.8,187.572 446.469,266.301 476.549,310.081" style="stroke:#4B5563;stroke-width:1;" fill="none" id="Visitor-to-KioskTicketing"/><polygon points="479.38,314.202,477.58,304.519,476.549,310.081,470.987,309.049,479.38,314.202" fill="#4B5563" style="stroke:#4B5563;stroke-width:1;stroke-linejoin:miter;stroke-miterlimit:10;"/></g><!--link Visitor to Admission--><g class="link" data-entity-1="ent0001" data-entity-2="ent0007" id="lnk18" data-source-line="43" data-link-type="dependency"><path d="M56.44,127.352 C67.25,166.952 88.53,227.002 125.42,266.912 C142.12,284.992 161.563,296.272 182.263,305.252" style="stroke:#4B5563;stroke-width:1;" fill="none" id="Visitor-to-Admission"/><polygon points="186.85,307.242,180.185,299.991,182.263,305.252,177.002,307.33,186.85,307.242" fill="#4B5563" style="stroke:#4B5563;stroke-width:1;stroke-linejoin:miter;stroke-miterlimit:10;"/></g><!--link Staff to PosTicketing--><g class="link" data-entity-1="ent0002" data-entity-2="ent0008" id="lnk19" data-source-line="45" data-link-type="dependency"><path d="M63.89,255.342 C76.66,230.082 96.96,199.672 125.42,184.912 C198.37,147.072 239.34,143.512 310.34,184.912 C400.77,237.652 363.91,305.882 426.34,389.912 C439.66,407.842 453.33,422.502 467.57,436.462" style="stroke:#4B5563;stroke-width:1;" fill="none" id="Staff-to-PosTicketing"/><polygon points="471.14,439.962,467.513,430.805,467.57,436.462,461.913,436.518,471.14,439.962" fill="#4B5563" style="stroke:#4B5563;stroke-width:1;stroke-linejoin:miter;stroke-miterlimit:10;"/></g><!--link Staff to ReprintTicket--><g class="link" data-entity-1="ent0002" data-entity-2="ent0009" id="lnk20" data-source-line="46" data-link-type="dependency"><path d="M73.93,319.312 C88.54,331.432 107.3,345.942 125.42,356.912 C145.16,368.862 163.866,377.763 183.356,386.013" style="stroke:#4B5563;stroke-width:1;" fill="none" id="Staff-to-ReprintTicket"/><polygon points="187.96,387.962,181.231,380.77,183.356,386.013,178.113,388.137,187.96,387.962" fill="#4B5563" style="stroke:#4B5563;stroke-width:1;stroke-linejoin:miter;stroke-miterlimit:10;"/></g><!--link Manager to CreateEvent--><g class="link" data-entity-1="ent0003" data-entity-2="ent0010" id="lnk21" data-source-line="48" data-link-type="dependency"><path d="M86.69,607.372 C98.99,601.832 112.67,595.902 125.42,590.912 C147.13,582.402 167.105,575.538 186.945,569.088" style="stroke:#4B5563;stroke-width:1;" fill="none" id="Manager-to-CreateEvent"/><polygon points="191.7,567.542,181.904,566.52,186.945,569.088,184.378,574.128,191.7,567.542" fill="#4B5563" style="stroke:#4B5563;stroke-width:1;stroke-linejoin:miter;stroke-miterlimit:10;"/></g><!--link Manager to ViewSales--><g class="link" data-entity-1="ent0003" data-entity-2="ent0011" id="lnk22" data-source-line="49" data-link-type="dependency"><path d="M86.63,625.912 C116.58,625.912 152.65,625.912 182.96,625.912" style="stroke:#4B5563;stroke-width:1;" fill="none" id="Manager-to-ViewSales"/><polygon points="187.96,625.912,178.96,621.912,182.96,625.912,178.96,629.912,187.96,625.912" fill="#4B5563" style="stroke:#4B5563;stroke-width:1;stroke-linejoin:miter;stroke-miterlimit:10;"/></g><!--link Manager to ViewStatistics--><g class="link" data-entity-1="ent0003" data-entity-2="ent0012" id="lnk23" data-source-line="50" data-link-type="dependency"><path d="M86.71,644.382 C99.02,649.922 112.7,655.862 125.42,660.912 C143.8,668.212 159.588,673.908 177.478,680.008" style="stroke:#4B5563;stroke-width:1;" fill="none" id="Manager-to-ViewStatistics"/><polygon points="182.21,681.622,174.982,674.931,177.478,680.008,172.401,682.503,182.21,681.622" fill="#4B5563" style="stroke:#4B5563;stroke-width:1;stroke-linejoin:miter;stroke-miterlimit:10;"/></g><!--link PaymentProvider to CardPayment--><g class="link" data-entity-1="ent0004" data-entity-2="ent0013" id="lnk24" data-source-line="52" data-link-type="dependency"><path d="M69.48,485.912 C90.61,485.912 118.57,485.912 149.05,485.912" style="stroke:#4B5563;stroke-width:1;" fill="none" id="PaymentProvider-to-CardPayment"/><polygon points="154.05,485.912,145.05,481.912,149.05,485.912,145.05,489.912,154.05,485.912" fill="#4B5563" style="stroke:#4B5563;stroke-width:1;stroke-linejoin:miter;stroke-miterlimit:10;"/></g><!--link CardPayment to KioskTicketing--><g class="link" data-entity-1="ent0013" data-entity-2="ent0006" id="lnk25" data-source-line="54" data-link-type="dependency"><path d="M270.69,470.772 C283.7,465.212 297.96,458.412 310.34,450.912 C324.94,442.062 326.08,436.302 340.34,426.912 C375.84,403.552 414.026,383.344 446.026,367.554" style="stroke:#4B5563;stroke-width:1;stroke-dasharray:7,7;" fill="none" id="CardPayment-to-KioskTicketing"/><polygon points="450.51,365.342,440.669,365.737,446.026,367.554,444.209,372.911,450.51,365.342" fill="#4B5563" style="stroke:#4B5563;stroke-width:1;stroke-linejoin:miter;stroke-miterlimit:10;"/><text x="341.34" y="371.992" fill="#000" font-size="13" textLength="54.223" font-family="'Noto Sans CJK KR'">«extend»</text><text x="346.118" y="390.816" fill="#000" font-size="13" textLength="44.668" font-family="'Noto Sans CJK KR'">[유료권]</text></g><!--link CardPayment to PosTicketing--><g class="link" data-entity-1="ent0013" data-entity-2="ent0008" id="lnk26" data-source-line="55" data-link-type="dependency"><path d="M302.13,480.312 C349.12,476.622 404.395,472.274 445.605,469.034" style="stroke:#4B5563;stroke-width:1;stroke-dasharray:7,7;" fill="none" id="CardPayment-to-PosTicketing"/><polygon points="450.59,468.642,441.304,465.36,445.605,469.034,441.931,473.335,450.59,468.642" fill="#4B5563" style="stroke:#4B5563;stroke-width:1;stroke-linejoin:miter;stroke-miterlimit:10;"/><text x="341.34" y="450.992" fill="#000" font-size="13" textLength="54.223" font-family="'Noto Sans CJK KR'">«extend»</text><text x="346.118" y="469.816" fill="#000" font-size="13" textLength="44.668" font-family="'Noto Sans CJK KR'">[유료권]</text></g><?plantuml-src ZLHTJnDH47tVNp6fpv008ce82H1ui14gDRo83zVkRRbfkvViNa1YJ42tXb0UC8JOuBOfMaKJ4bUeK6AV-3cxi__1kn-5RIl6VUbsvioScNCcAvWeKC1g4wlltLBB_T72xRhJt0GyR69b2x1iuKx3Arc0Lbs-ONlJ1-yq5AL0im841vtbbWMeJASPmRYc67cchH2T5C5O9YfVPreEigHWq5XcXMJo94VJOaEo-uL4onNY09LcoMf1p79Dp94YXSGSbrHfeXam_IW9oOL433ofwtnzcXUu3dVkJesEtXk99Kb6oFWh1M2AwohL8zpGxF23aJ4PzIawiQ6X-yDZokjOzQf1CyIWORqSEgVpLKsDyBF1qzjvMFBFJDtIMGd7IKY9tTgkOrSJG0nOP0QJuKxIgvXO-m9ul8KVzm90Mf1ijfE-CSajDzto9TP2q6EYIKslkoJd5oVdWaIAR1If9b8wNsDoJaMvLXmI_s5z8jY-eqJ2jItdV1UyDmsiD7p4rWb-s4FJMjAYhMGs10NiISQD_5EMoLCXJo7UwSa2U6KRs_jejTqZUMArajmxA9fKYymm_7EA5wJcq_-aId7ZhqGXozM5N0ktA_YrkgHXxGJFBRSUqYtG5Prf8YpkefJwkASDRwS5-BQAviy0FgrJ8kZCcXIrIvdZXkm9U6HxXxkHiNGzJGhKw1TGJXEi2zwxNywPsLSbY626O1cZQvp0LC3BfhjlWNDgOzqA9oAw6jdiNvd61OKNN0XU19xjcJVorsdPZctACSgM_7NEsZ8bvy9FfQiBnzvqJhzZrGJlu9lpkm9eDh1-e51D1R-teaGd2mC34xqEnrCn7uCR3e9TDjs4Uqo8pZb8nHU8ns_qxOl6zEkv_x1ZJ30bzWS61tiNWeSmFavV2hdynCIIzan-2TtF_kazxokCRtPxsHy0?></g></svg>